<?xml version="1.0" encoding="UTF-8" standalone="no"?>
<!-- Generator: Adobe Illustrator 19.0.0, SVG Export Plug-In . SVG Version: 6.00 Build 0)  -->

<svg
   version="1.1"
   id="Layer_1"
   x="0px"
   y="0px"
   viewBox="0 0 242.2 242.2"
   xml:space="preserve"
   sodipodi:docname="fig09.svg"
   width="242.2"
   height="242.2"
   inkscape:version="1.3.2 (091e20e, 2023-11-25, custom)"
   xmlns:inkscape="http://www.inkscape.org/namespaces/inkscape"
   xmlns:sodipodi="http://sodipodi.sourceforge.net/DTD/sodipodi-0.dtd"
   xmlns="http://www.w3.org/2000/svg"
   xmlns:svg="http://www.w3.org/2000/svg"><defs
   id="defs1" /><sodipodi:namedview
   id="namedview1"
   pagecolor="#ffffff"
   bordercolor="#999999"
   borderopacity="1"
   inkscape:showpageshadow="2"
   inkscape:pageopacity="0"
   inkscape:pagecheckerboard="0"
   inkscape:deskcolor="#d1d1d1"
   inkscape:zoom="2.8959436"
   inkscape:cx="121.03136"
   inkscape:cy="122.0673"
   inkscape:window-width="1920"
   inkscape:window-height="1017"
   inkscape:window-x="-8"
   inkscape:window-y="-8"
   inkscape:window-maximized="1"
   inkscape:current-layer="Layer_1" />
<style
   type="text/css"
   id="style1">
	.st0{fill:#F6931E;}
	.st1{fill:#BBBBBB;stroke:#231F20;stroke-width:1.2533;stroke-miterlimit:10;}
	.st2{fill:#E5E6E7;stroke:#231F20;stroke-width:1.2533;stroke-miterlimit:10;}
	.st3{fill:#00ADEE;}
</style>
<path
   id="XMLID_1_"
   class="st0"
   d="M 231,0 H 11.3 C 5.1,0 0,5 0,11.3 v 219.6 c 0,6.2 5,11.3 11.3,11.3 h 219.6 c 6.2,0 11.3,-5 11.3,-11.3 V 11.3 C 242.2,5 237.2,0 231,0 Z" />
<path
   id="XMLID_5_"
   class="st1"
   d="m 208.6,21.9 h -175 c -6.4,0 -11.7,5.3 -11.7,11.7 v 175 c 0,6.4 5.3,11.7 11.7,11.7 h 175 c 6.4,0 11.7,-5.3 11.7,-11.7 v -175 c 0,-6.5 -5.2,-11.7 -11.7,-11.7 z" />
<path
   id="XMLID_4_"
   class="st2"
   d="m 208.6,21.9 h -175 c -6.4,0 -11.7,5.3 -11.7,11.7 v 175 c 0,6.4 5.3,11.7 11.7,11.7 h 175 c 6.4,0 11.7,-5.3 11.7,-11.7 v -175 c 0,-6.5 -5.2,-11.7 -11.7,-11.7 z" />
<path
   id="XMLID_29_"
   class="st3"
   d="m 62.3,99.8 h 18.5 c 6.6,0 12,5.4 12,12 v 18.5 c 0,6.6 -5.4,12 -12,12 H 62.3 c -6.6,0 -12,-5.4 -12,-12 v -18.5 c 0,-6.6 5.4,-12 12,-12 z" />
<path
   id="XMLID_30_"
   class="st3"
   d="m 111.9,99.8 h 18.5 c 6.6,0 12,5.4 12,12 v 18.5 c 0,6.6 -5.4,12 -12,12 h -18.5 c -6.6,0 -12,-5.4 -12,-12 v -18.5 c 0,-6.6 5.4,-12 12,-12 z" />
<path
   id="XMLID_31_"
   class="st3"
   d="M 161.5,99.8 H 180 c 6.6,0 12,5.4 12,12 v 18.5 c 0,6.6 -5.4,12 -12,12 h -18.5 c -6.6,0 -12,-5.4 -12,-12 v -18.5 c 0,-6.6 5.4,-12 12,-12 z" />
<path
   id="XMLID_32_"
   class="st3"
   d="M 161.5,51.1 H 180 c 6.6,0 12,5.4 12,12 v 18.5 c 0,6.6 -5.4,12 -12,12 h -18.5 c -6.6,0 -12,-5.4 -12,-12 V 63.1 c 0,-6.6 5.4,-12 12,-12 z" />
<path
   id="XMLID_34_"
   class="st3"
   d="m 112.6,150.3 h 18.5 c 6.6,0 12,5.4 12,12 v 18.5 c 0,6.6 -5.4,12 -12,12 h -18.5 c -6.6,0 -12,-5.4 -12,-12 v -18.5 c 0,-6.6 5.4,-12 12,-12 z" />


<g
   id="XMLID_219_"
   transform="translate(-20.6,-19.8)">
	<path
   id="XMLID_291_"
   class="st0"
   d="m 126,225.9 c -2.2,0 -4.4,0 -6.5,0 -4.3,0 -8.4,0.1 -12.3,0.1 -3.9,0 -7.6,0.1 -11,0.2 -1.7,0 -3.3,0.1 -4.9,0.1 -1.6,0 -3,0.1 -4.4,0.1 -2.8,0.1 -5.2,0.1 -7.2,0.2 -2,0 -2,0.3 0,0.4 2,0 4.4,0.1 7.2,0.2 1.4,0 2.9,0.1 4.4,0.1 1.6,0 3.2,0.1 4.9,0.1 3.4,0.1 7.1,0.1 11,0.2 3.9,0 8,0.1 12.3,0.1 2.1,0 4.3,0 6.5,0 0.9,0 1.9,0 2.9,0 -0.1,-0.1 -0.4,-0.5 -0.4,-0.9 0,-0.4 0.3,-0.7 0.4,-0.9 -1,0 -2,0 -2.9,0 z" />
	<path
   id="XMLID_290_"
   class="st0"
   d="m 203.5,226.6 c -2,-0.1 -4.4,-0.1 -7.2,-0.2 -1.4,0 -2.9,-0.1 -4.4,-0.1 -1.6,0 -3.2,-0.1 -4.9,-0.1 -3.4,-0.1 -7.1,-0.1 -11,-0.2 -3.9,0 -8,-0.1 -12.3,-0.1 -2.1,0 -4.3,0 -6.5,0 -0.9,0 -1.9,0 -2.9,0 0.1,0.1 0.4,0.5 0.4,0.9 0,0.4 -0.3,0.7 -0.4,0.9 1,0 1.9,0 2.9,0 2.2,0 4.4,0 6.5,0 4.3,0 8.4,-0.1 12.3,-0.1 3.9,0 7.6,-0.1 11,-0.2 1.7,0 3.3,-0.1 4.9,-0.1 1.6,0 3,-0.1 4.4,-0.1 2.8,-0.1 5.2,-0.1 7.2,-0.2 2,-0.1 2,-0.4 0,-0.4 z" />
	<path
   id="XMLID_220_"
   class="st0"
   d="m 154.1,226.7 c -0.2,-0.5 -0.4,-1 -0.8,-1.4 -0.3,-0.4 -0.8,-0.8 -1.2,-1.1 0.1,-0.2 0.1,-0.4 0.1,-0.6 0,-0.2 0,-0.4 0,-0.6 0,-1.1 -0.3,-2 -0.9,-2.6 -0.6,-0.6 -1.3,-0.9 -2.1,-0.9 -0.3,0 -0.6,0 -0.9,0 -0.7,0.1 -1.2,0.6 -1.5,1.2 -0.1,0.4 -0.1,0.7 0,1.1 0.1,0.2 0.3,0.6 0.8,0.8 0.3,0.1 0.7,0.1 1,0 0.2,-0.1 0.6,-0.3 0.7,-0.8 0,-0.2 -0.1,-0.5 -0.3,-0.7 -0.2,-0.2 -0.4,-0.3 -0.7,-0.2 -0.2,0.1 -0.5,0.3 -0.4,0.6 0,0.2 0.2,0.3 0.3,0.3 0.1,0 0.2,0 0.2,-0.1 0,0 0,-0.1 0,-0.1 0,0 -0.1,-0.1 -0.1,-0.1 0,0 -0.1,0 -0.1,0.1 0,0 0,0 0,0 0,0 0,0 -0.1,0 0,-0.1 0,-0.1 0,-0.2 0.1,-0.1 0.3,-0.2 0.4,-0.1 0.2,0.1 0.3,0.3 0.3,0.6 0,0.1 -0.1,0.3 -0.2,0.3 -0.1,0.1 -0.3,0.2 -0.4,0.2 -0.4,0 -0.8,-0.2 -0.9,-0.5 -0.2,-0.4 -0.1,-0.7 -0.1,-0.9 0.1,-0.4 0.4,-0.7 0.7,-0.9 0.3,-0.1 0.6,-0.2 0.9,-0.2 0.3,0 0.6,0.1 0.9,0.1 0.1,0 0.3,0.1 0.4,0.1 0.3,0.2 0.6,0.4 0.8,0.7 0.2,0.3 0.4,0.6 0.5,1 0.1,0.4 0.1,0.8 0.1,1.2 0,0.2 0,0.3 0,0.5 0,0.1 0,0.3 -0.1,0.4 -0.4,-0.2 -0.8,-0.3 -1.2,-0.4 -0.4,-0.1 -0.9,-0.2 -1.4,-0.2 -0.6,0 -1.3,0.1 -2,0.2 -0.7,0.1 -1.3,0.4 -2,0.7 -0.3,0.2 -0.7,0.5 -1,0.7 -0.2,0 -0.4,0.1 -0.6,0.1 h -0.4 c 0.1,0 0.1,-0.8 0.2,-1.2 0.1,-0.4 0.1,-0.8 0.1,-1.3 0,-0.7 -0.1,-1.2 -0.4,-1.6 -0.2,-0.3 -0.4,-0.5 -0.7,-0.6 -0.1,0 -0.3,-0.1 -0.4,-0.1 -0.2,0 -0.3,0 -0.4,0.1 -0.3,0.1 -0.5,0.3 -0.7,0.6 -0.3,0.4 -0.4,1 -0.4,1.6 0,0.4 0,0.9 0.1,1.3 0.1,0.4 0.1,1.2 0.2,1.2 H 140 c -0.2,0 -0.4,-0.1 -0.6,-0.1 -0.3,-0.2 -0.7,-0.5 -1,-0.6 -0.7,-0.3 -1.3,-0.6 -2,-0.7 -0.7,-0.1 -1.4,-0.2 -2,-0.2 -0.5,0 -1,0 -1.4,0.2 -0.4,0.1 -0.8,0.2 -1.3,0.4 0,-0.1 -0.1,-0.3 -0.1,-0.4 0,-0.1 0,-0.3 0,-0.5 0,-0.4 0,-0.8 0.1,-1.2 0.1,-0.4 0.2,-0.7 0.4,-1 0.2,-0.3 0.5,-0.5 0.8,-0.7 0.1,-0.1 0.3,-0.1 0.5,-0.2 0.3,0 0.5,-0.1 0.7,-0.1 0.3,0 0.6,0.1 0.9,0.2 0.3,0.2 0.6,0.5 0.7,0.9 0.1,0.2 0.1,0.6 -0.1,0.9 -0.1,0.3 -0.5,0.5 -0.9,0.5 -0.2,0 -0.4,-0.1 -0.4,-0.2 -0.1,-0.1 -0.2,-0.2 -0.2,-0.3 0,-0.2 0.1,-0.5 0.3,-0.6 0.1,0 0.3,0 0.4,0.1 0,0.1 0,0.1 0,0.2 0,0 0,0 -0.1,0 0,0 0,0 0,0 0,0 -0.1,-0.1 -0.1,-0.1 0,0 -0.1,0 -0.1,0.1 0,0 0,0.1 0,0.1 0,0.1 0.1,0.1 0.2,0.1 0.1,0 0.3,-0.1 0.3,-0.3 0.1,-0.3 -0.2,-0.5 -0.4,-0.6 -0.3,-0.1 -0.5,0 -0.7,0.2 -0.2,0.2 -0.3,0.5 -0.3,0.7 0.1,0.5 0.4,0.7 0.7,0.8 0.3,0.1 0.7,0.1 1,0 0.5,-0.2 0.7,-0.6 0.8,-0.8 0.1,-0.3 0.1,-0.7 0,-1.1 -0.2,-0.6 -0.8,-1.1 -1.5,-1.2 -0.3,-0.1 -0.6,-0.1 -0.8,0 -0.8,0.1 -1.5,0.4 -2.1,1 -0.6,0.6 -0.9,1.5 -0.9,2.6 0,0.2 0,0.4 0,0.6 0,0.2 0.1,0.4 0.1,0.6 -0.5,0.3 -0.9,0.7 -1.2,1.1 -0.4,0.5 -0.6,0.9 -0.8,1.4 v 0 c 0,0 0,0 0,0 0,0 0,0 0,0.1 v 0 c 0.1,0.5 0.4,1 0.8,1.4 0.3,0.4 0.8,0.8 1.2,1.1 -0.1,0.2 -0.1,0.4 -0.1,0.6 0,0.2 0,0.4 0,0.6 0,1.1 0.3,2 0.9,2.6 0.1,0.1 0.2,0.2 0.3,0.2 l 0.1,0.1 v 0 l 0.3,0.2 c 0.2,0.1 0.3,0.2 0.5,0.3 h -0.1 l 0.2,0.1 v 0 l 0.2,0.1 c 0,0 0,0 0,0 v 0 0 h 0.2 c 0,0 0,0 0,0 h 0.1 v 0 c 0.2,0 0.3,0.1 0.5,0.1 0.2,0 0.3,0 0.3,0 l -0.1,0.1 0.5,-0.2 c 0,0 0,0 0,0 v 0 c 1.3,-0.5 1.5,-1.5 1.5,-1.6 v 0 0 c 0,-0.3 0,-0.6 -0.2,-0.9 -0.2,-0.2 -0.5,-0.5 -0.9,-0.5 -0.1,0 -0.3,0.1 -0.4,0.3 0,0.1 0,0.2 0,0.2 0,0.1 0.1,0.1 0.2,0 v 0 0 c 0,-0.1 0.1,-0.2 0.2,-0.2 0,0 0.1,0 0.1,0.1 0,0.1 0,0.3 -0.1,0.3 -0.1,0.1 -0.2,0.1 -0.3,0.2 -0.1,0.1 -0.2,0.1 -0.3,0.2 -0.2,0.2 -0.3,0.4 -0.2,0.7 -0.1,0 -0.2,0.1 -0.3,0.3 0,-0.1 0.1,-0.3 0,-0.4 0,-0.1 -0.1,-0.2 -0.3,-0.2 0,0 -0.1,0 -0.1,0 0,0 -0.1,0 -0.1,0.1 0,0 0,0 0,0 0,0 0,0 0,0 -0.1,0 -0.1,0 -0.1,0 -0.3,0 -0.5,0.1 -0.8,0.2 -0.1,-0.1 -0.2,-0.1 -0.4,-0.1 v 0 c -0.1,0 -0.1,0 -0.2,0 0.1,0 0.2,-0.1 0.2,-0.2 l 0.1,-0.1 h -0.1 c -0.1,0 -0.1,-0.1 -0.1,-0.1 0,0 -0.1,-0.1 -0.1,-0.1 -0.1,-0.1 -0.2,-0.1 -0.2,-0.2 -0.1,0 -0.1,0 -0.1,-0.1 -0.1,0 -0.1,-0.1 -0.1,-0.1 0,0 0,0 0,0 0,0 0,0 0,0 0,-0.1 0,-0.1 0,-0.2 l 0.1,-0.1 h -0.1 c 0,-0.3 -0.1,-0.6 -0.1,-0.8 0,-0.2 0,-0.3 0,-0.5 0,-0.1 0,-0.3 0.1,-0.4 0.4,0.2 0.8,0.3 1.3,0.4 0.4,0.1 0.9,0.2 1.4,0.2 0.6,0 1.3,-0.1 2,-0.2 0.7,-0.1 1.3,-0.4 2,-0.7 0.3,-0.2 0.7,-0.3 1,-0.5 0.2,0 0.4,0.1 0.6,0.1 v 0 0 h 0.4 c -0.1,0 -0.2,0.5 -0.2,1 0,0.4 -0.1,0.8 -0.1,1.2 0,0.7 0.1,1.2 0.4,1.6 0.2,0.3 0.4,0.5 0.7,0.6 0.1,0 0.3,0.1 0.4,0.1 0.2,0 0.3,0 0.4,-0.1 0.3,-0.1 0.5,-0.3 0.7,-0.6 0.3,-0.4 0.4,-0.9 0.4,-1.6 0,-0.5 0,-0.8 -0.1,-1.1 -0.1,-0.4 -0.1,-1 -0.2,-1 h 0.4 v 0 0 0 c 0.2,0 0.4,-0.1 0.6,-0.1 v 0 c -0.2,0 -0.4,0 -0.6,0 0.2,0 0.4,0 0.6,0 0.3,0.2 0.7,0.4 1,0.6 0.7,0.3 1.3,0.5 2,0.7 0.7,0.1 1.4,0.2 2,0.2 0.5,0 1,-0.1 1.4,-0.2 0.4,-0.1 0.8,-0.3 1.2,-0.4 0,0.1 0.1,0.3 0.1,0.4 0,0.1 0,0.3 0,0.5 0,0.3 0,0.6 -0.1,0.9 h -0.2 l 0.1,0.1 c 0.1,0.2 -0.1,0.3 -0.2,0.4 0,0 -0.1,0.1 -0.1,0.1 -0.1,0 -0.2,0.1 -0.2,0.2 0,0 -0.1,0.1 -0.1,0.1 0,0 -0.1,0.1 -0.1,0.1 h -0.1 l 0.1,0.1 c 0.1,0.1 0.2,0.1 0.2,0.2 -0.1,0 -0.1,0 -0.2,0 v 0 c -0.2,0 -0.4,0.1 -0.4,0.1 -0.3,-0.2 -0.6,-0.3 -0.8,-0.2 0,0 -0.1,0 -0.1,0 0,0 0,0 0,0 0,0 0,0 0,0 0,-0.1 -0.1,-0.1 -0.1,-0.1 0,0 -0.1,0 -0.1,0 -0.1,0 -0.2,0.1 -0.3,0.2 0,0.1 0,0.3 0,0.4 -0.1,-0.1 -0.2,-0.2 -0.3,-0.3 0,-0.2 0,-0.5 -0.2,-0.7 -0.1,-0.1 -0.2,-0.1 -0.3,-0.2 -0.1,-0.1 -0.2,-0.1 -0.3,-0.2 -0.1,-0.1 -0.1,-0.2 -0.1,-0.3 0,0 0,-0.1 0.1,-0.1 0.1,0 0.1,0.1 0.2,0.2 v 0 0 c 0.1,0 0.2,0 0.2,0 0,-0.1 0,-0.1 0,-0.2 -0.1,-0.1 -0.3,-0.3 -0.4,-0.3 -0.4,0 -0.7,0.2 -0.9,0.5 -0.2,0.3 -0.2,0.6 -0.2,0.9 v 0 0 c 0,0 0.2,1.1 1.5,1.6 v 0 c 0,0 0,0 0,0 l 0.6,0.2 -0.1,-0.1 c 0.1,0 0.4,0 0.5,0 0.2,0 0.8,0 0.8,-0.1 v 0 l -0.4,-0.1 v 0 h 0.2 v 0 0 c 0,0 0,0 0,0 v 0 0 0 c 0,0 0,0 0,0 l 0.2,-0.1 v 0 c 0.2,0 0.4,-0.2 0.5,-0.3 l 0.1,-0.1 c 0.2,-0.1 0.4,-0.3 0.5,-0.4 0.6,-0.6 0.9,-1.5 0.9,-2.6 0,-0.2 0,-0.4 0,-0.6 0,-0.2 -0.1,-0.4 -0.1,-0.6 0.5,-0.3 0.9,-0.7 1.2,-1.1 0.4,-0.4 0.6,-0.9 0.8,-1.4 v 0 c 0.4,-0.5 0.4,-0.5 0.4,-0.6 0,0.1 0,0.1 0,0 z m -4.5,7.3 c -0.2,0 -0.4,0.1 -0.5,0.1 -0.2,0 -0.3,0 -0.3,0 -0.1,0 -0.3,-0.1 -0.4,-0.1 v 0 0 c -1.2,-0.4 -1.4,-1.3 -1.4,-1.4 v 0 c 0,0.1 0.3,1 1.4,1.4 v 0 0 c 0.1,0 0.3,0.1 0.4,0.1 0,0 0.1,0 0.3,0 0.1,0 0.3,-0.1 0.5,-0.1 v 0 0 z m -17.8,-2.5 c 0,0 0,0 0,0 v 0 z m 10.9,-10.6 c 0.2,0.4 0.4,0.9 0.4,1.5 v 0 c 0,-0.6 -0.2,-1.1 -0.4,-1.5 -0.2,-0.3 -0.4,-0.4 -0.6,-0.5 -0.1,0 -0.2,-0.1 -0.4,-0.1 0.1,0 0.3,0 0.4,0.1 0.2,0.1 0.4,0.3 0.6,0.5 z m -3,7.7 v 0 l 0.2,-0.1 c 0,0 0.1,-0.1 0.1,-0.1 0,0 -0.1,0.1 -0.1,0.1 z m 4,-3.6 v 0 l -0.2,0.1 c 0,0 -0.1,0.1 -0.1,0.1 0,0 0.1,-0.1 0.1,-0.1 z m -0.8,6 c 0,0.7 -0.1,1.2 -0.4,1.5 -0.1,0.2 -0.3,0.3 -0.4,0.4 -0.1,0.1 -0.3,0.1 -0.4,0.1 -0.1,0 -0.3,0 -0.4,-0.1 -0.2,-0.1 -0.3,-0.2 -0.4,-0.4 -0.3,-0.3 -0.4,-0.8 -0.4,-1.5 v 0 c 0,0.7 0.1,1.2 0.4,1.5 0.1,0.2 0.3,0.3 0.4,0.4 0.1,0.1 0.3,0.1 0.4,0.1 0.1,0 0.3,0 0.4,-0.1 0.2,-0.1 0.3,-0.2 0.4,-0.4 0.3,-0.3 0.4,-0.8 0.4,-1.5 z m 5.7,-5.2 c -0.8,-0.4 -1.6,-0.6 -2.5,-0.8 -0.4,-0.1 -0.9,-0.2 -1.3,-0.2 0,0 0,0 0,0 1.2,-0.6 2.5,-0.9 4.2,-0.9 0.8,0 1.6,0.2 2.5,0.5 -0.3,0.6 -0.7,1.2 -1.3,1.7 -0.1,0.1 -0.3,0.3 -0.5,0.4 -0.4,-0.3 -0.7,-0.5 -1.1,-0.7 z m -7.7,-4.7 c 0.2,-0.2 0.3,-0.3 0.4,-0.3 0.2,-0.1 0.5,-0.1 0.7,0 0.1,0.1 0.3,0.2 0.4,0.3 0.3,0.3 0.4,0.8 0.4,1.4 0,0.4 0,0.7 -0.1,1.1 -0.1,0.3 -0.2,0.7 -0.3,1 -0.1,0 -0.2,0 -0.4,0 -0.1,0 -0.3,0 -0.4,0 v 0 c -0.1,0 -0.2,0 -0.3,0 0,0 0,0 0,0 0,0 0,0 0,0 -0.1,0 -0.2,0 -0.3,0 -0.1,-0.4 -0.2,-0.7 -0.3,-1 -0.1,-0.4 -0.1,-0.7 -0.1,-1.1 -0.1,-0.6 0.1,-1.1 0.3,-1.4 z m 0.7,3.7 v 0 c 0.2,0 0.3,0 0.4,0 -0.1,0.1 -0.2,0.1 -0.4,0 v 0 z m 0.1,3.6 c -0.1,0 -0.3,0 -0.4,0 -0.1,0 -0.1,0 -0.2,0 0.1,-0.2 0.1,-0.3 0.2,-0.5 0.1,-0.2 0.2,-0.4 0.3,-0.5 0.1,0.2 0.2,0.3 0.3,0.5 0.1,0.2 0.2,0.3 0.2,0.5 v 0 c 0,0 -0.1,0 -0.1,0 0,0 -0.2,0 -0.3,0 z m -0.7,-0.7 c -0.1,0.2 -0.2,0.4 -0.3,0.6 -0.1,0 -0.2,0 -0.3,-0.1 0.2,-0.1 0.4,-0.3 0.6,-0.5 z m 0.3,-0.9 v 0 0 c -0.4,0.5 -0.9,1 -1.4,1.4 -1.2,-0.3 -2.4,-0.7 -3.5,-1.3 1.1,-0.6 2.2,-1.1 3.5,-1.3 0.5,0.2 1,0.7 1.4,1.2 z m 0.4,-1.7 c 0.1,0 0.3,0 0.4,0 0.1,0 0.1,0 0.1,0 v 0 c -0.1,0.2 -0.1,0.3 -0.2,0.5 -0.1,0.2 -0.2,0.4 -0.3,0.5 -0.1,-0.2 -0.2,-0.3 -0.3,-0.5 -0.1,-0.1 -0.1,-0.3 -0.2,-0.5 0,0 0.1,0 0.2,0 0,0 0.2,0 0.3,0 z m 0.7,0.7 c 0.1,-0.2 0.2,-0.3 0.2,-0.5 0.1,0 0.2,0 0.3,0.1 -0.1,0.1 -0.3,0.2 -0.5,0.4 z m 0.6,2.4 c -0.1,0 -0.2,0 -0.3,0.1 -0.1,-0.2 -0.1,-0.4 -0.2,-0.5 0.1,0.1 0.3,0.3 0.5,0.4 z m -2.6,-2.9 c 0.1,0 0.2,0 0.3,-0.1 0.1,0.2 0.2,0.4 0.3,0.6 -0.2,-0.1 -0.4,-0.3 -0.6,-0.5 z m 1.8,1.5 v 0 0 c 0.4,-0.5 0.9,-1 1.4,-1.4 1.2,0.3 2.4,0.7 3.5,1.3 -1.1,0.6 -2.2,1.1 -3.5,1.3 -0.6,-0.3 -1,-0.7 -1.4,-1.2 z m -0.6,1.9 v 0 0 c -0.1,0 -0.2,0 -0.3,0 0,0 0,0 0,0 0,0 0,0 0,0 0.1,0 0.2,0 0.3,0 z m -1,1.2 c 0.1,-0.3 0.2,-0.7 0.3,-1 0.1,0 0.2,0 0.3,0 0,0 0,0 0,0 0.1,0 0.2,0 0.3,0 v 0 c 0.1,0 0.3,0 0.4,0 0.1,0 0.3,0 0.4,0 0.1,0.4 0.2,0.7 0.3,1 0.1,0.3 0.1,0.7 0.1,1.1 0,0.7 -0.1,1.2 -0.4,1.5 -0.1,0.2 -0.3,0.3 -0.4,0.3 -0.3,0.1 -0.5,0.1 -0.7,0 -0.1,-0.1 -0.3,-0.2 -0.4,-0.3 -0.2,-0.3 -0.4,-0.8 -0.4,-1.5 0.1,-0.3 0.2,-0.7 0.2,-1.1 z m 2.2,0 c -0.1,-0.4 -0.2,-0.8 -0.3,-1.1 0.2,0.3 0.3,0.7 0.3,1.1 0.1,0.3 0.1,0.7 0.1,1.1 0,-0.4 0,-0.7 -0.1,-1.1 z m -0.3,-5.2 c 0.1,-0.4 0.3,-0.7 0.3,-1.1 0.1,-0.4 0.1,-0.7 0.1,-1.1 0,0 0,0 0,0 0,0.4 -0.1,0.7 -0.1,1.1 0,0.4 -0.1,0.8 -0.3,1.1 z m -2,-2.1 c 0,0 0,0.1 0,0.1 z m 0.8,2.2 c 0,0 0,0 0,0 0,0 0,0 0,0 -0.1,0 -0.3,0 -0.4,0 0.1,0 0.2,0 0.4,0 z m -1.3,0.4 v 0 0 c -0.1,0 -0.1,0 -0.1,-0.1 0,0 0,0.1 0.1,0.1 v 0 0 c 0.1,0 0.3,-0.1 0.5,-0.1 -0.2,0 -0.3,0.1 -0.5,0.1 z m -6.7,2.3 c 0.1,-0.1 0.3,-0.3 0.5,-0.4 0.3,0.2 0.7,0.4 1.1,0.6 0.8,0.4 1.6,0.6 2.5,0.8 0.4,0.1 0.9,0.2 1.4,0.2 0,0 0,0 0,0 -1.2,0.6 -2.6,0.9 -4.2,0.9 -0.8,0 -1.6,-0.2 -2.5,-0.5 0.2,-0.5 0.6,-1.1 1.2,-1.6 z m 4.1,-2.5 c -0.9,0.2 -1.7,0.5 -2.5,0.8 -0.4,0.2 -0.8,0.4 -1.1,0.6 -0.2,-0.1 -0.3,-0.2 -0.5,-0.4 -0.6,-0.5 -1,-1.1 -1.3,-1.7 0.8,-0.3 1.7,-0.5 2.5,-0.5 1.6,0 3,0.3 4.2,0.9 0,0 0,0 0,0 -0.4,0.1 -0.9,0.2 -1.3,0.3 z m 0.4,3.2 c -0.9,-0.2 -1.7,-0.5 -2.5,-0.8 -0.4,-0.2 -0.7,-0.4 -1.1,-0.6 0.3,-0.2 0.7,-0.4 1.1,-0.6 0.8,-0.4 1.6,-0.6 2.5,-0.8 0.5,-0.1 1.1,-0.2 1.6,-0.2 0,0 0.1,0 0.1,0.1 -0.6,0.2 -1.1,0.3 -1.7,0.6 -0.6,0.2 -1.2,0.5 -1.7,0.9 -0.2,-0.1 -0.3,-0.2 -0.5,-0.3 0,0 0,0 -0.1,0 0,0 -0.1,0 -0.1,0.1 0,0.1 0,0.1 0.1,0.2 0.1,0.1 0.2,0.1 0.3,0.2 -0.1,0.1 -0.2,0.1 -0.3,0.2 -0.1,0.1 -0.1,0.1 -0.1,0.2 0,0.1 0.1,0.1 0.1,0.1 0,0 0,0 0.1,0 0.1,-0.1 0.3,-0.2 0.4,-0.3 0.5,0.3 1.1,0.6 1.7,0.9 0.5,0.2 1.1,0.4 1.7,0.6 0,0 -0.1,0 -0.1,0.1 -0.5,-0.4 -1,-0.5 -1.5,-0.6 z m -4.6,-1.4 c -0.2,0.1 -0.3,0.2 -0.4,0.4 -0.6,0.5 -1,1.1 -1.3,1.7 -0.4,-0.2 -0.8,-0.5 -1.1,-0.9 -0.3,-0.3 -0.6,-0.8 -0.8,-1.2 0.2,-0.5 0.4,-0.9 0.8,-1.2 0.3,-0.3 0.7,-0.6 1.1,-0.9 0.3,0.6 0.7,1.2 1.3,1.7 0.1,0.1 0.3,0.3 0.4,0.4 z m 8.9,1.9 c -0.1,0 -0.2,0 -0.3,0 0.1,0 0.2,0 0.3,0 0.2,0 0.3,0 0.4,0 -0.1,0 -0.2,0 -0.4,0 z m 1.3,-0.3 v 0 0 c 0.1,0 0.1,0 0.1,0.1 0,-0.1 0,-0.1 -0.1,-0.1 v 0 0 c -0.1,0 -0.3,0.1 -0.5,0.1 0.2,-0.1 0.3,-0.1 0.5,-0.1 z m 2.2,-0.6 c 0.6,-0.2 1.2,-0.5 1.7,-0.9 0.2,0.1 0.3,0.2 0.5,0.3 0.1,0 0.1,0 0.2,-0.1 0,-0.1 0,-0.1 -0.1,-0.2 -0.1,-0.1 -0.2,-0.1 -0.3,-0.2 0.1,-0.1 0.2,-0.1 0.3,-0.2 0.1,-0.1 0.1,-0.2 0.1,-0.2 0,-0.1 -0.1,-0.1 -0.2,-0.1 -0.1,0.1 -0.3,0.2 -0.4,0.3 -0.5,-0.3 -1.1,-0.6 -1.7,-0.9 -0.5,-0.2 -1.1,-0.4 -1.7,-0.6 0,0 0.1,0 0.1,-0.1 0.5,0 1,0.1 1.6,0.2 0.9,0.2 1.7,0.5 2.5,0.8 0.4,0.2 0.7,0.4 1.1,0.6 -0.3,0.2 -0.7,0.4 -1.1,0.6 -0.8,0.4 -1.6,0.6 -2.5,0.8 -0.5,0.1 -1.1,0.2 -1.6,0.2 0,0 -0.1,0 -0.1,-0.1 0.5,0.2 1.1,0 1.6,-0.2 z m 0.4,0.8 c 0.9,-0.2 1.8,-0.5 2.5,-0.8 0.4,-0.2 0.8,-0.4 1.1,-0.6 0.2,0.1 0.3,0.3 0.5,0.4 0.6,0.5 1,1.1 1.3,1.7 -0.8,0.3 -1.7,0.5 -2.5,0.5 -1.6,0 -3,-0.3 -4.2,-0.9 0,0 0,0 0,0 0.4,-0.2 0.9,-0.2 1.3,-0.3 z m -3.1,-3.5 c 0,0 0.1,0 0,0 0.1,0 0,0 0,0 l -0.6,-0.1 z m 0.1,-2.5 c 0,-0.7 -0.1,-1.2 -0.4,-1.5 -0.1,-0.2 -0.3,-0.3 -0.5,-0.4 -0.3,-0.2 -0.6,-0.1 -0.9,0 -0.2,0.1 -0.3,0.2 -0.5,0.4 -0.3,0.3 -0.4,0.8 -0.4,1.5 v 0 c 0,-0.7 0.1,-1.2 0.4,-1.5 0.2,-0.2 0.3,-0.3 0.5,-0.4 0.3,-0.1 0.6,-0.2 0.9,0 0.2,0.1 0.3,0.2 0.5,0.4 0.3,0.2 0.4,0.7 0.4,1.5 z m -3,2.5 c 0,0 0,0 0,0 0,0 0,0 0,0 0.2,0 0.3,-0.1 0.5,-0.1 -0.2,0 -0.3,0.1 -0.5,0.1 z m -0.1,-0.1 c 0,0 0,0 0,0 0.1,0 0.3,0 0.4,0 -0.2,0 -0.3,0 -0.4,0 z m -0.2,0 v 0 z m 0.8,3.5 c 0,0 0,0 0,0 0,0 0,0 0,0 l 0.6,0.1 z m -0.1,2.5 c 0,0.7 0.1,1.2 0.4,1.5 0.2,0.2 0.3,0.3 0.5,0.4 0.1,0.1 0.3,0.1 0.4,0.1 0.1,0 0.3,0 0.4,-0.1 0.2,-0.1 0.3,-0.2 0.5,-0.4 0.3,-0.3 0.4,-0.8 0.4,-1.5 v 0 c 0,0.7 -0.1,1.2 -0.4,1.5 -0.1,0.2 -0.3,0.3 -0.5,0.4 -0.1,0.1 -0.3,0.1 -0.4,0.1 -0.1,0 -0.3,0 -0.4,-0.1 -0.1,-0.1 -0.3,-0.2 -0.5,-0.4 -0.3,-0.3 -0.4,-0.8 -0.4,-1.5 z m 3,-2.5 c 0,0 0,0 0,0 0,0 0,0 0,0 -0.1,0 -0.3,0.1 -0.5,0.1 0.2,0 0.3,-0.1 0.5,-0.1 z m 0.1,0.1 c 0,0 0,0 0,0 -0.1,0 -0.3,0 -0.4,0 0.2,0 0.3,0 0.4,0 z m 0.2,0 v 0 z m 9.3,-3 c 0.3,0.3 0.6,0.8 0.8,1.2 -0.2,0.5 -0.4,0.9 -0.8,1.2 -0.3,0.3 -0.7,0.6 -1.1,0.9 -0.3,-0.6 -0.7,-1.2 -1.3,-1.7 -0.1,-0.1 -0.3,-0.2 -0.4,-0.4 0.2,-0.1 0.3,-0.2 0.4,-0.4 0.6,-0.5 1,-1.1 1.3,-1.7 0.4,0.2 0.8,0.5 1.1,0.9 z m -9.5,-0.6 v 0 c -0.1,0 -0.3,0 -0.4,0 0.2,0 0.3,0 0.4,0 z m -0.8,-0.2 v 0 c 0,0 0,0 0,0 z m -1.7,-2.3 c 0,0.4 -0.3,0.8 -0.2,1.2 0.1,0.4 0,0.8 0.1,1.1 -0.1,-0.3 0.1,-0.6 0,-1.1 -0.1,-0.4 0.1,-0.8 0.1,-1.2 z m -1.5,2.4 v 0 c -0.4,-0.2 -0.7,-0.4 -1.1,-0.6 -0.7,-0.3 -1.3,-0.5 -1.9,-0.7 -0.7,-0.1 -1.4,-0.2 -2,-0.2 -0.5,0 -0.9,0.1 -1.4,0.2 -0.4,0.1 -0.9,0.3 -1.3,0.5 h -0.1 V 224 c -0.1,-0.2 -0.1,-0.4 -0.1,-0.5 0,-0.1 0,-0.2 0,-0.2 0,0.1 0,0.2 0,0.2 0,0.2 0,0.3 0.1,0.5 v 0.1 h 0.1 c 0.4,-0.2 0.9,-0.4 1.3,-0.5 0.4,-0.1 0.9,-0.2 1.4,-0.2 0.6,0 1.3,0.1 2,0.2 0.7,0.1 1.3,0.4 1.9,0.7 0.4,0.1 0.7,0.3 1.1,0.6 v 0 z m 0.4,3.7 v 0 0 c 0.1,0 0.3,0 0.4,0 -0.2,0 -0.3,0 -0.4,0 z m 0.8,0.1 v 0 c 0,0.1 0,0.1 0,0.1 z m 0,3.9 c -0.2,-0.4 -0.4,-0.9 -0.4,-1.5 0,0 0,0 0,0 0.1,0.6 0.2,1.1 0.4,1.5 0.2,0.3 0.3,0.4 0.6,0.5 0.1,0 0.2,0.1 0.4,0.1 -0.1,0 -0.3,0 -0.4,-0.1 -0.2,-0.1 -0.4,-0.2 -0.6,-0.5 z m 2.3,-1.5 c 0,-0.4 0,-0.8 -0.1,-1.2 -0.1,-0.4 -0.1,-0.8 -0.2,-1.1 0.1,0.3 0.1,0.7 0.2,1.1 0.1,0.4 0.1,0.7 0.1,1.2 z m 7.5,-3.8 c -0.2,-0.1 -0.3,-0.3 -0.5,-0.4 l -0.1,-0.1 0.1,-0.1 c 0.2,-0.1 0.4,-0.3 0.5,-0.4 0.3,-0.3 0.5,-0.5 0.8,-0.8 0.2,-0.2 0.3,-0.4 0.4,-0.7 -0.1,0.2 -0.3,0.5 -0.4,0.7 -0.2,0.3 -0.5,0.6 -0.8,0.8 -0.2,0.1 -0.3,0.3 -0.5,0.4 l -0.1,0.1 0.1,0.1 c 0.2,0.1 0.4,0.2 0.5,0.4 0.6,0.5 1,1.1 1.3,1.7 v 0 0 0 c -0.2,-0.7 -0.7,-1.2 -1.3,-1.7 z m -3.7,5.1 v 0 0 0 c 0,-0.1 0,-0.1 0,-0.2 0,0.1 0,0.2 0,0.2 z m 0.6,-10.5 c 0.1,0.1 0.2,0.2 0.3,0.3 0.1,0 0.1,0.1 0.2,0.1 -0.1,0 -0.1,-0.1 -0.2,-0.1 -0.2,-0.1 -0.3,-0.2 -0.3,-0.3 -0.1,-0.2 -0.1,-0.4 -0.1,-0.6 -0.1,0.2 0,0.4 0.1,0.6 z m -2.5,2.3 c 0.6,-0.3 1.3,-0.5 2,-0.7 0.7,-0.1 1.3,-0.2 2,-0.2 0.5,0 0.9,0.1 1.4,0.2 0.4,0.1 0.9,0.3 1.3,0.5 0.1,-0.2 0.1,-0.3 0.1,-0.5 0,-0.1 0,-0.3 0,-0.5 v 0 c 0,0.2 0,0.3 0,0.5 0,0.2 0,0.3 -0.1,0.5 -0.4,-0.2 -0.9,-0.4 -1.3,-0.5 -0.5,-0.1 -0.9,-0.2 -1.4,-0.2 -0.7,0 -1.3,0.1 -2,0.2 -0.7,0.2 -1.3,0.4 -2,0.7 -0.4,0.2 -0.7,0.3 -1,0.6 0.3,-0.3 0.7,-0.4 1,-0.6 z m -1.9,-0.6 c 0.1,-0.4 0.1,-0.7 0.1,-1.1 0,0 0,0 0,0 0,0.4 0,0.8 -0.1,1.1 z m -2.5,-2.7 c 0.2,-0.3 0.5,-0.4 0.7,-0.5 0.1,0 0.3,-0.1 0.4,-0.1 -0.1,0 -0.3,0 -0.4,0.1 -0.2,0.1 -0.5,0.2 -0.7,0.5 -0.3,0.4 -0.5,0.9 -0.5,1.6 0,0 0,0 0,0 0,-0.7 0.3,-1.2 0.5,-1.6 z m -0.1,2.7 c 0,0 0,0 0,0 0,0 0,0 0,0 0.1,0.4 0.1,0.8 0.2,1.1 -0.1,-0.3 -0.2,-0.7 -0.2,-1.1 z m -5.1,-3.6 c -0.5,-0.3 -1.1,-0.2 -1.7,-0.1 -0.2,0 -0.3,0.1 -0.5,0.2 -0.3,0.2 -0.6,0.4 -0.9,0.7 -0.2,0.3 -0.4,0.6 -0.5,1 -0.1,0.4 -0.2,0.8 -0.2,1.2 v 0 c 0,-0.4 0.1,-0.8 0.2,-1.2 0.1,-0.4 0.3,-0.7 0.5,-1 0.2,-0.3 0.5,-0.5 0.9,-0.7 0.2,-0.1 0.3,-0.1 0.5,-0.2 0.6,-0.1 1.2,-0.2 1.7,0.1 0.4,0.2 0.8,0.7 0.8,1.3 0,-0.6 -0.4,-1.1 -0.8,-1.3 z m 3.2,9.4 c -0.6,0.3 -1.3,0.5 -2,0.7 -0.7,0.1 -1.3,0.2 -2,0.2 -0.5,0 -0.9,-0.1 -1.4,-0.2 -0.5,-0.1 -0.9,-0.3 -1.3,-0.5 -0.1,0.2 -0.1,0.3 -0.1,0.5 0,0.1 0,0.3 0,0.5 v 0 c 0,-0.2 0,-0.3 0,-0.5 0,-0.2 0,-0.3 0.1,-0.5 0.4,0.2 0.9,0.4 1.3,0.5 0.4,0.1 0.9,0.2 1.4,0.2 0.7,0 1.3,-0.1 2,-0.2 0.7,-0.2 1.3,-0.5 2,-0.7 0.4,-0.2 0.7,-0.3 1,-0.6 -0.3,0.2 -0.7,0.4 -1,0.6 z m 2,0.5 c 0,0.4 -0.1,0.7 -0.1,1.1 0,0 0,0 0,0 0,-0.3 0.1,-0.7 0.1,-1.1 z m 2.2,2.8 c -0.2,0.3 -0.3,0.4 -0.6,0.5 -0.1,0 -0.2,0.1 -0.4,0.1 0.1,0 0.3,0 0.4,-0.1 0.3,-0.1 0.4,-0.3 0.6,-0.5 0.2,-0.4 0.3,-0.9 0.3,-1.6 0,0 0,0 0,0 0,0.7 -0.1,1.2 -0.3,1.6 z m 0.3,-2.8 c 0,0 0,0 0,0 0,0 0,0 0,0 -0.1,-0.4 -0.1,-0.8 -0.2,-1.1 0.1,0.3 0.2,0.8 0.2,1.1 z m 0.9,-0.9 v 0 -0.1 c 0.3,0.2 0.7,0.3 1,0.5 0.7,0.3 1.3,0.5 1.9,0.6 0.7,0.1 1.4,0.2 2,0.2 0.5,0 0.9,-0.1 1.4,-0.2 0.4,-0.1 0.9,-0.3 1.3,-0.5 h 0.1 v 0.1 c 0.1,0.2 0.1,0.3 0.1,0.5 0,0.1 0,0.3 0,0.5 0,-0.2 0,-0.3 0,-0.5 0,-0.2 0,-0.3 -0.1,-0.5 v -0.1 h -0.1 c -0.4,0.2 -0.9,0.4 -1.3,0.5 -0.4,0.1 -0.9,0.2 -1.4,0.2 -0.6,0 -1.3,-0.1 -2,-0.2 -0.7,-0.1 -1.3,-0.4 -1.9,-0.7 -0.3,-0.2 -0.7,-0.4 -1,-0.6 v 0.1 z m 7.8,1.9 c 0,0.3 0,0.6 -0.1,0.9 0.1,-0.4 0.1,-0.6 0.1,-0.9 z m -1,1.5 c 0.1,0 0.1,-0.1 0.2,-0.2 0.1,-0.1 0.3,-0.1 0.4,-0.2 0.2,-0.1 0.3,-0.3 0.2,-0.5 v 0 c 0.1,0.2 -0.1,0.4 -0.2,0.5 -0.1,0.1 -0.3,0.1 -0.4,0.2 0,0.1 -0.1,0.2 -0.2,0.2 0.1,0.1 0.2,0.2 0.4,0.2 -0.1,0 -0.3,-0.1 -0.4,-0.2 z m 0,0.3 c 0.2,0 0.4,0 0.5,-0.1 0,0 0,0 0,0 v 0 c 0,0 0,0 0,0 -0.1,0.1 -0.4,0.1 -0.5,0.1 -0.1,0 -0.5,0 -0.5,0.1 v 0 c 0,0 0.4,0 0.5,-0.1 z m -1.3,-0.1 c 0,0 0.1,0 0.1,0 0,0 0,0 -0.1,0 0,0 -0.2,0.1 -0.2,0.1 0.1,0 0.2,-0.1 0.2,-0.1 z" />
</g>
<g
   id="XMLID_292_"
   transform="translate(-20.6,-19.8)">
	<path
   id="XMLID_364_"
   class="st0"
   d="m 126,55.9 c -2.2,0 -4.4,0 -6.5,0 -4.3,0 -8.4,0.1 -12.3,0.1 -3.9,0 -7.6,0.1 -11,0.2 -1.7,0 -3.3,0.1 -4.9,0.1 -1.6,0 -3,0.1 -4.4,0.1 -2.8,0.1 -5.2,0.1 -7.2,0.2 -2,0 -2,0.3 0,0.4 2,0 4.4,0.1 7.2,0.2 1.4,0 2.9,0.1 4.4,0.1 1.6,0 3.2,0.1 4.9,0.1 3.4,0.1 7.1,0.1 11,0.2 3.9,0 8,0.1 12.3,0.1 2.1,0 4.3,0 6.5,0 0.9,0 1.9,0 2.9,0 -0.1,-0.1 -0.4,-0.5 -0.4,-0.9 0,-0.4 0.3,-0.7 0.4,-0.9 -1,0 -2,0 -2.9,0 z" />
	<path
   id="XMLID_363_"
   class="st0"
   d="m 203.5,56.6 c -2,-0.1 -4.4,-0.1 -7.2,-0.2 -1.4,0 -2.9,-0.1 -4.4,-0.1 -1.6,0 -3.2,-0.1 -4.9,-0.1 -3.4,-0.1 -7.1,-0.1 -11,-0.2 -3.9,0 -8,-0.1 -12.3,-0.1 -2.1,0 -4.3,0 -6.5,0 -0.9,0 -1.9,0 -2.9,0 0.1,0.1 0.4,0.5 0.4,0.9 0,0.4 -0.3,0.7 -0.4,0.9 1,0 1.9,0 2.9,0 2.2,0 4.4,0 6.5,0 4.3,0 8.4,-0.1 12.3,-0.1 3.9,0 7.6,-0.1 11,-0.2 1.7,0 3.3,-0.1 4.9,-0.1 1.6,0 3,-0.1 4.4,-0.1 2.8,-0.1 5.2,-0.1 7.2,-0.2 2,-0.1 2,-0.4 0,-0.4 z" />
	<path
   id="XMLID_293_"
   class="st0"
   d="m 154.1,56.7 c -0.2,-0.5 -0.4,-1 -0.8,-1.4 -0.3,-0.4 -0.8,-0.8 -1.2,-1.1 0.1,-0.2 0.1,-0.4 0.1,-0.6 0,-0.2 0,-0.4 0,-0.6 0,-1.1 -0.3,-2 -0.9,-2.6 -0.6,-0.6 -1.3,-0.9 -2.1,-0.9 -0.3,0 -0.6,0 -0.9,0 -0.7,0.1 -1.2,0.6 -1.5,1.2 -0.1,0.4 -0.1,0.7 0,1.1 0.1,0.2 0.3,0.6 0.8,0.8 0.3,0.1 0.7,0.1 1,0 0.2,-0.1 0.6,-0.3 0.7,-0.8 0,-0.2 -0.1,-0.5 -0.3,-0.7 -0.2,-0.2 -0.4,-0.3 -0.7,-0.2 -0.2,0.1 -0.5,0.3 -0.4,0.6 0,0.2 0.2,0.3 0.3,0.3 0.1,0 0.2,0 0.2,-0.1 0,0 0,-0.1 0,-0.1 0,0 -0.1,-0.1 -0.1,-0.1 0,0 -0.1,0 -0.1,0.1 0,0 0,0 0,0 0,0 0,0 -0.1,0 0,-0.1 0,-0.1 0,-0.2 0.1,-0.1 0.3,-0.2 0.4,-0.1 0.2,0.1 0.3,0.3 0.3,0.6 0,0.1 -0.1,0.3 -0.2,0.3 -0.1,0.1 -0.3,0.2 -0.4,0.2 -0.4,0 -0.8,-0.2 -0.9,-0.5 -0.2,-0.4 -0.1,-0.7 -0.1,-0.9 0.1,-0.4 0.4,-0.7 0.7,-0.9 0.3,-0.1 0.6,-0.2 0.9,-0.2 0.3,0 0.6,0.1 0.9,0.1 0.1,0 0.3,0.1 0.4,0.1 0.3,0.2 0.6,0.4 0.8,0.7 0.2,0.3 0.4,0.6 0.5,1 0.1,0.4 0.1,0.8 0.1,1.2 0,0.2 0,0.3 0,0.5 0,0.1 0,0.3 -0.1,0.4 -0.4,-0.2 -0.8,-0.3 -1.2,-0.4 -0.4,-0.1 -0.9,-0.2 -1.4,-0.2 -0.6,0 -1.3,0.1 -2,0.2 -0.7,0.1 -1.3,0.4 -2,0.7 -0.3,0.2 -0.7,0.5 -1,0.7 -0.2,0 -0.4,0.1 -0.6,0.1 h -0.4 c 0.1,0 0.1,-0.8 0.2,-1.2 0.1,-0.4 0.1,-0.8 0.1,-1.3 0,-0.7 -0.1,-1.2 -0.4,-1.6 -0.2,-0.3 -0.4,-0.5 -0.7,-0.6 -0.1,0 -0.3,-0.1 -0.4,-0.1 -0.2,0 -0.3,0 -0.4,0.1 -0.3,0.1 -0.5,0.3 -0.7,0.6 -0.3,0.4 -0.4,1 -0.4,1.6 0,0.4 0,0.9 0.1,1.3 0.1,0.4 0.1,1.2 0.2,1.2 H 140 c -0.2,0 -0.4,-0.1 -0.6,-0.1 -0.3,-0.2 -0.7,-0.5 -1,-0.6 -0.7,-0.3 -1.3,-0.6 -2,-0.7 -0.7,-0.1 -1.4,-0.2 -2,-0.2 -0.5,0 -1,0 -1.4,0.2 -0.4,0.1 -0.8,0.2 -1.3,0.4 0,-0.1 -0.1,-0.3 -0.1,-0.4 0,-0.1 0,-0.3 0,-0.5 0,-0.4 0,-0.8 0.1,-1.2 0.1,-0.4 0.2,-0.7 0.4,-1 0.2,-0.3 0.5,-0.5 0.8,-0.7 0.1,-0.1 0.3,-0.1 0.5,-0.2 0.3,0 0.5,-0.1 0.7,-0.1 0.3,0 0.6,0.1 0.9,0.2 0.3,0.2 0.6,0.5 0.7,0.9 0.1,0.2 0.1,0.6 -0.1,0.9 -0.1,0.3 -0.5,0.5 -0.9,0.5 -0.2,0 -0.4,-0.1 -0.4,-0.2 -0.1,-0.1 -0.2,-0.2 -0.2,-0.3 0,-0.2 0.1,-0.5 0.3,-0.6 0.1,0 0.3,0 0.4,0.1 0,0.1 0,0.1 0,0.2 0,0 0,0 -0.1,0 0,0 0,0 0,0 0,0 -0.1,-0.1 -0.1,-0.1 0,0 -0.1,0 -0.1,0.1 0,0 0,0.1 0,0.1 0,0.1 0.1,0.1 0.2,0.1 0.1,0 0.3,-0.1 0.3,-0.3 0.1,-0.3 -0.2,-0.5 -0.4,-0.6 -0.3,-0.1 -0.5,0 -0.7,0.2 -0.2,0.2 -0.3,0.5 -0.3,0.7 0.1,0.5 0.4,0.7 0.7,0.8 0.3,0.1 0.7,0.1 1,0 0.5,-0.2 0.7,-0.6 0.8,-0.8 0.1,-0.3 0.1,-0.7 0,-1.1 -0.2,-0.6 -0.8,-1.1 -1.5,-1.2 -0.3,-0.1 -0.6,-0.1 -0.8,0 -0.8,0.1 -1.5,0.4 -2.1,1 -0.6,0.6 -0.9,1.5 -0.9,2.6 0,0.2 0,0.4 0,0.6 0,0.2 0.1,0.4 0.1,0.6 -0.5,0.3 -0.9,0.7 -1.2,1.1 -0.4,0.5 -0.6,0.9 -0.8,1.4 v 0 c 0,0 0,0 0,0 0,0 0,0 0,0.1 v 0 c 0.1,0.5 0.4,1 0.8,1.4 0.3,0.4 0.8,0.8 1.2,1.1 -0.1,0.2 -0.1,0.4 -0.1,0.6 0,0.2 0,0.4 0,0.6 0,1.1 0.3,2 0.9,2.6 0.1,0.1 0.2,0.2 0.3,0.2 l 0.1,0.1 v 0 l 0.3,0.2 c 0.2,0.1 0.3,0.2 0.5,0.3 h -0.1 l 0.2,0.1 v 0 l 0.2,0.1 c 0,0 0,0 0,0 v 0 0 h 0.2 c 0,0 0,0 0,0 h 0.1 v 0 c 0.2,0 0.3,0.1 0.5,0.1 0.2,0 0.3,0 0.3,0 l -0.1,0.1 0.5,-0.2 c 0,0 0,0 0,0 v 0 c 1.3,-0.5 1.5,-1.5 1.5,-1.6 v 0 0 c 0,-0.3 0,-0.6 -0.2,-0.9 -0.2,-0.2 -0.5,-0.5 -0.9,-0.5 -0.1,0 -0.3,0.1 -0.4,0.3 0,0.1 0,0.2 0,0.2 0,0.1 0.1,0.1 0.2,0 v 0 0 c 0,-0.1 0.1,-0.2 0.2,-0.2 0,0 0.1,0 0.1,0.1 0,0.1 0,0.3 -0.1,0.3 -0.1,0.1 -0.2,0.1 -0.3,0.2 -0.1,0.1 -0.2,0.1 -0.3,0.2 -0.2,0.2 -0.3,0.4 -0.2,0.7 -0.1,0 -0.2,0.1 -0.3,0.3 0,-0.1 0.1,-0.3 0,-0.4 0,-0.1 -0.1,-0.2 -0.3,-0.2 0,0 -0.1,0 -0.1,0 0,0 -0.1,0 -0.1,0.1 0,0 0,0 0,0 0,0 0,0 0,0 -0.1,0 -0.1,0 -0.1,0 -0.3,0 -0.5,0.1 -0.8,0.2 -0.1,-0.1 -0.2,-0.1 -0.4,-0.1 v 0 c -0.1,0 -0.1,0 -0.2,0 0.1,0 0.2,-0.1 0.2,-0.2 l 0.1,-0.1 h -0.1 c -0.1,0 -0.1,-0.1 -0.1,-0.1 0,0 -0.1,-0.1 -0.1,-0.1 -0.1,-0.1 -0.2,-0.1 -0.2,-0.2 -0.1,0 -0.1,0 -0.1,-0.1 -0.1,0 -0.1,-0.1 -0.1,-0.1 0,0 0,0 0,0 0,0 0,0 0,0 0,-0.1 0,-0.1 0,-0.2 l 0.1,-0.1 h -0.1 c 0,-0.3 -0.1,-0.6 -0.1,-0.8 0,-0.2 0,-0.3 0,-0.5 0,-0.1 0,-0.3 0.1,-0.4 0.4,0.2 0.8,0.3 1.3,0.4 0.4,0.1 0.9,0.2 1.4,0.2 0.6,0 1.3,-0.1 2,-0.2 0.7,-0.1 1.3,-0.4 2,-0.7 0.3,-0.2 0.7,-0.3 1,-0.5 0.2,0 0.4,0.1 0.6,0.1 v 0 0 h 0.4 c -0.1,0 -0.2,0.5 -0.2,1 0,0.4 -0.1,0.8 -0.1,1.2 0,0.7 0.1,1.2 0.4,1.6 0.2,0.3 0.4,0.5 0.7,0.6 0.1,0 0.3,0.1 0.4,0.1 0.2,0 0.3,0 0.4,-0.1 0.3,-0.1 0.5,-0.3 0.7,-0.6 0.3,-0.4 0.4,-0.9 0.4,-1.6 0,-0.5 0,-0.8 -0.1,-1.1 -0.1,-0.4 -0.1,-1 -0.2,-1 h 0.4 v 0 0 0 c 0.2,0 0.4,-0.1 0.6,-0.1 v 0 c -0.2,0 -0.4,0 -0.6,0 0.2,0 0.4,0 0.6,0 0.3,0.2 0.7,0.4 1,0.6 0.7,0.3 1.3,0.5 2,0.7 0.7,0.1 1.4,0.2 2,0.2 0.5,0 1,-0.1 1.4,-0.2 0.4,-0.1 0.8,-0.3 1.2,-0.4 0,0.1 0.1,0.3 0.1,0.4 0,0.1 0,0.3 0,0.5 0,0.3 0,0.6 -0.1,0.9 h -0.2 l 0.1,0.1 c 0.1,0.2 -0.1,0.3 -0.2,0.4 0,0 -0.1,0.1 -0.1,0.1 -0.1,0 -0.2,0.1 -0.2,0.2 0,0 -0.1,0.1 -0.1,0.1 0,0 -0.1,0.1 -0.1,0.1 h -0.1 l 0.1,0.1 c 0.1,0.1 0.2,0.1 0.2,0.2 -0.1,0 -0.1,0 -0.2,0 v 0 c -0.2,0 -0.4,0.1 -0.4,0.1 -0.3,-0.2 -0.6,-0.3 -0.8,-0.2 0,0 -0.1,0 -0.1,0 0,0 0,0 0,0 0,0 0,0 0,0 0,-0.1 -0.1,-0.1 -0.1,-0.1 0,0 -0.1,0 -0.1,0 -0.1,0 -0.2,0.1 -0.3,0.2 0,0.1 0,0.3 0,0.4 -0.1,-0.1 -0.2,-0.2 -0.3,-0.3 0,-0.2 0,-0.5 -0.2,-0.7 -0.1,-0.1 -0.2,-0.1 -0.3,-0.2 -0.1,-0.1 -0.2,-0.1 -0.3,-0.2 -0.1,-0.1 -0.1,-0.2 -0.1,-0.3 0,0 0,-0.1 0.1,-0.1 0.1,0 0.1,0.1 0.2,0.2 v 0 0 c 0.1,0 0.2,0 0.2,0 0,-0.1 0,-0.1 0,-0.2 -0.1,-0.1 -0.3,-0.3 -0.4,-0.3 -0.4,0 -0.7,0.2 -0.9,0.5 -0.2,0.3 -0.2,0.6 -0.2,0.9 v 0 0 c 0,0 0.2,1.1 1.5,1.6 v 0 c 0,0 0,0 0,0 l 0.6,0.2 -0.1,-0.1 c 0.1,0 0.4,0 0.5,0 0.2,0 0.8,0 0.8,-0.1 v 0 l -0.4,-0.1 v 0 h 0.2 v 0 0 c 0,0 0,0 0,0 v 0 0 0 c 0,0 0,0 0,0 l 0.2,-0.1 v 0 c 0.2,0 0.4,-0.2 0.5,-0.3 l 0.1,-0.1 c 0.2,-0.1 0.4,-0.3 0.5,-0.4 0.6,-0.6 0.9,-1.5 0.9,-2.6 0,-0.2 0,-0.4 0,-0.6 0,-0.2 -0.1,-0.4 -0.1,-0.6 0.5,-0.3 0.9,-0.7 1.2,-1.1 0.4,-0.4 0.6,-0.9 0.8,-1.4 v 0 c 0.4,-0.5 0.4,-0.5 0.4,-0.6 0,0.1 0,0.1 0,0 z m -4.5,7.3 c -0.2,0 -0.4,0.1 -0.5,0.1 -0.2,0 -0.3,0 -0.3,0 -0.1,0 -0.3,-0.1 -0.4,-0.1 v 0 0 C 147.2,63.6 147,62.7 147,62.6 v 0 c 0,0.1 0.3,1 1.4,1.4 v 0 0 c 0.1,0 0.3,0.1 0.4,0.1 0,0 0.1,0 0.3,0 0.1,0 0.3,-0.1 0.5,-0.1 v 0 0 z m -17.8,-2.5 c 0,0 0,0 0,0 v 0 z m 10.9,-10.6 c 0.2,0.4 0.4,0.9 0.4,1.5 v 0 c 0,-0.6 -0.2,-1.1 -0.4,-1.5 -0.2,-0.3 -0.4,-0.4 -0.6,-0.5 -0.1,0 -0.2,-0.1 -0.4,-0.1 0.1,0 0.3,0 0.4,0.1 0.2,0.1 0.4,0.3 0.6,0.5 z m -3,7.7 v 0 l 0.2,-0.1 c 0,0 0.1,-0.1 0.1,-0.1 0,0 -0.1,0.1 -0.1,0.1 z m 4,-3.6 v 0 l -0.2,0.1 c 0,0 -0.1,0.1 -0.1,0.1 0,0 0.1,-0.1 0.1,-0.1 z m -0.8,6 c 0,0.7 -0.1,1.2 -0.4,1.5 -0.1,0.2 -0.3,0.3 -0.4,0.4 -0.1,0.1 -0.3,0.1 -0.4,0.1 -0.1,0 -0.3,0 -0.4,-0.1 -0.2,-0.1 -0.3,-0.2 -0.4,-0.4 -0.3,-0.3 -0.4,-0.8 -0.4,-1.5 v 0 c 0,0.7 0.1,1.2 0.4,1.5 0.1,0.2 0.3,0.3 0.4,0.4 0.1,0.1 0.3,0.1 0.4,0.1 0.1,0 0.3,0 0.4,-0.1 0.2,-0.1 0.3,-0.2 0.4,-0.4 0.3,-0.3 0.4,-0.8 0.4,-1.5 z m 5.7,-5.2 c -0.8,-0.4 -1.6,-0.6 -2.5,-0.8 -0.4,-0.1 -0.9,-0.2 -1.3,-0.2 0,0 0,0 0,0 1.2,-0.6 2.5,-0.9 4.2,-0.9 0.8,0 1.6,0.2 2.5,0.5 -0.3,0.6 -0.7,1.2 -1.3,1.7 -0.1,0.1 -0.3,0.3 -0.5,0.4 -0.4,-0.3 -0.7,-0.5 -1.1,-0.7 z m -7.7,-4.7 c 0.2,-0.2 0.3,-0.3 0.4,-0.3 0.2,-0.1 0.5,-0.1 0.7,0 0.1,0.1 0.3,0.2 0.4,0.3 0.3,0.3 0.4,0.8 0.4,1.4 0,0.4 0,0.7 -0.1,1.1 -0.1,0.3 -0.2,0.7 -0.3,1 -0.1,0 -0.2,0 -0.4,0 -0.1,0 -0.3,0 -0.4,0 v 0 c -0.1,0 -0.2,0 -0.3,0 0,0 0,0 0,0 0,0 0,0 0,0 -0.1,0 -0.2,0 -0.3,0 -0.1,-0.4 -0.2,-0.7 -0.3,-1 -0.1,-0.4 -0.1,-0.7 -0.1,-1.1 -0.1,-0.6 0.1,-1.1 0.3,-1.4 z m 0.7,3.7 v 0 c 0.2,0 0.3,0 0.4,0 -0.1,0.1 -0.2,0.1 -0.4,0 v 0 z m 0.1,3.6 c -0.1,0 -0.3,0 -0.4,0 -0.1,0 -0.1,0 -0.2,0 0.1,-0.2 0.1,-0.3 0.2,-0.5 0.1,-0.2 0.2,-0.4 0.3,-0.5 0.1,0.2 0.2,0.3 0.3,0.5 0.1,0.2 0.2,0.3 0.2,0.5 v 0 c 0,0 -0.1,0 -0.1,0 0,0 -0.2,0 -0.3,0 z M 141,57.7 c -0.1,0.2 -0.2,0.4 -0.3,0.6 -0.1,0 -0.2,0 -0.3,-0.1 0.2,-0.1 0.4,-0.3 0.6,-0.5 z m 0.3,-0.9 v 0 0 c -0.4,0.5 -0.9,1 -1.4,1.4 -1.2,-0.3 -2.4,-0.7 -3.5,-1.3 1.1,-0.6 2.2,-1.1 3.5,-1.3 0.5,0.2 1,0.7 1.4,1.2 z m 0.4,-1.7 c 0.1,0 0.3,0 0.4,0 0.1,0 0.1,0 0.1,0 v 0 c -0.1,0.2 -0.1,0.3 -0.2,0.5 -0.1,0.2 -0.2,0.4 -0.3,0.5 -0.1,-0.2 -0.2,-0.3 -0.3,-0.5 -0.1,-0.1 -0.1,-0.3 -0.2,-0.5 0,0 0.1,0 0.2,0 0,0 0.2,0 0.3,0 z m 0.7,0.7 c 0.1,-0.2 0.2,-0.3 0.2,-0.5 0.1,0 0.2,0 0.3,0.1 -0.1,0.1 -0.3,0.2 -0.5,0.4 z m 0.6,2.4 c -0.1,0 -0.2,0 -0.3,0.1 -0.1,-0.2 -0.1,-0.4 -0.2,-0.5 0.1,0.1 0.3,0.3 0.5,0.4 z m -2.6,-2.9 c 0.1,0 0.2,0 0.3,-0.1 0.1,0.2 0.2,0.4 0.3,0.6 -0.2,-0.1 -0.4,-0.3 -0.6,-0.5 z m 1.8,1.5 v 0 0 c 0.4,-0.5 0.9,-1 1.4,-1.4 1.2,0.3 2.4,0.7 3.5,1.3 -1.1,0.6 -2.2,1.1 -3.5,1.3 -0.6,-0.3 -1,-0.7 -1.4,-1.2 z m -0.6,1.9 v 0 0 c -0.1,0 -0.2,0 -0.3,0 0,0 0,0 0,0 0,0 0,0 0,0 0.1,0 0.2,0 0.3,0 z m -1,1.2 c 0.1,-0.3 0.2,-0.7 0.3,-1 0.1,0 0.2,0 0.3,0 0,0 0,0 0,0 0.1,0 0.2,0 0.3,0 v 0 c 0.1,0 0.3,0 0.4,0 0.1,0 0.3,0 0.4,0 0.1,0.4 0.2,0.7 0.3,1 0.1,0.3 0.1,0.7 0.1,1.1 0,0.7 -0.1,1.2 -0.4,1.5 -0.1,0.2 -0.3,0.3 -0.4,0.3 -0.3,0.1 -0.5,0.1 -0.7,0 -0.1,-0.1 -0.3,-0.2 -0.4,-0.3 -0.2,-0.3 -0.4,-0.8 -0.4,-1.5 0.1,-0.3 0.2,-0.7 0.2,-1.1 z m 2.2,0 c -0.1,-0.4 -0.2,-0.8 -0.3,-1.1 0.2,0.3 0.3,0.7 0.3,1.1 0.1,0.3 0.1,0.7 0.1,1.1 0,-0.4 0,-0.7 -0.1,-1.1 z m -0.3,-5.2 c 0.1,-0.4 0.3,-0.7 0.3,-1.1 0.1,-0.4 0.1,-0.7 0.1,-1.1 0,0 0,0 0,0 0,0.4 -0.1,0.7 -0.1,1.1 0,0.4 -0.1,0.8 -0.3,1.1 z m -2,-2.1 c 0,0 0,0.1 0,0.1 z m 0.8,2.2 c 0,0 0,0 0,0 0,0 0,0 0,0 -0.1,0 -0.3,0 -0.4,0 0.1,0 0.2,0 0.4,0 z m -1.3,0.4 v 0 0 c -0.1,0 -0.1,0 -0.1,-0.1 0,0 0,0.1 0.1,0.1 v 0 0 c 0.1,0 0.3,-0.1 0.5,-0.1 -0.2,0 -0.3,0.1 -0.5,0.1 z m -6.7,2.3 c 0.1,-0.1 0.3,-0.3 0.5,-0.4 0.3,0.2 0.7,0.4 1.1,0.6 0.8,0.4 1.6,0.6 2.5,0.8 0.4,0.1 0.9,0.2 1.4,0.2 0,0 0,0 0,0 -1.2,0.6 -2.6,0.9 -4.2,0.9 -0.8,0 -1.6,-0.2 -2.5,-0.5 0.2,-0.5 0.6,-1.1 1.2,-1.6 z m 4.1,-2.5 c -0.9,0.2 -1.7,0.5 -2.5,0.8 -0.4,0.2 -0.8,0.4 -1.1,0.6 -0.2,-0.1 -0.3,-0.2 -0.5,-0.4 -0.6,-0.5 -1,-1.1 -1.3,-1.7 0.8,-0.3 1.7,-0.5 2.5,-0.5 1.6,0 3,0.3 4.2,0.9 0,0 0,0 0,0 -0.4,0.1 -0.9,0.2 -1.3,0.3 z m 0.4,3.2 c -0.9,-0.2 -1.7,-0.5 -2.5,-0.8 -0.4,-0.2 -0.7,-0.4 -1.1,-0.6 0.3,-0.2 0.7,-0.4 1.1,-0.6 0.8,-0.4 1.6,-0.6 2.5,-0.8 0.5,-0.1 1.1,-0.2 1.6,-0.2 0,0 0.1,0 0.1,0.1 -0.6,0.2 -1.1,0.3 -1.7,0.6 -0.6,0.2 -1.2,0.5 -1.7,0.9 -0.2,-0.1 -0.3,-0.2 -0.5,-0.3 0,0 0,0 -0.1,0 0,0 -0.1,0 -0.1,0.1 0,0.1 0,0.1 0.1,0.2 0.1,0.1 0.2,0.1 0.3,0.2 -0.1,0.1 -0.2,0.1 -0.3,0.2 -0.1,0.1 -0.1,0.1 -0.1,0.2 0,0.1 0.1,0.1 0.1,0.1 0,0 0,0 0.1,0 0.1,-0.1 0.3,-0.2 0.4,-0.3 0.5,0.3 1.1,0.6 1.7,0.9 0.5,0.2 1.1,0.4 1.7,0.6 0,0 -0.1,0 -0.1,0.1 -0.5,-0.4 -1,-0.5 -1.5,-0.6 z m -4.6,-1.4 c -0.2,0.1 -0.3,0.2 -0.4,0.4 -0.6,0.5 -1,1.1 -1.3,1.7 -0.4,-0.2 -0.8,-0.5 -1.1,-0.9 -0.3,-0.3 -0.6,-0.8 -0.8,-1.2 0.2,-0.5 0.4,-0.9 0.8,-1.2 0.3,-0.3 0.7,-0.6 1.1,-0.9 0.3,0.6 0.7,1.2 1.3,1.7 0.1,0.1 0.3,0.3 0.4,0.4 z m 8.9,1.9 c -0.1,0 -0.2,0 -0.3,0 0.1,0 0.2,0 0.3,0 0.2,0 0.3,0 0.4,0 -0.1,0 -0.2,0 -0.4,0 z m 1.3,-0.3 v 0 0 c 0.1,0 0.1,0 0.1,0.1 0,-0.1 0,-0.1 -0.1,-0.1 v 0 0 c -0.1,0 -0.3,0.1 -0.5,0.1 0.2,-0.1 0.3,-0.1 0.5,-0.1 z m 2.2,-0.6 c 0.6,-0.2 1.2,-0.5 1.7,-0.9 0.2,0.1 0.3,0.2 0.5,0.3 0.1,0 0.1,0 0.2,-0.1 0,-0.1 0,-0.1 -0.1,-0.2 -0.1,-0.1 -0.2,-0.1 -0.3,-0.2 0.1,-0.1 0.2,-0.1 0.3,-0.2 0.1,-0.1 0.1,-0.1 0.1,-0.2 0,-0.1 -0.1,-0.1 -0.2,-0.1 -0.1,0.1 -0.3,0.2 -0.4,0.3 -0.5,-0.3 -1.1,-0.6 -1.7,-0.9 -0.5,-0.2 -1.1,-0.4 -1.7,-0.6 0,0 0.1,0 0.1,-0.1 0.5,0 1,0.1 1.6,0.2 0.9,0.2 1.7,0.5 2.5,0.8 0.4,0.2 0.7,0.4 1.1,0.6 -0.3,0.2 -0.7,0.4 -1.1,0.6 -0.8,0.4 -1.6,0.6 -2.5,0.8 -0.5,0.1 -1.1,0.2 -1.6,0.2 0,0 -0.1,0 -0.1,-0.1 0.5,0.2 1.1,0 1.6,-0.2 z m 0.4,0.8 c 0.9,-0.2 1.8,-0.5 2.5,-0.8 0.4,-0.2 0.8,-0.4 1.1,-0.6 0.2,0.1 0.3,0.3 0.5,0.4 0.6,0.5 1,1.1 1.3,1.7 -0.8,0.3 -1.7,0.5 -2.5,0.5 -1.6,0 -3,-0.3 -4.2,-0.9 0,0 0,0 0,0 0.4,-0.2 0.9,-0.2 1.3,-0.3 z m -3.1,-3.5 c 0,0 0.1,0 0,0 0.1,0 0,0 0,0 L 142.3,55 Z m 0.1,-2.5 c 0,-0.7 -0.1,-1.2 -0.4,-1.5 -0.1,-0.2 -0.3,-0.3 -0.5,-0.4 -0.3,-0.2 -0.6,-0.1 -0.9,0 -0.2,0.1 -0.3,0.2 -0.5,0.4 -0.3,0.3 -0.4,0.8 -0.4,1.5 v 0 c 0,-0.7 0.1,-1.2 0.4,-1.5 0.2,-0.2 0.3,-0.3 0.5,-0.4 0.3,-0.1 0.6,-0.2 0.9,0 0.2,0.1 0.3,0.2 0.5,0.4 0.3,0.2 0.4,0.7 0.4,1.5 z m -3,2.5 c 0,0 0,0 0,0 0,0 0,0 0,0 0.2,0 0.3,-0.1 0.5,-0.1 -0.2,0 -0.3,0.1 -0.5,0.1 z M 139.9,55 c 0,0 0,0 0,0 0.1,0 0.3,0 0.4,0 -0.2,0 -0.3,0 -0.4,0 z m -0.2,0 v 0 z m 0.8,3.5 c 0,0 0,0 0,0 0,0 0,0 0,0 l 0.6,0.1 z m -0.1,2.5 c 0,0.7 0.1,1.2 0.4,1.5 0.2,0.2 0.3,0.3 0.5,0.4 0.1,0.1 0.3,0.1 0.4,0.1 0.1,0 0.3,0 0.4,-0.1 0.2,-0.1 0.3,-0.2 0.5,-0.4 0.3,-0.3 0.4,-0.8 0.4,-1.5 v 0 c 0,0.7 -0.1,1.2 -0.4,1.5 -0.1,0.2 -0.3,0.3 -0.5,0.4 -0.1,0.1 -0.3,0.1 -0.4,0.1 -0.1,0 -0.3,0 -0.4,-0.1 -0.1,-0.1 -0.3,-0.2 -0.5,-0.4 -0.3,-0.3 -0.4,-0.8 -0.4,-1.5 z m 3,-2.5 c 0,0 0,0 0,0 0,0 0,0 0,0 -0.1,0 -0.3,0.1 -0.5,0.1 0.2,0 0.3,-0.1 0.5,-0.1 z m 0.1,0.1 c 0,0 0,0 0,0 -0.1,0 -0.3,0 -0.4,0 0.2,0 0.3,0 0.4,0 z m 0.2,0 v 0 z m 9.3,-3 c 0.3,0.3 0.6,0.8 0.8,1.2 -0.2,0.5 -0.4,0.9 -0.8,1.2 -0.3,0.3 -0.7,0.6 -1.1,0.9 -0.3,-0.6 -0.7,-1.2 -1.3,-1.7 -0.1,-0.1 -0.3,-0.2 -0.4,-0.4 0.2,-0.1 0.3,-0.2 0.4,-0.4 0.6,-0.5 1,-1.1 1.3,-1.7 0.4,0.2 0.8,0.5 1.1,0.9 z M 143.5,55 v 0 c -0.1,0 -0.3,0 -0.4,0 0.2,0 0.3,0 0.4,0 z m -0.8,-0.2 v 0 c 0,0 0,0 0,0 z M 141,52.5 c 0,0.4 -0.3,0.8 -0.2,1.2 0.1,0.4 0,0.8 0.1,1.1 -0.1,-0.3 0.1,-0.6 0,-1.1 -0.1,-0.4 0.1,-0.8 0.1,-1.2 z m -1.5,2.4 v 0 c -0.4,-0.2 -0.7,-0.4 -1.1,-0.6 -0.7,-0.3 -1.3,-0.5 -1.9,-0.7 -0.7,-0.1 -1.4,-0.2 -2,-0.2 -0.5,0 -0.9,0.1 -1.4,0.2 -0.4,0.1 -0.9,0.3 -1.3,0.5 h -0.1 V 54 c -0.1,-0.2 -0.1,-0.4 -0.1,-0.5 0,-0.1 0,-0.2 0,-0.2 0,0.1 0,0.2 0,0.2 0,0.2 0,0.3 0.1,0.5 v 0.1 h 0.1 c 0.4,-0.2 0.9,-0.4 1.3,-0.5 0.4,-0.1 0.9,-0.2 1.4,-0.2 0.6,0 1.3,0.1 2,0.2 0.7,0.1 1.3,0.4 1.9,0.7 0.4,0.1 0.7,0.3 1.1,0.6 v 0 z m 0.4,3.7 v 0 0 c 0.1,0 0.3,0 0.4,0 -0.2,0 -0.3,0 -0.4,0 z m 0.8,0.1 v 0 c 0,0.1 0,0.1 0,0.1 z m 0,3.9 c -0.2,-0.4 -0.4,-0.9 -0.4,-1.5 0,0 0,0 0,0 0.1,0.6 0.2,1.1 0.4,1.5 0.2,0.3 0.3,0.4 0.6,0.5 0.1,0 0.2,0.1 0.4,0.1 -0.1,0 -0.3,0 -0.4,-0.1 -0.2,-0.1 -0.4,-0.2 -0.6,-0.5 z m 2.3,-1.5 c 0,-0.4 0,-0.8 -0.1,-1.2 -0.1,-0.4 -0.1,-0.8 -0.2,-1.1 0.1,0.3 0.1,0.7 0.2,1.1 0.1,0.4 0.1,0.7 0.1,1.2 z m 7.5,-3.8 C 150.3,57.2 150.2,57 150,56.9 l -0.1,-0.1 0.1,-0.1 c 0.2,-0.1 0.4,-0.3 0.5,-0.4 0.3,-0.3 0.5,-0.5 0.8,-0.8 0.2,-0.2 0.3,-0.4 0.4,-0.7 -0.1,0.2 -0.3,0.5 -0.4,0.7 -0.2,0.3 -0.5,0.6 -0.8,0.8 -0.2,0.1 -0.3,0.3 -0.5,0.4 l -0.1,0.1 0.1,0.1 c 0.2,0.1 0.4,0.2 0.5,0.4 0.6,0.5 1,1.1 1.3,1.7 v 0 0 0 c -0.2,-0.7 -0.7,-1.2 -1.3,-1.7 z m -3.7,5.1 v 0 0 0 c 0,-0.1 0,-0.1 0,-0.2 0,0.1 0,0.2 0,0.2 z m 0.6,-10.5 c 0.1,0.1 0.2,0.2 0.3,0.3 0.1,0 0.1,0.1 0.2,0.1 -0.1,0 -0.1,-0.1 -0.2,-0.1 -0.2,-0.1 -0.3,-0.2 -0.3,-0.3 -0.1,-0.2 -0.1,-0.4 -0.1,-0.6 -0.1,0.2 0,0.4 0.1,0.6 z m -2.5,2.3 c 0.6,-0.3 1.3,-0.5 2,-0.7 0.7,-0.1 1.3,-0.2 2,-0.2 0.5,0 0.9,0.1 1.4,0.2 0.4,0.1 0.9,0.3 1.3,0.5 0.1,-0.2 0.1,-0.3 0.1,-0.5 0,-0.1 0,-0.3 0,-0.5 v 0 c 0,0.2 0,0.3 0,0.5 0,0.2 0,0.3 -0.1,0.5 -0.4,-0.2 -0.9,-0.4 -1.3,-0.5 -0.5,-0.1 -0.9,-0.2 -1.4,-0.2 -0.7,0 -1.3,0.1 -2,0.2 -0.7,0.2 -1.3,0.4 -2,0.7 -0.4,0.2 -0.7,0.3 -1,0.6 0.3,-0.3 0.7,-0.4 1,-0.6 z M 143,53.6 c 0.1,-0.4 0.1,-0.7 0.1,-1.1 0,0 0,0 0,0 0,0.4 0,0.8 -0.1,1.1 z m -2.5,-2.7 c 0.2,-0.3 0.5,-0.4 0.7,-0.5 0.1,0 0.3,-0.1 0.4,-0.1 -0.1,0 -0.3,0 -0.4,0.1 -0.2,0.1 -0.5,0.2 -0.7,0.5 -0.3,0.4 -0.5,0.9 -0.5,1.6 0,0 0,0 0,0 0,-0.7 0.3,-1.2 0.5,-1.6 z m -0.1,2.7 c 0,0 0,0 0,0 0,0 0,0 0,0 0.1,0.4 0.1,0.8 0.2,1.1 -0.1,-0.3 -0.2,-0.7 -0.2,-1.1 z M 135.3,50 c -0.5,-0.3 -1.1,-0.2 -1.7,-0.1 -0.2,0 -0.3,0.1 -0.5,0.2 -0.3,0.2 -0.6,0.4 -0.9,0.7 -0.2,0.3 -0.4,0.6 -0.5,1 -0.1,0.4 -0.2,0.8 -0.2,1.2 v 0 c 0,-0.4 0.1,-0.8 0.2,-1.2 0.1,-0.4 0.3,-0.7 0.5,-1 0.2,-0.3 0.5,-0.5 0.9,-0.7 0.2,-0.1 0.3,-0.1 0.5,-0.2 0.6,-0.1 1.2,-0.2 1.7,0.1 0.4,0.2 0.8,0.7 0.8,1.3 0,-0.6 -0.4,-1.1 -0.8,-1.3 z m 3.2,9.4 c -0.6,0.3 -1.3,0.5 -2,0.7 -0.7,0.1 -1.3,0.2 -2,0.2 -0.5,0 -0.9,-0.1 -1.4,-0.2 -0.5,-0.1 -0.9,-0.3 -1.3,-0.5 -0.1,0.2 -0.1,0.3 -0.1,0.5 0,0.1 0,0.3 0,0.5 v 0 c 0,-0.2 0,-0.3 0,-0.5 0,-0.2 0,-0.3 0.1,-0.5 0.4,0.2 0.9,0.4 1.3,0.5 0.4,0.1 0.9,0.2 1.4,0.2 0.7,0 1.3,-0.1 2,-0.2 0.7,-0.2 1.3,-0.5 2,-0.7 0.4,-0.2 0.7,-0.3 1,-0.6 -0.3,0.2 -0.7,0.4 -1,0.6 z m 2,0.5 c 0,0.4 -0.1,0.7 -0.1,1.1 0,0 0,0 0,0 0,-0.3 0.1,-0.7 0.1,-1.1 z m 2.2,2.8 c -0.2,0.3 -0.3,0.4 -0.6,0.5 -0.1,0 -0.2,0.1 -0.4,0.1 0.1,0 0.3,0 0.4,-0.1 0.3,-0.1 0.4,-0.3 0.6,-0.5 0.2,-0.4 0.3,-0.9 0.3,-1.6 0,0 0,0 0,0 0,0.7 -0.1,1.2 -0.3,1.6 z m 0.3,-2.8 c 0,0 0,0 0,0 0,0 0,0 0,0 -0.1,-0.4 -0.1,-0.8 -0.2,-1.1 0.1,0.3 0.2,0.8 0.2,1.1 z m 0.9,-0.9 v 0 -0.1 c 0.3,0.2 0.7,0.3 1,0.5 0.7,0.3 1.3,0.5 1.9,0.6 0.7,0.1 1.4,0.2 2,0.2 0.5,0 0.9,-0.1 1.4,-0.2 0.4,-0.1 0.9,-0.3 1.3,-0.5 h 0.1 v 0.1 c 0.1,0.2 0.1,0.3 0.1,0.5 0,0.1 0,0.3 0,0.5 0,-0.2 0,-0.3 0,-0.5 0,-0.2 0,-0.3 -0.1,-0.5 v -0.1 h -0.1 c -0.4,0.2 -0.9,0.4 -1.3,0.5 -0.4,0.1 -0.9,0.2 -1.4,0.2 -0.6,0 -1.3,-0.1 -2,-0.2 -0.7,-0.1 -1.3,-0.4 -1.9,-0.7 -0.3,-0.2 -0.7,-0.4 -1,-0.6 v 0.1 z m 7.8,1.9 c 0,0.3 0,0.6 -0.1,0.9 0.1,-0.4 0.1,-0.6 0.1,-0.9 z m -1,1.5 c 0.1,0 0.1,-0.1 0.2,-0.2 0.1,-0.1 0.3,-0.1 0.4,-0.2 0.2,-0.1 0.3,-0.3 0.2,-0.5 v 0 c 0.1,0.2 -0.1,0.4 -0.2,0.5 -0.1,0.1 -0.3,0.1 -0.4,0.2 0,0.1 -0.1,0.2 -0.2,0.2 0.1,0.1 0.2,0.2 0.4,0.2 -0.1,0 -0.3,-0.1 -0.4,-0.2 z m 0,0.3 c 0.2,0 0.4,0 0.5,-0.1 0,0 0,0 0,0 v 0 c 0,0 0,0 0,0 -0.1,0.1 -0.4,0.1 -0.5,0.1 -0.1,0 -0.5,0 -0.5,0.1 v 0 c 0,0 0.4,0 0.5,-0.1 z m -1.3,-0.1 c 0,0 0.1,0 0.1,0 0,0 0,0 -0.1,0 0,0 -0.2,0.1 -0.2,0.1 0.1,0 0.2,-0.1 0.2,-0.1 z" />
</g>
</svg>
