<?xml version="1.0" encoding="UTF-8" standalone="no"?>
<!-- Created with Inkscape (http://www.inkscape.org/) -->

<svg
   width="1mm"
   height="1mm"
   viewBox="0 0 1 1"
   version="1.1"
   id="svg1"
   inkscape:version="1.4 (86a8ad7, 2024-10-11)"
   sodipodi:docname="undo-movement.svg"
   xmlns:inkscape="http://www.inkscape.org/namespaces/inkscape"
   xmlns:sodipodi="http://sodipodi.sourceforge.net/DTD/sodipodi-0.dtd"
   xmlns="http://www.w3.org/2000/svg"
   xmlns:svg="http://www.w3.org/2000/svg">
  <sodipodi:namedview
     id="namedview1"
     pagecolor="#ffffff"
     bordercolor="#000000"
     borderopacity="0.25"
     inkscape:showpageshadow="2"
     inkscape:pageopacity="0.0"
     inkscape:pagecheckerboard="true"
     inkscape:deskcolor="#d1d1d1"
     inkscape:document-units="mm"
     inkscape:zoom="176.28911"
     inkscape:cx="2.121515"
     inkscape:cy="1.8747613"
     inkscape:window-width="1920"
     inkscape:window-height="1009"
     inkscape:window-x="-8"
     inkscape:window-y="-8"
     inkscape:window-maximized="1"
     inkscape:current-layer="layer1"
     showgrid="true" />
  <defs
     id="defs1" />
  <g
     inkscape:label="Capa 1"
     inkscape:groupmode="layer"
     id="layer1">
    <path
       id="XMLID_1_"
       class="st0"
       d="M 0.95407065,3.0080319e-4 H 0.04603578 c -0.02645338,0 -0.046504048,0.0189289768 -0.046504048,0.0464985968 v 0.90686215 c 0,0.0264651 0.018955608,0.046498 0.046504048,0.046498 H 0.953657 c 0.0264534,0 0.0465039,-0.0189303 0.0465039,-0.046498 V 0.04679934 c 0,-0.0264667 -0.0189554,-0.046498587 -0.0460819,-0.046498587 z"
       style="fill:#f6931e;stroke-width:0.00413123" />
    <path
       id="XMLID_5_"
       class="st1"
       d="M 0.86053989,0.09062784 H 0.13808183 c -0.0264241,0 -0.04838773,0.02258049 -0.04838773,0.04828363 v 0.72186338 c 0,0.0264385 0.02272116,0.0482855 0.04838773,0.0482855 h 0.72245806 c 0.0265079,0 0.0483878,-0.0226743 0.0483878,-0.0482855 V 0.13891143 c 0,-0.0264366 -0.0227211,-0.04828363 -0.0483878,-0.04828359 z"
       style="fill:#bbbbbb;stroke:#231f20;stroke-width:0.00517203;stroke-miterlimit:10" />
    <path
       id="XMLID_4_"
       class="st2"
       d="M 0.86053989,0.09062784 H 0.13808183 c -0.0264241,0 -0.04838773,0.02258049 -0.04838773,0.04828363 v 0.72186338 c 0,0.0264385 0.02272116,0.0482855 0.04838773,0.0482855 h 0.72245806 c 0.0265079,0 0.0483878,-0.0226743 0.0483878,-0.0482855 V 0.13891143 c 0,-0.0264366 -0.0227211,-0.04828363 -0.0483878,-0.04828359 z"
       style="fill:#e5e6e7;fill-opacity:1;stroke:#231f20;stroke-width:0.00517203;stroke-miterlimit:10" />
    <path
       d="m 0.37178976,0.67009094 v -0.0489323 h 0.17370943 q 0.0385339,0 0.066976,-0.0244662 0.0284419,-0.0244662 0.0284419,-0.0611653 0,-0.036699 -0.0284419,-0.0611652 -0.0284419,-0.0244662 -0.066976,-0.0244662 H 0.39136263 l 0.0636119,0.0636119 -0.0342524,0.0342524 -0.12233059,-0.1223306 0.12233059,-0.12233059 0.0342524,0.0342524 -0.0636119,0.0636119 h 0.15413656 q 0.0593303,0 0.10184023,0.0385339 0.0425099,0.0385339 0.0425099,0.0960295 0,0.0574953 -0.0425099,0.0960296 -0.04251,0.0385342 -0.10184023,0.0385342 z"
       id="path1"
       style="stroke-width:0.001;stroke-dasharray:none;stroke:#000000;stroke-opacity:1" />
    <g
       id="XMLID_219_"
       transform="matrix(0.00412839,0,0,0.00412505,-0.08568166,-0.08138054)"
       style="fill:#000000;fill-opacity:1">
      <path
         id="XMLID_291_"
         class="st0"
         d="m 126,225.9 c -2.2,0 -4.4,0 -6.5,0 -4.3,0 -8.4,0.1 -12.3,0.1 -3.9,0 -7.6,0.1 -11,0.2 -1.7,0 -3.3,0.1 -4.9,0.1 -1.6,0 -3,0.1 -4.4,0.1 -2.8,0.1 -5.2,0.1 -7.2,0.2 -2,0 -2,0.3 0,0.4 2,0 4.4,0.1 7.2,0.2 1.4,0 2.9,0.1 4.4,0.1 1.6,0 3.2,0.1 4.9,0.1 3.4,0.1 7.1,0.1 11,0.2 3.9,0 8,0.1 12.3,0.1 2.1,0 4.3,0 6.5,0 0.9,0 1.9,0 2.9,0 -0.1,-0.1 -0.4,-0.5 -0.4,-0.9 0,-0.4 0.3,-0.7 0.4,-0.9 -1,0 -2,0 -2.9,0 z"
         style="fill:#000000;fill-opacity:1" />
      <path
         id="XMLID_290_"
         class="st0"
         d="m 203.5,226.6 c -2,-0.1 -4.4,-0.1 -7.2,-0.2 -1.4,0 -2.9,-0.1 -4.4,-0.1 -1.6,0 -3.2,-0.1 -4.9,-0.1 -3.4,-0.1 -7.1,-0.1 -11,-0.2 -3.9,0 -8,-0.1 -12.3,-0.1 -2.1,0 -4.3,0 -6.5,0 -0.9,0 -1.9,0 -2.9,0 0.1,0.1 0.4,0.5 0.4,0.9 0,0.4 -0.3,0.7 -0.4,0.9 1,0 1.9,0 2.9,0 2.2,0 4.4,0 6.5,0 4.3,0 8.4,-0.1 12.3,-0.1 3.9,0 7.6,-0.1 11,-0.2 1.7,0 3.3,-0.1 4.9,-0.1 1.6,0 3,-0.1 4.4,-0.1 2.8,-0.1 5.2,-0.1 7.2,-0.2 2,-0.1 2,-0.4 0,-0.4 z"
         style="fill:#000000;fill-opacity:1" />
      <path
         id="XMLID_220_"
         class="st0"
         d="m 154.1,226.7 c -0.2,-0.5 -0.4,-1 -0.8,-1.4 -0.3,-0.4 -0.8,-0.8 -1.2,-1.1 0.1,-0.2 0.1,-0.4 0.1,-0.6 0,-0.2 0,-0.4 0,-0.6 0,-1.1 -0.3,-2 -0.9,-2.6 -0.6,-0.6 -1.3,-0.9 -2.1,-0.9 -0.3,0 -0.6,0 -0.9,0 -0.7,0.1 -1.2,0.6 -1.5,1.2 -0.1,0.4 -0.1,0.7 0,1.1 0.1,0.2 0.3,0.6 0.8,0.8 0.3,0.1 0.7,0.1 1,0 0.2,-0.1 0.6,-0.3 0.7,-0.8 0,-0.2 -0.1,-0.5 -0.3,-0.7 -0.2,-0.2 -0.4,-0.3 -0.7,-0.2 -0.2,0.1 -0.5,0.3 -0.4,0.6 0,0.2 0.2,0.3 0.3,0.3 0.1,0 0.2,0 0.2,-0.1 0,0 0,-0.1 0,-0.1 0,0 -0.1,-0.1 -0.1,-0.1 0,0 -0.1,0 -0.1,0.1 0,0 0,0 0,0 0,0 0,0 -0.1,0 0,-0.1 0,-0.1 0,-0.2 0.1,-0.1 0.3,-0.2 0.4,-0.1 0.2,0.1 0.3,0.3 0.3,0.6 0,0.1 -0.1,0.3 -0.2,0.3 -0.1,0.1 -0.3,0.2 -0.4,0.2 -0.4,0 -0.8,-0.2 -0.9,-0.5 -0.2,-0.4 -0.1,-0.7 -0.1,-0.9 0.1,-0.4 0.4,-0.7 0.7,-0.9 0.3,-0.1 0.6,-0.2 0.9,-0.2 0.3,0 0.6,0.1 0.9,0.1 0.1,0 0.3,0.1 0.4,0.1 0.3,0.2 0.6,0.4 0.8,0.7 0.2,0.3 0.4,0.6 0.5,1 0.1,0.4 0.1,0.8 0.1,1.2 0,0.2 0,0.3 0,0.5 0,0.1 0,0.3 -0.1,0.4 -0.4,-0.2 -0.8,-0.3 -1.2,-0.4 -0.4,-0.1 -0.9,-0.2 -1.4,-0.2 -0.6,0 -1.3,0.1 -2,0.2 -0.7,0.1 -1.3,0.4 -2,0.7 -0.3,0.2 -0.7,0.5 -1,0.7 -0.2,0 -0.4,0.1 -0.6,0.1 h -0.4 c 0.1,0 0.1,-0.8 0.2,-1.2 0.1,-0.4 0.1,-0.8 0.1,-1.3 0,-0.7 -0.1,-1.2 -0.4,-1.6 -0.2,-0.3 -0.4,-0.5 -0.7,-0.6 -0.1,0 -0.3,-0.1 -0.4,-0.1 -0.2,0 -0.3,0 -0.4,0.1 -0.3,0.1 -0.5,0.3 -0.7,0.6 -0.3,0.4 -0.4,1 -0.4,1.6 0,0.4 0,0.9 0.1,1.3 0.1,0.4 0.1,1.2 0.2,1.2 H 140 c -0.2,0 -0.4,-0.1 -0.6,-0.1 -0.3,-0.2 -0.7,-0.5 -1,-0.6 -0.7,-0.3 -1.3,-0.6 -2,-0.7 -0.7,-0.1 -1.4,-0.2 -2,-0.2 -0.5,0 -1,0 -1.4,0.2 -0.4,0.1 -0.8,0.2 -1.3,0.4 0,-0.1 -0.1,-0.3 -0.1,-0.4 0,-0.1 0,-0.3 0,-0.5 0,-0.4 0,-0.8 0.1,-1.2 0.1,-0.4 0.2,-0.7 0.4,-1 0.2,-0.3 0.5,-0.5 0.8,-0.7 0.1,-0.1 0.3,-0.1 0.5,-0.2 0.3,0 0.5,-0.1 0.7,-0.1 0.3,0 0.6,0.1 0.9,0.2 0.3,0.2 0.6,0.5 0.7,0.9 0.1,0.2 0.1,0.6 -0.1,0.9 -0.1,0.3 -0.5,0.5 -0.9,0.5 -0.2,0 -0.4,-0.1 -0.4,-0.2 -0.1,-0.1 -0.2,-0.2 -0.2,-0.3 0,-0.2 0.1,-0.5 0.3,-0.6 0.1,0 0.3,0 0.4,0.1 0,0.1 0,0.1 0,0.2 0,0 0,0 -0.1,0 0,0 0,0 0,0 0,0 -0.1,-0.1 -0.1,-0.1 0,0 -0.1,0 -0.1,0.1 0,0 0,0.1 0,0.1 0,0.1 0.1,0.1 0.2,0.1 0.1,0 0.3,-0.1 0.3,-0.3 0.1,-0.3 -0.2,-0.5 -0.4,-0.6 -0.3,-0.1 -0.5,0 -0.7,0.2 -0.2,0.2 -0.3,0.5 -0.3,0.7 0.1,0.5 0.4,0.7 0.7,0.8 0.3,0.1 0.7,0.1 1,0 0.5,-0.2 0.7,-0.6 0.8,-0.8 0.1,-0.3 0.1,-0.7 0,-1.1 -0.2,-0.6 -0.8,-1.1 -1.5,-1.2 -0.3,-0.1 -0.6,-0.1 -0.8,0 -0.8,0.1 -1.5,0.4 -2.1,1 -0.6,0.6 -0.9,1.5 -0.9,2.6 0,0.2 0,0.4 0,0.6 0,0.2 0.1,0.4 0.1,0.6 -0.5,0.3 -0.9,0.7 -1.2,1.1 -0.4,0.5 -0.6,0.9 -0.8,1.4 v 0 c 0,0 0,0 0,0 0,0 0,0 0,0.1 v 0 c 0.1,0.5 0.4,1 0.8,1.4 0.3,0.4 0.8,0.8 1.2,1.1 -0.1,0.2 -0.1,0.4 -0.1,0.6 0,0.2 0,0.4 0,0.6 0,1.1 0.3,2 0.9,2.6 0.1,0.1 0.2,0.2 0.3,0.2 l 0.1,0.1 v 0 l 0.3,0.2 c 0.2,0.1 0.3,0.2 0.5,0.3 h -0.1 l 0.2,0.1 v 0 l 0.2,0.1 c 0,0 0,0 0,0 v 0 0 h 0.2 c 0,0 0,0 0,0 h 0.1 v 0 c 0.2,0 0.3,0.1 0.5,0.1 0.2,0 0.3,0 0.3,0 l -0.1,0.1 0.5,-0.2 c 0,0 0,0 0,0 v 0 c 1.3,-0.5 1.5,-1.5 1.5,-1.6 v 0 0 c 0,-0.3 0,-0.6 -0.2,-0.9 -0.2,-0.2 -0.5,-0.5 -0.9,-0.5 -0.1,0 -0.3,0.1 -0.4,0.3 0,0.1 0,0.2 0,0.2 0,0.1 0.1,0.1 0.2,0 v 0 0 c 0,-0.1 0.1,-0.2 0.2,-0.2 0,0 0.1,0 0.1,0.1 0,0.1 0,0.3 -0.1,0.3 -0.1,0.1 -0.2,0.1 -0.3,0.2 -0.1,0.1 -0.2,0.1 -0.3,0.2 -0.2,0.2 -0.3,0.4 -0.2,0.7 -0.1,0 -0.2,0.1 -0.3,0.3 0,-0.1 0.1,-0.3 0,-0.4 0,-0.1 -0.1,-0.2 -0.3,-0.2 0,0 -0.1,0 -0.1,0 0,0 -0.1,0 -0.1,0.1 0,0 0,0 0,0 0,0 0,0 0,0 -0.1,0 -0.1,0 -0.1,0 -0.3,0 -0.5,0.1 -0.8,0.2 -0.1,-0.1 -0.2,-0.1 -0.4,-0.1 v 0 c -0.1,0 -0.1,0 -0.2,0 0.1,0 0.2,-0.1 0.2,-0.2 l 0.1,-0.1 h -0.1 c -0.1,0 -0.1,-0.1 -0.1,-0.1 0,0 -0.1,-0.1 -0.1,-0.1 -0.1,-0.1 -0.2,-0.1 -0.2,-0.2 -0.1,0 -0.1,0 -0.1,-0.1 -0.1,0 -0.1,-0.1 -0.1,-0.1 0,0 0,0 0,0 0,0 0,0 0,0 0,-0.1 0,-0.1 0,-0.2 l 0.1,-0.1 h -0.1 c 0,-0.3 -0.1,-0.6 -0.1,-0.8 0,-0.2 0,-0.3 0,-0.5 0,-0.1 0,-0.3 0.1,-0.4 0.4,0.2 0.8,0.3 1.3,0.4 0.4,0.1 0.9,0.2 1.4,0.2 0.6,0 1.3,-0.1 2,-0.2 0.7,-0.1 1.3,-0.4 2,-0.7 0.3,-0.2 0.7,-0.3 1,-0.5 0.2,0 0.4,0.1 0.6,0.1 v 0 0 h 0.4 c -0.1,0 -0.2,0.5 -0.2,1 0,0.4 -0.1,0.8 -0.1,1.2 0,0.7 0.1,1.2 0.4,1.6 0.2,0.3 0.4,0.5 0.7,0.6 0.1,0 0.3,0.1 0.4,0.1 0.2,0 0.3,0 0.4,-0.1 0.3,-0.1 0.5,-0.3 0.7,-0.6 0.3,-0.4 0.4,-0.9 0.4,-1.6 0,-0.5 0,-0.8 -0.1,-1.1 -0.1,-0.4 -0.1,-1 -0.2,-1 h 0.4 v 0 0 0 c 0.2,0 0.4,-0.1 0.6,-0.1 v 0 c -0.2,0 -0.4,0 -0.6,0 0.2,0 0.4,0 0.6,0 0.3,0.2 0.7,0.4 1,0.6 0.7,0.3 1.3,0.5 2,0.7 0.7,0.1 1.4,0.2 2,0.2 0.5,0 1,-0.1 1.4,-0.2 0.4,-0.1 0.8,-0.3 1.2,-0.4 0,0.1 0.1,0.3 0.1,0.4 0,0.1 0,0.3 0,0.5 0,0.3 0,0.6 -0.1,0.9 h -0.2 l 0.1,0.1 c 0.1,0.2 -0.1,0.3 -0.2,0.4 0,0 -0.1,0.1 -0.1,0.1 -0.1,0 -0.2,0.1 -0.2,0.2 0,0 -0.1,0.1 -0.1,0.1 0,0 -0.1,0.1 -0.1,0.1 h -0.1 l 0.1,0.1 c 0.1,0.1 0.2,0.1 0.2,0.2 -0.1,0 -0.1,0 -0.2,0 v 0 c -0.2,0 -0.4,0.1 -0.4,0.1 -0.3,-0.2 -0.6,-0.3 -0.8,-0.2 0,0 -0.1,0 -0.1,0 0,0 0,0 0,0 0,0 0,0 0,0 0,-0.1 -0.1,-0.1 -0.1,-0.1 0,0 -0.1,0 -0.1,0 -0.1,0 -0.2,0.1 -0.3,0.2 0,0.1 0,0.3 0,0.4 -0.1,-0.1 -0.2,-0.2 -0.3,-0.3 0,-0.2 0,-0.5 -0.2,-0.7 -0.1,-0.1 -0.2,-0.1 -0.3,-0.2 -0.1,-0.1 -0.2,-0.1 -0.3,-0.2 -0.1,-0.1 -0.1,-0.2 -0.1,-0.3 0,0 0,-0.1 0.1,-0.1 0.1,0 0.1,0.1 0.2,0.2 v 0 0 c 0.1,0 0.2,0 0.2,0 0,-0.1 0,-0.1 0,-0.2 -0.1,-0.1 -0.3,-0.3 -0.4,-0.3 -0.4,0 -0.7,0.2 -0.9,0.5 -0.2,0.3 -0.2,0.6 -0.2,0.9 v 0 0 c 0,0 0.2,1.1 1.5,1.6 v 0 c 0,0 0,0 0,0 l 0.6,0.2 -0.1,-0.1 c 0.1,0 0.4,0 0.5,0 0.2,0 0.8,0 0.8,-0.1 v 0 l -0.4,-0.1 v 0 h 0.2 v 0 0 c 0,0 0,0 0,0 v 0 0 0 c 0,0 0,0 0,0 l 0.2,-0.1 v 0 c 0.2,0 0.4,-0.2 0.5,-0.3 l 0.1,-0.1 c 0.2,-0.1 0.4,-0.3 0.5,-0.4 0.6,-0.6 0.9,-1.5 0.9,-2.6 0,-0.2 0,-0.4 0,-0.6 0,-0.2 -0.1,-0.4 -0.1,-0.6 0.5,-0.3 0.9,-0.7 1.2,-1.1 0.4,-0.4 0.6,-0.9 0.8,-1.4 v 0 c 0.4,-0.5 0.4,-0.5 0.4,-0.6 0,0.1 0,0.1 0,0 z m -4.5,7.3 c -0.2,0 -0.4,0.1 -0.5,0.1 -0.2,0 -0.3,0 -0.3,0 -0.1,0 -0.3,-0.1 -0.4,-0.1 v 0 0 c -1.2,-0.4 -1.4,-1.3 -1.4,-1.4 v 0 c 0,0.1 0.3,1 1.4,1.4 v 0 0 c 0.1,0 0.3,0.1 0.4,0.1 0,0 0.1,0 0.3,0 0.1,0 0.3,-0.1 0.5,-0.1 z m -17.8,-2.5 z m 10.9,-10.6 c 0.2,0.4 0.4,0.9 0.4,1.5 v 0 c 0,-0.6 -0.2,-1.1 -0.4,-1.5 -0.2,-0.3 -0.4,-0.4 -0.6,-0.5 -0.1,0 -0.2,-0.1 -0.4,-0.1 0.1,0 0.3,0 0.4,0.1 0.2,0.1 0.4,0.3 0.6,0.5 z m -3,7.7 v 0 l 0.2,-0.1 c 0,0 0.1,-0.1 0.1,-0.1 0,0 -0.1,0.1 -0.1,0.1 z m 4,-3.6 v 0 l -0.2,0.1 c 0,0 -0.1,0.1 -0.1,0.1 0,0 0.1,-0.1 0.1,-0.1 z m -0.8,6 c 0,0.7 -0.1,1.2 -0.4,1.5 -0.1,0.2 -0.3,0.3 -0.4,0.4 -0.1,0.1 -0.3,0.1 -0.4,0.1 -0.1,0 -0.3,0 -0.4,-0.1 -0.2,-0.1 -0.3,-0.2 -0.4,-0.4 -0.3,-0.3 -0.4,-0.8 -0.4,-1.5 v 0 c 0,0.7 0.1,1.2 0.4,1.5 0.1,0.2 0.3,0.3 0.4,0.4 0.1,0.1 0.3,0.1 0.4,0.1 0.1,0 0.3,0 0.4,-0.1 0.2,-0.1 0.3,-0.2 0.4,-0.4 0.3,-0.3 0.4,-0.8 0.4,-1.5 z m 5.7,-5.2 c -0.8,-0.4 -1.6,-0.6 -2.5,-0.8 -0.4,-0.1 -0.9,-0.2 -1.3,-0.2 0,0 0,0 0,0 1.2,-0.6 2.5,-0.9 4.2,-0.9 0.8,0 1.6,0.2 2.5,0.5 -0.3,0.6 -0.7,1.2 -1.3,1.7 -0.1,0.1 -0.3,0.3 -0.5,0.4 -0.4,-0.3 -0.7,-0.5 -1.1,-0.7 z m -7.7,-4.7 c 0.2,-0.2 0.3,-0.3 0.4,-0.3 0.2,-0.1 0.5,-0.1 0.7,0 0.1,0.1 0.3,0.2 0.4,0.3 0.3,0.3 0.4,0.8 0.4,1.4 0,0.4 0,0.7 -0.1,1.1 -0.1,0.3 -0.2,0.7 -0.3,1 -0.1,0 -0.2,0 -0.4,0 -0.1,0 -0.3,0 -0.4,0 v 0 c -0.1,0 -0.2,0 -0.3,0 0,0 0,0 0,0 0,0 0,0 0,0 -0.1,0 -0.2,0 -0.3,0 -0.1,-0.4 -0.2,-0.7 -0.3,-1 -0.1,-0.4 -0.1,-0.7 -0.1,-1.1 -0.1,-0.6 0.1,-1.1 0.3,-1.4 z m 0.7,3.7 v 0 c 0.2,0 0.3,0 0.4,0 -0.1,0.1 -0.2,0.1 -0.4,0 z m 0.1,3.6 c -0.1,0 -0.3,0 -0.4,0 -0.1,0 -0.1,0 -0.2,0 0.1,-0.2 0.1,-0.3 0.2,-0.5 0.1,-0.2 0.2,-0.4 0.3,-0.5 0.1,0.2 0.2,0.3 0.3,0.5 0.1,0.2 0.2,0.3 0.2,0.5 v 0 c 0,0 -0.1,0 -0.1,0 0,0 -0.2,0 -0.3,0 z m -0.7,-0.7 c -0.1,0.2 -0.2,0.4 -0.3,0.6 -0.1,0 -0.2,0 -0.3,-0.1 0.2,-0.1 0.4,-0.3 0.6,-0.5 z m 0.3,-0.9 v 0 0 c -0.4,0.5 -0.9,1 -1.4,1.4 -1.2,-0.3 -2.4,-0.7 -3.5,-1.3 1.1,-0.6 2.2,-1.1 3.5,-1.3 0.5,0.2 1,0.7 1.4,1.2 z m 0.4,-1.7 c 0.1,0 0.3,0 0.4,0 0.1,0 0.1,0 0.1,0 v 0 c -0.1,0.2 -0.1,0.3 -0.2,0.5 -0.1,0.2 -0.2,0.4 -0.3,0.5 -0.1,-0.2 -0.2,-0.3 -0.3,-0.5 -0.1,-0.1 -0.1,-0.3 -0.2,-0.5 0,0 0.1,0 0.2,0 0,0 0.2,0 0.3,0 z m 0.7,0.7 c 0.1,-0.2 0.2,-0.3 0.2,-0.5 0.1,0 0.2,0 0.3,0.1 -0.1,0.1 -0.3,0.2 -0.5,0.4 z m 0.6,2.4 c -0.1,0 -0.2,0 -0.3,0.1 -0.1,-0.2 -0.1,-0.4 -0.2,-0.5 0.1,0.1 0.3,0.3 0.5,0.4 z m -2.6,-2.9 c 0.1,0 0.2,0 0.3,-0.1 0.1,0.2 0.2,0.4 0.3,0.6 -0.2,-0.1 -0.4,-0.3 -0.6,-0.5 z m 1.8,1.5 v 0 0 c 0.4,-0.5 0.9,-1 1.4,-1.4 1.2,0.3 2.4,0.7 3.5,1.3 -1.1,0.6 -2.2,1.1 -3.5,1.3 -0.6,-0.3 -1,-0.7 -1.4,-1.2 z m -0.6,1.9 v 0 0 c -0.1,0 -0.2,0 -0.3,0 0,0 0,0 0,0 0,0 0,0 0,0 0.1,0 0.2,0 0.3,0 z m -1,1.2 c 0.1,-0.3 0.2,-0.7 0.3,-1 0.1,0 0.2,0 0.3,0 0,0 0,0 0,0 0.1,0 0.2,0 0.3,0 v 0 c 0.1,0 0.3,0 0.4,0 0.1,0 0.3,0 0.4,0 0.1,0.4 0.2,0.7 0.3,1 0.1,0.3 0.1,0.7 0.1,1.1 0,0.7 -0.1,1.2 -0.4,1.5 -0.1,0.2 -0.3,0.3 -0.4,0.3 -0.3,0.1 -0.5,0.1 -0.7,0 -0.1,-0.1 -0.3,-0.2 -0.4,-0.3 -0.2,-0.3 -0.4,-0.8 -0.4,-1.5 0.1,-0.3 0.2,-0.7 0.2,-1.1 z m 2.2,0 c -0.1,-0.4 -0.2,-0.8 -0.3,-1.1 0.2,0.3 0.3,0.7 0.3,1.1 0.1,0.3 0.1,0.7 0.1,1.1 0,-0.4 0,-0.7 -0.1,-1.1 z m -0.3,-5.2 c 0.1,-0.4 0.3,-0.7 0.3,-1.1 0.1,-0.4 0.1,-0.7 0.1,-1.1 0,0 0,0 0,0 0,0.4 -0.1,0.7 -0.1,1.1 0,0.4 -0.1,0.8 -0.3,1.1 z m -2,-2.1 c 0,0 0,0.1 0,0.1 z m 0.8,2.2 c 0,0 0,0 0,0 0,0 0,0 0,0 -0.1,0 -0.3,0 -0.4,0 0.1,0 0.2,0 0.4,0 z m -1.3,0.4 v 0 0 c -0.1,0 -0.1,0 -0.1,-0.1 0,0 0,0.1 0.1,0.1 v 0 0 c 0.1,0 0.3,-0.1 0.5,-0.1 -0.2,0 -0.3,0.1 -0.5,0.1 z m -6.7,2.3 c 0.1,-0.1 0.3,-0.3 0.5,-0.4 0.3,0.2 0.7,0.4 1.1,0.6 0.8,0.4 1.6,0.6 2.5,0.8 0.4,0.1 0.9,0.2 1.4,0.2 0,0 0,0 0,0 -1.2,0.6 -2.6,0.9 -4.2,0.9 -0.8,0 -1.6,-0.2 -2.5,-0.5 0.2,-0.5 0.6,-1.1 1.2,-1.6 z m 4.1,-2.5 c -0.9,0.2 -1.7,0.5 -2.5,0.8 -0.4,0.2 -0.8,0.4 -1.1,0.6 -0.2,-0.1 -0.3,-0.2 -0.5,-0.4 -0.6,-0.5 -1,-1.1 -1.3,-1.7 0.8,-0.3 1.7,-0.5 2.5,-0.5 1.6,0 3,0.3 4.2,0.9 0,0 0,0 0,0 -0.4,0.1 -0.9,0.2 -1.3,0.3 z m 0.4,3.2 c -0.9,-0.2 -1.7,-0.5 -2.5,-0.8 -0.4,-0.2 -0.7,-0.4 -1.1,-0.6 0.3,-0.2 0.7,-0.4 1.1,-0.6 0.8,-0.4 1.6,-0.6 2.5,-0.8 0.5,-0.1 1.1,-0.2 1.6,-0.2 0,0 0.1,0 0.1,0.1 -0.6,0.2 -1.1,0.3 -1.7,0.6 -0.6,0.2 -1.2,0.5 -1.7,0.9 -0.2,-0.1 -0.3,-0.2 -0.5,-0.3 0,0 0,0 -0.1,0 0,0 -0.1,0 -0.1,0.1 0,0.1 0,0.1 0.1,0.2 0.1,0.1 0.2,0.1 0.3,0.2 -0.1,0.1 -0.2,0.1 -0.3,0.2 -0.1,0.1 -0.1,0.1 -0.1,0.2 0,0.1 0.1,0.1 0.1,0.1 0,0 0,0 0.1,0 0.1,-0.1 0.3,-0.2 0.4,-0.3 0.5,0.3 1.1,0.6 1.7,0.9 0.5,0.2 1.1,0.4 1.7,0.6 0,0 -0.1,0 -0.1,0.1 -0.5,-0.4 -1,-0.5 -1.5,-0.6 z m -4.6,-1.4 c -0.2,0.1 -0.3,0.2 -0.4,0.4 -0.6,0.5 -1,1.1 -1.3,1.7 -0.4,-0.2 -0.8,-0.5 -1.1,-0.9 -0.3,-0.3 -0.6,-0.8 -0.8,-1.2 0.2,-0.5 0.4,-0.9 0.8,-1.2 0.3,-0.3 0.7,-0.6 1.1,-0.9 0.3,0.6 0.7,1.2 1.3,1.7 0.1,0.1 0.3,0.3 0.4,0.4 z m 8.9,1.9 c -0.1,0 -0.2,0 -0.3,0 0.1,0 0.2,0 0.3,0 0.2,0 0.3,0 0.4,0 -0.1,0 -0.2,0 -0.4,0 z m 1.3,-0.3 v 0 0 c 0.1,0 0.1,0 0.1,0.1 0,-0.1 0,-0.1 -0.1,-0.1 v 0 0 c -0.1,0 -0.3,0.1 -0.5,0.1 0.2,-0.1 0.3,-0.1 0.5,-0.1 z m 2.2,-0.6 c 0.6,-0.2 1.2,-0.5 1.7,-0.9 0.2,0.1 0.3,0.2 0.5,0.3 0.1,0 0.1,0 0.2,-0.1 0,-0.1 0,-0.1 -0.1,-0.2 -0.1,-0.1 -0.2,-0.1 -0.3,-0.2 0.1,-0.1 0.2,-0.1 0.3,-0.2 0.1,-0.1 0.1,-0.2 0.1,-0.2 0,-0.1 -0.1,-0.1 -0.2,-0.1 -0.1,0.1 -0.3,0.2 -0.4,0.3 -0.5,-0.3 -1.1,-0.6 -1.7,-0.9 -0.5,-0.2 -1.1,-0.4 -1.7,-0.6 0,0 0.1,0 0.1,-0.1 0.5,0 1,0.1 1.6,0.2 0.9,0.2 1.7,0.5 2.5,0.8 0.4,0.2 0.7,0.4 1.1,0.6 -0.3,0.2 -0.7,0.4 -1.1,0.6 -0.8,0.4 -1.6,0.6 -2.5,0.8 -0.5,0.1 -1.1,0.2 -1.6,0.2 0,0 -0.1,0 -0.1,-0.1 0.5,0.2 1.1,0 1.6,-0.2 z m 0.4,0.8 c 0.9,-0.2 1.8,-0.5 2.5,-0.8 0.4,-0.2 0.8,-0.4 1.1,-0.6 0.2,0.1 0.3,0.3 0.5,0.4 0.6,0.5 1,1.1 1.3,1.7 -0.8,0.3 -1.7,0.5 -2.5,0.5 -1.6,0 -3,-0.3 -4.2,-0.9 0,0 0,0 0,0 0.4,-0.2 0.9,-0.2 1.3,-0.3 z m -3.1,-3.5 c 0,0 0.1,0 0,0 0.1,0 0,0 0,0 l -0.6,-0.1 z m 0.1,-2.5 c 0,-0.7 -0.1,-1.2 -0.4,-1.5 -0.1,-0.2 -0.3,-0.3 -0.5,-0.4 -0.3,-0.2 -0.6,-0.1 -0.9,0 -0.2,0.1 -0.3,0.2 -0.5,0.4 -0.3,0.3 -0.4,0.8 -0.4,1.5 v 0 c 0,-0.7 0.1,-1.2 0.4,-1.5 0.2,-0.2 0.3,-0.3 0.5,-0.4 0.3,-0.1 0.6,-0.2 0.9,0 0.2,0.1 0.3,0.2 0.5,0.4 0.3,0.2 0.4,0.7 0.4,1.5 z m -3,2.5 c 0,0 0,0 0,0 0,0 0,0 0,0 0.2,0 0.3,-0.1 0.5,-0.1 -0.2,0 -0.3,0.1 -0.5,0.1 z m -0.1,-0.1 c 0,0 0,0 0,0 0.1,0 0.3,0 0.4,0 -0.2,0 -0.3,0 -0.4,0 z m -0.2,0 z m 0.8,3.5 c 0,0 0,0 0,0 0,0 0,0 0,0 l 0.6,0.1 z m -0.1,2.5 c 0,0.7 0.1,1.2 0.4,1.5 0.2,0.2 0.3,0.3 0.5,0.4 0.1,0.1 0.3,0.1 0.4,0.1 0.1,0 0.3,0 0.4,-0.1 0.2,-0.1 0.3,-0.2 0.5,-0.4 0.3,-0.3 0.4,-0.8 0.4,-1.5 v 0 c 0,0.7 -0.1,1.2 -0.4,1.5 -0.1,0.2 -0.3,0.3 -0.5,0.4 -0.1,0.1 -0.3,0.1 -0.4,0.1 -0.1,0 -0.3,0 -0.4,-0.1 -0.1,-0.1 -0.3,-0.2 -0.5,-0.4 -0.3,-0.3 -0.4,-0.8 -0.4,-1.5 z m 3,-2.5 c 0,0 0,0 0,0 0,0 0,0 0,0 -0.1,0 -0.3,0.1 -0.5,0.1 0.2,0 0.3,-0.1 0.5,-0.1 z m 0.1,0.1 c 0,0 0,0 0,0 -0.1,0 -0.3,0 -0.4,0 0.2,0 0.3,0 0.4,0 z m 0.2,0 z m 9.3,-3 c 0.3,0.3 0.6,0.8 0.8,1.2 -0.2,0.5 -0.4,0.9 -0.8,1.2 -0.3,0.3 -0.7,0.6 -1.1,0.9 -0.3,-0.6 -0.7,-1.2 -1.3,-1.7 -0.1,-0.1 -0.3,-0.2 -0.4,-0.4 0.2,-0.1 0.3,-0.2 0.4,-0.4 0.6,-0.5 1,-1.1 1.3,-1.7 0.4,0.2 0.8,0.5 1.1,0.9 z m -9.5,-0.6 v 0 c -0.1,0 -0.3,0 -0.4,0 0.2,0 0.3,0 0.4,0 z m -0.8,-0.2 z m -1.7,-2.3 c 0,0.4 -0.3,0.8 -0.2,1.2 0.1,0.4 0,0.8 0.1,1.1 -0.1,-0.3 0.1,-0.6 0,-1.1 -0.1,-0.4 0.1,-0.8 0.1,-1.2 z m -1.5,2.4 v 0 c -0.4,-0.2 -0.7,-0.4 -1.1,-0.6 -0.7,-0.3 -1.3,-0.5 -1.9,-0.7 -0.7,-0.1 -1.4,-0.2 -2,-0.2 -0.5,0 -0.9,0.1 -1.4,0.2 -0.4,0.1 -0.9,0.3 -1.3,0.5 h -0.1 V 224 c -0.1,-0.2 -0.1,-0.4 -0.1,-0.5 0,-0.1 0,-0.2 0,-0.2 0,0.1 0,0.2 0,0.2 0,0.2 0,0.3 0.1,0.5 v 0.1 h 0.1 c 0.4,-0.2 0.9,-0.4 1.3,-0.5 0.4,-0.1 0.9,-0.2 1.4,-0.2 0.6,0 1.3,0.1 2,0.2 0.7,0.1 1.3,0.4 1.9,0.7 0.4,0.1 0.7,0.3 1.1,0.6 z m 0.4,3.7 v 0 0 c 0.1,0 0.3,0 0.4,0 -0.2,0 -0.3,0 -0.4,0 z m 0.8,0.1 v 0 c 0,0.1 0,0.1 0,0.1 z m 0,3.9 c -0.2,-0.4 -0.4,-0.9 -0.4,-1.5 0,0 0,0 0,0 0.1,0.6 0.2,1.1 0.4,1.5 0.2,0.3 0.3,0.4 0.6,0.5 0.1,0 0.2,0.1 0.4,0.1 -0.1,0 -0.3,0 -0.4,-0.1 -0.2,-0.1 -0.4,-0.2 -0.6,-0.5 z m 2.3,-1.5 c 0,-0.4 0,-0.8 -0.1,-1.2 -0.1,-0.4 -0.1,-0.8 -0.2,-1.1 0.1,0.3 0.1,0.7 0.2,1.1 0.1,0.4 0.1,0.7 0.1,1.2 z m 7.5,-3.8 c -0.2,-0.1 -0.3,-0.3 -0.5,-0.4 l -0.1,-0.1 0.1,-0.1 c 0.2,-0.1 0.4,-0.3 0.5,-0.4 0.3,-0.3 0.5,-0.5 0.8,-0.8 0.2,-0.2 0.3,-0.4 0.4,-0.7 -0.1,0.2 -0.3,0.5 -0.4,0.7 -0.2,0.3 -0.5,0.6 -0.8,0.8 -0.2,0.1 -0.3,0.3 -0.5,0.4 l -0.1,0.1 0.1,0.1 c 0.2,0.1 0.4,0.2 0.5,0.4 0.6,0.5 1,1.1 1.3,1.7 v 0 0 0 c -0.2,-0.7 -0.7,-1.2 -1.3,-1.7 z m -3.7,5.1 v 0 0 0 c 0,-0.1 0,-0.1 0,-0.2 0,0.1 0,0.2 0,0.2 z m 0.6,-10.5 c 0.1,0.1 0.2,0.2 0.3,0.3 0.1,0 0.1,0.1 0.2,0.1 -0.1,0 -0.1,-0.1 -0.2,-0.1 -0.2,-0.1 -0.3,-0.2 -0.3,-0.3 -0.1,-0.2 -0.1,-0.4 -0.1,-0.6 -0.1,0.2 0,0.4 0.1,0.6 z m -2.5,2.3 c 0.6,-0.3 1.3,-0.5 2,-0.7 0.7,-0.1 1.3,-0.2 2,-0.2 0.5,0 0.9,0.1 1.4,0.2 0.4,0.1 0.9,0.3 1.3,0.5 0.1,-0.2 0.1,-0.3 0.1,-0.5 0,-0.1 0,-0.3 0,-0.5 v 0 c 0,0.2 0,0.3 0,0.5 0,0.2 0,0.3 -0.1,0.5 -0.4,-0.2 -0.9,-0.4 -1.3,-0.5 -0.5,-0.1 -0.9,-0.2 -1.4,-0.2 -0.7,0 -1.3,0.1 -2,0.2 -0.7,0.2 -1.3,0.4 -2,0.7 -0.4,0.2 -0.7,0.3 -1,0.6 0.3,-0.3 0.7,-0.4 1,-0.6 z m -1.9,-0.6 c 0.1,-0.4 0.1,-0.7 0.1,-1.1 0,0 0,0 0,0 0,0.4 0,0.8 -0.1,1.1 z m -2.5,-2.7 c 0.2,-0.3 0.5,-0.4 0.7,-0.5 0.1,0 0.3,-0.1 0.4,-0.1 -0.1,0 -0.3,0 -0.4,0.1 -0.2,0.1 -0.5,0.2 -0.7,0.5 -0.3,0.4 -0.5,0.9 -0.5,1.6 0,0 0,0 0,0 0,-0.7 0.3,-1.2 0.5,-1.6 z m -0.1,2.7 c 0,0 0,0 0,0 0,0 0,0 0,0 0.1,0.4 0.1,0.8 0.2,1.1 -0.1,-0.3 -0.2,-0.7 -0.2,-1.1 z m -5.1,-3.6 c -0.5,-0.3 -1.1,-0.2 -1.7,-0.1 -0.2,0 -0.3,0.1 -0.5,0.2 -0.3,0.2 -0.6,0.4 -0.9,0.7 -0.2,0.3 -0.4,0.6 -0.5,1 -0.1,0.4 -0.2,0.8 -0.2,1.2 v 0 c 0,-0.4 0.1,-0.8 0.2,-1.2 0.1,-0.4 0.3,-0.7 0.5,-1 0.2,-0.3 0.5,-0.5 0.9,-0.7 0.2,-0.1 0.3,-0.1 0.5,-0.2 0.6,-0.1 1.2,-0.2 1.7,0.1 0.4,0.2 0.8,0.7 0.8,1.3 0,-0.6 -0.4,-1.1 -0.8,-1.3 z m 3.2,9.4 c -0.6,0.3 -1.3,0.5 -2,0.7 -0.7,0.1 -1.3,0.2 -2,0.2 -0.5,0 -0.9,-0.1 -1.4,-0.2 -0.5,-0.1 -0.9,-0.3 -1.3,-0.5 -0.1,0.2 -0.1,0.3 -0.1,0.5 0,0.1 0,0.3 0,0.5 v 0 c 0,-0.2 0,-0.3 0,-0.5 0,-0.2 0,-0.3 0.1,-0.5 0.4,0.2 0.9,0.4 1.3,0.5 0.4,0.1 0.9,0.2 1.4,0.2 0.7,0 1.3,-0.1 2,-0.2 0.7,-0.2 1.3,-0.5 2,-0.7 0.4,-0.2 0.7,-0.3 1,-0.6 -0.3,0.2 -0.7,0.4 -1,0.6 z m 2,0.5 c 0,0.4 -0.1,0.7 -0.1,1.1 0,0 0,0 0,0 0,-0.3 0.1,-0.7 0.1,-1.1 z m 2.2,2.8 c -0.2,0.3 -0.3,0.4 -0.6,0.5 -0.1,0 -0.2,0.1 -0.4,0.1 0.1,0 0.3,0 0.4,-0.1 0.3,-0.1 0.4,-0.3 0.6,-0.5 0.2,-0.4 0.3,-0.9 0.3,-1.6 0,0 0,0 0,0 0,0.7 -0.1,1.2 -0.3,1.6 z m 0.3,-2.8 c 0,0 0,0 0,0 0,0 0,0 0,0 -0.1,-0.4 -0.1,-0.8 -0.2,-1.1 0.1,0.3 0.2,0.8 0.2,1.1 z m 0.9,-0.9 v 0 -0.1 c 0.3,0.2 0.7,0.3 1,0.5 0.7,0.3 1.3,0.5 1.9,0.6 0.7,0.1 1.4,0.2 2,0.2 0.5,0 0.9,-0.1 1.4,-0.2 0.4,-0.1 0.9,-0.3 1.3,-0.5 h 0.1 v 0.1 c 0.1,0.2 0.1,0.3 0.1,0.5 0,0.1 0,0.3 0,0.5 0,-0.2 0,-0.3 0,-0.5 0,-0.2 0,-0.3 -0.1,-0.5 v -0.1 h -0.1 c -0.4,0.2 -0.9,0.4 -1.3,0.5 -0.4,0.1 -0.9,0.2 -1.4,0.2 -0.6,0 -1.3,-0.1 -2,-0.2 -0.7,-0.1 -1.3,-0.4 -1.9,-0.7 -0.3,-0.2 -0.7,-0.4 -1,-0.6 v 0.1 z m 7.8,1.9 c 0,0.3 0,0.6 -0.1,0.9 0.1,-0.4 0.1,-0.6 0.1,-0.9 z m -1,1.5 c 0.1,0 0.1,-0.1 0.2,-0.2 0.1,-0.1 0.3,-0.1 0.4,-0.2 0.2,-0.1 0.3,-0.3 0.2,-0.5 v 0 c 0.1,0.2 -0.1,0.4 -0.2,0.5 -0.1,0.1 -0.3,0.1 -0.4,0.2 0,0.1 -0.1,0.2 -0.2,0.2 0.1,0.1 0.2,0.2 0.4,0.2 -0.1,0 -0.3,-0.1 -0.4,-0.2 z m 0,0.3 c 0.2,0 0.4,0 0.5,-0.1 0,0 0,0 0,0 v 0 c 0,0 0,0 0,0 -0.1,0.1 -0.4,0.1 -0.5,0.1 -0.1,0 -0.5,0 -0.5,0.1 v 0 c 0,0 0.4,0 0.5,-0.1 z m -1.3,-0.1 c 0,0 0.1,0 0.1,0 0,0 0,0 -0.1,0 0,0 -0.2,0.1 -0.2,0.1 0.1,0 0.2,-0.1 0.2,-0.1 z"
         style="fill:#000000;fill-opacity:1" />
    </g>
    <g
       id="XMLID_292_"
       transform="matrix(0.00412839,0,0,0.00412505,-0.08568166,-0.08138054)"
       style="fill:#000000;fill-opacity:1">
      <path
         id="XMLID_364_"
         class="st0"
         d="m 126,55.9 c -2.2,0 -4.4,0 -6.5,0 -4.3,0 -8.4,0.1 -12.3,0.1 -3.9,0 -7.6,0.1 -11,0.2 -1.7,0 -3.3,0.1 -4.9,0.1 -1.6,0 -3,0.1 -4.4,0.1 -2.8,0.1 -5.2,0.1 -7.2,0.2 -2,0 -2,0.3 0,0.4 2,0 4.4,0.1 7.2,0.2 1.4,0 2.9,0.1 4.4,0.1 1.6,0 3.2,0.1 4.9,0.1 3.4,0.1 7.1,0.1 11,0.2 3.9,0 8,0.1 12.3,0.1 2.1,0 4.3,0 6.5,0 0.9,0 1.9,0 2.9,0 -0.1,-0.1 -0.4,-0.5 -0.4,-0.9 0,-0.4 0.3,-0.7 0.4,-0.9 -1,0 -2,0 -2.9,0 z"
         style="fill:#000000;fill-opacity:1" />
      <path
         id="XMLID_363_"
         class="st0"
         d="m 203.5,56.6 c -2,-0.1 -4.4,-0.1 -7.2,-0.2 -1.4,0 -2.9,-0.1 -4.4,-0.1 -1.6,0 -3.2,-0.1 -4.9,-0.1 -3.4,-0.1 -7.1,-0.1 -11,-0.2 -3.9,0 -8,-0.1 -12.3,-0.1 -2.1,0 -4.3,0 -6.5,0 -0.9,0 -1.9,0 -2.9,0 0.1,0.1 0.4,0.5 0.4,0.9 0,0.4 -0.3,0.7 -0.4,0.9 1,0 1.9,0 2.9,0 2.2,0 4.4,0 6.5,0 4.3,0 8.4,-0.1 12.3,-0.1 3.9,0 7.6,-0.1 11,-0.2 1.7,0 3.3,-0.1 4.9,-0.1 1.6,0 3,-0.1 4.4,-0.1 2.8,-0.1 5.2,-0.1 7.2,-0.2 2,-0.1 2,-0.4 0,-0.4 z"
         style="fill:#000000;fill-opacity:1" />
      <path
         id="XMLID_293_"
         class="st0"
         d="m 154.1,56.7 c -0.2,-0.5 -0.4,-1 -0.8,-1.4 -0.3,-0.4 -0.8,-0.8 -1.2,-1.1 0.1,-0.2 0.1,-0.4 0.1,-0.6 0,-0.2 0,-0.4 0,-0.6 0,-1.1 -0.3,-2 -0.9,-2.6 -0.6,-0.6 -1.3,-0.9 -2.1,-0.9 -0.3,0 -0.6,0 -0.9,0 -0.7,0.1 -1.2,0.6 -1.5,1.2 -0.1,0.4 -0.1,0.7 0,1.1 0.1,0.2 0.3,0.6 0.8,0.8 0.3,0.1 0.7,0.1 1,0 0.2,-0.1 0.6,-0.3 0.7,-0.8 0,-0.2 -0.1,-0.5 -0.3,-0.7 -0.2,-0.2 -0.4,-0.3 -0.7,-0.2 -0.2,0.1 -0.5,0.3 -0.4,0.6 0,0.2 0.2,0.3 0.3,0.3 0.1,0 0.2,0 0.2,-0.1 0,0 0,-0.1 0,-0.1 0,0 -0.1,-0.1 -0.1,-0.1 0,0 -0.1,0 -0.1,0.1 0,0 0,0 0,0 0,0 0,0 -0.1,0 0,-0.1 0,-0.1 0,-0.2 0.1,-0.1 0.3,-0.2 0.4,-0.1 0.2,0.1 0.3,0.3 0.3,0.6 0,0.1 -0.1,0.3 -0.2,0.3 -0.1,0.1 -0.3,0.2 -0.4,0.2 -0.4,0 -0.8,-0.2 -0.9,-0.5 -0.2,-0.4 -0.1,-0.7 -0.1,-0.9 0.1,-0.4 0.4,-0.7 0.7,-0.9 0.3,-0.1 0.6,-0.2 0.9,-0.2 0.3,0 0.6,0.1 0.9,0.1 0.1,0 0.3,0.1 0.4,0.1 0.3,0.2 0.6,0.4 0.8,0.7 0.2,0.3 0.4,0.6 0.5,1 0.1,0.4 0.1,0.8 0.1,1.2 0,0.2 0,0.3 0,0.5 0,0.1 0,0.3 -0.1,0.4 -0.4,-0.2 -0.8,-0.3 -1.2,-0.4 -0.4,-0.1 -0.9,-0.2 -1.4,-0.2 -0.6,0 -1.3,0.1 -2,0.2 -0.7,0.1 -1.3,0.4 -2,0.7 -0.3,0.2 -0.7,0.5 -1,0.7 -0.2,0 -0.4,0.1 -0.6,0.1 h -0.4 c 0.1,0 0.1,-0.8 0.2,-1.2 0.1,-0.4 0.1,-0.8 0.1,-1.3 0,-0.7 -0.1,-1.2 -0.4,-1.6 -0.2,-0.3 -0.4,-0.5 -0.7,-0.6 -0.1,0 -0.3,-0.1 -0.4,-0.1 -0.2,0 -0.3,0 -0.4,0.1 -0.3,0.1 -0.5,0.3 -0.7,0.6 -0.3,0.4 -0.4,1 -0.4,1.6 0,0.4 0,0.9 0.1,1.3 0.1,0.4 0.1,1.2 0.2,1.2 H 140 c -0.2,0 -0.4,-0.1 -0.6,-0.1 -0.3,-0.2 -0.7,-0.5 -1,-0.6 -0.7,-0.3 -1.3,-0.6 -2,-0.7 -0.7,-0.1 -1.4,-0.2 -2,-0.2 -0.5,0 -1,0 -1.4,0.2 -0.4,0.1 -0.8,0.2 -1.3,0.4 0,-0.1 -0.1,-0.3 -0.1,-0.4 0,-0.1 0,-0.3 0,-0.5 0,-0.4 0,-0.8 0.1,-1.2 0.1,-0.4 0.2,-0.7 0.4,-1 0.2,-0.3 0.5,-0.5 0.8,-0.7 0.1,-0.1 0.3,-0.1 0.5,-0.2 0.3,0 0.5,-0.1 0.7,-0.1 0.3,0 0.6,0.1 0.9,0.2 0.3,0.2 0.6,0.5 0.7,0.9 0.1,0.2 0.1,0.6 -0.1,0.9 -0.1,0.3 -0.5,0.5 -0.9,0.5 -0.2,0 -0.4,-0.1 -0.4,-0.2 -0.1,-0.1 -0.2,-0.2 -0.2,-0.3 0,-0.2 0.1,-0.5 0.3,-0.6 0.1,0 0.3,0 0.4,0.1 0,0.1 0,0.1 0,0.2 0,0 0,0 -0.1,0 0,0 0,0 0,0 0,0 -0.1,-0.1 -0.1,-0.1 0,0 -0.1,0 -0.1,0.1 0,0 0,0.1 0,0.1 0,0.1 0.1,0.1 0.2,0.1 0.1,0 0.3,-0.1 0.3,-0.3 0.1,-0.3 -0.2,-0.5 -0.4,-0.6 -0.3,-0.1 -0.5,0 -0.7,0.2 -0.2,0.2 -0.3,0.5 -0.3,0.7 0.1,0.5 0.4,0.7 0.7,0.8 0.3,0.1 0.7,0.1 1,0 0.5,-0.2 0.7,-0.6 0.8,-0.8 0.1,-0.3 0.1,-0.7 0,-1.1 -0.2,-0.6 -0.8,-1.1 -1.5,-1.2 -0.3,-0.1 -0.6,-0.1 -0.8,0 -0.8,0.1 -1.5,0.4 -2.1,1 -0.6,0.6 -0.9,1.5 -0.9,2.6 0,0.2 0,0.4 0,0.6 0,0.2 0.1,0.4 0.1,0.6 -0.5,0.3 -0.9,0.7 -1.2,1.1 -0.4,0.5 -0.6,0.9 -0.8,1.4 v 0 c 0,0 0,0 0,0 0,0 0,0 0,0.1 v 0 c 0.1,0.5 0.4,1 0.8,1.4 0.3,0.4 0.8,0.8 1.2,1.1 -0.1,0.2 -0.1,0.4 -0.1,0.6 0,0.2 0,0.4 0,0.6 0,1.1 0.3,2 0.9,2.6 0.1,0.1 0.2,0.2 0.3,0.2 l 0.1,0.1 v 0 l 0.3,0.2 c 0.2,0.1 0.3,0.2 0.5,0.3 h -0.1 l 0.2,0.1 v 0 l 0.2,0.1 c 0,0 0,0 0,0 v 0 0 h 0.2 c 0,0 0,0 0,0 h 0.1 v 0 c 0.2,0 0.3,0.1 0.5,0.1 0.2,0 0.3,0 0.3,0 l -0.1,0.1 0.5,-0.2 c 0,0 0,0 0,0 v 0 c 1.3,-0.5 1.5,-1.5 1.5,-1.6 v 0 0 c 0,-0.3 0,-0.6 -0.2,-0.9 -0.2,-0.2 -0.5,-0.5 -0.9,-0.5 -0.1,0 -0.3,0.1 -0.4,0.3 0,0.1 0,0.2 0,0.2 0,0.1 0.1,0.1 0.2,0 v 0 0 c 0,-0.1 0.1,-0.2 0.2,-0.2 0,0 0.1,0 0.1,0.1 0,0.1 0,0.3 -0.1,0.3 -0.1,0.1 -0.2,0.1 -0.3,0.2 -0.1,0.1 -0.2,0.1 -0.3,0.2 -0.2,0.2 -0.3,0.4 -0.2,0.7 -0.1,0 -0.2,0.1 -0.3,0.3 0,-0.1 0.1,-0.3 0,-0.4 0,-0.1 -0.1,-0.2 -0.3,-0.2 0,0 -0.1,0 -0.1,0 0,0 -0.1,0 -0.1,0.1 0,0 0,0 0,0 0,0 0,0 0,0 -0.1,0 -0.1,0 -0.1,0 -0.3,0 -0.5,0.1 -0.8,0.2 -0.1,-0.1 -0.2,-0.1 -0.4,-0.1 v 0 c -0.1,0 -0.1,0 -0.2,0 0.1,0 0.2,-0.1 0.2,-0.2 l 0.1,-0.1 h -0.1 c -0.1,0 -0.1,-0.1 -0.1,-0.1 0,0 -0.1,-0.1 -0.1,-0.1 -0.1,-0.1 -0.2,-0.1 -0.2,-0.2 -0.1,0 -0.1,0 -0.1,-0.1 -0.1,0 -0.1,-0.1 -0.1,-0.1 0,0 0,0 0,0 0,0 0,0 0,0 0,-0.1 0,-0.1 0,-0.2 l 0.1,-0.1 h -0.1 c 0,-0.3 -0.1,-0.6 -0.1,-0.8 0,-0.2 0,-0.3 0,-0.5 0,-0.1 0,-0.3 0.1,-0.4 0.4,0.2 0.8,0.3 1.3,0.4 0.4,0.1 0.9,0.2 1.4,0.2 0.6,0 1.3,-0.1 2,-0.2 0.7,-0.1 1.3,-0.4 2,-0.7 0.3,-0.2 0.7,-0.3 1,-0.5 0.2,0 0.4,0.1 0.6,0.1 v 0 0 h 0.4 c -0.1,0 -0.2,0.5 -0.2,1 0,0.4 -0.1,0.8 -0.1,1.2 0,0.7 0.1,1.2 0.4,1.6 0.2,0.3 0.4,0.5 0.7,0.6 0.1,0 0.3,0.1 0.4,0.1 0.2,0 0.3,0 0.4,-0.1 0.3,-0.1 0.5,-0.3 0.7,-0.6 0.3,-0.4 0.4,-0.9 0.4,-1.6 0,-0.5 0,-0.8 -0.1,-1.1 -0.1,-0.4 -0.1,-1 -0.2,-1 h 0.4 v 0 0 0 c 0.2,0 0.4,-0.1 0.6,-0.1 v 0 c -0.2,0 -0.4,0 -0.6,0 0.2,0 0.4,0 0.6,0 0.3,0.2 0.7,0.4 1,0.6 0.7,0.3 1.3,0.5 2,0.7 0.7,0.1 1.4,0.2 2,0.2 0.5,0 1,-0.1 1.4,-0.2 0.4,-0.1 0.8,-0.3 1.2,-0.4 0,0.1 0.1,0.3 0.1,0.4 0,0.1 0,0.3 0,0.5 0,0.3 0,0.6 -0.1,0.9 h -0.2 l 0.1,0.1 c 0.1,0.2 -0.1,0.3 -0.2,0.4 0,0 -0.1,0.1 -0.1,0.1 -0.1,0 -0.2,0.1 -0.2,0.2 0,0 -0.1,0.1 -0.1,0.1 0,0 -0.1,0.1 -0.1,0.1 h -0.1 l 0.1,0.1 c 0.1,0.1 0.2,0.1 0.2,0.2 -0.1,0 -0.1,0 -0.2,0 v 0 c -0.2,0 -0.4,0.1 -0.4,0.1 -0.3,-0.2 -0.6,-0.3 -0.8,-0.2 0,0 -0.1,0 -0.1,0 0,0 0,0 0,0 0,0 0,0 0,0 0,-0.1 -0.1,-0.1 -0.1,-0.1 0,0 -0.1,0 -0.1,0 -0.1,0 -0.2,0.1 -0.3,0.2 0,0.1 0,0.3 0,0.4 -0.1,-0.1 -0.2,-0.2 -0.3,-0.3 0,-0.2 0,-0.5 -0.2,-0.7 -0.1,-0.1 -0.2,-0.1 -0.3,-0.2 -0.1,-0.1 -0.2,-0.1 -0.3,-0.2 -0.1,-0.1 -0.1,-0.2 -0.1,-0.3 0,0 0,-0.1 0.1,-0.1 0.1,0 0.1,0.1 0.2,0.2 v 0 0 c 0.1,0 0.2,0 0.2,0 0,-0.1 0,-0.1 0,-0.2 -0.1,-0.1 -0.3,-0.3 -0.4,-0.3 -0.4,0 -0.7,0.2 -0.9,0.5 -0.2,0.3 -0.2,0.6 -0.2,0.9 v 0 0 c 0,0 0.2,1.1 1.5,1.6 v 0 c 0,0 0,0 0,0 l 0.6,0.2 -0.1,-0.1 c 0.1,0 0.4,0 0.5,0 0.2,0 0.8,0 0.8,-0.1 v 0 l -0.4,-0.1 v 0 h 0.2 v 0 0 c 0,0 0,0 0,0 v 0 0 0 c 0,0 0,0 0,0 l 0.2,-0.1 v 0 c 0.2,0 0.4,-0.2 0.5,-0.3 l 0.1,-0.1 c 0.2,-0.1 0.4,-0.3 0.5,-0.4 0.6,-0.6 0.9,-1.5 0.9,-2.6 0,-0.2 0,-0.4 0,-0.6 0,-0.2 -0.1,-0.4 -0.1,-0.6 0.5,-0.3 0.9,-0.7 1.2,-1.1 0.4,-0.4 0.6,-0.9 0.8,-1.4 v 0 c 0.4,-0.5 0.4,-0.5 0.4,-0.6 0,0.1 0,0.1 0,0 z m -4.5,7.3 c -0.2,0 -0.4,0.1 -0.5,0.1 -0.2,0 -0.3,0 -0.3,0 -0.1,0 -0.3,-0.1 -0.4,-0.1 v 0 0 C 147.2,63.6 147,62.7 147,62.6 v 0 c 0,0.1 0.3,1 1.4,1.4 v 0 0 c 0.1,0 0.3,0.1 0.4,0.1 0,0 0.1,0 0.3,0 0.1,0 0.3,-0.1 0.5,-0.1 z m -17.8,-2.5 z m 10.9,-10.6 c 0.2,0.4 0.4,0.9 0.4,1.5 v 0 c 0,-0.6 -0.2,-1.1 -0.4,-1.5 -0.2,-0.3 -0.4,-0.4 -0.6,-0.5 -0.1,0 -0.2,-0.1 -0.4,-0.1 0.1,0 0.3,0 0.4,0.1 0.2,0.1 0.4,0.3 0.6,0.5 z m -3,7.7 v 0 l 0.2,-0.1 c 0,0 0.1,-0.1 0.1,-0.1 0,0 -0.1,0.1 -0.1,0.1 z m 4,-3.6 v 0 l -0.2,0.1 c 0,0 -0.1,0.1 -0.1,0.1 0,0 0.1,-0.1 0.1,-0.1 z m -0.8,6 c 0,0.7 -0.1,1.2 -0.4,1.5 -0.1,0.2 -0.3,0.3 -0.4,0.4 -0.1,0.1 -0.3,0.1 -0.4,0.1 -0.1,0 -0.3,0 -0.4,-0.1 -0.2,-0.1 -0.3,-0.2 -0.4,-0.4 -0.3,-0.3 -0.4,-0.8 -0.4,-1.5 v 0 c 0,0.7 0.1,1.2 0.4,1.5 0.1,0.2 0.3,0.3 0.4,0.4 0.1,0.1 0.3,0.1 0.4,0.1 0.1,0 0.3,0 0.4,-0.1 0.2,-0.1 0.3,-0.2 0.4,-0.4 0.3,-0.3 0.4,-0.8 0.4,-1.5 z m 5.7,-5.2 c -0.8,-0.4 -1.6,-0.6 -2.5,-0.8 -0.4,-0.1 -0.9,-0.2 -1.3,-0.2 0,0 0,0 0,0 1.2,-0.6 2.5,-0.9 4.2,-0.9 0.8,0 1.6,0.2 2.5,0.5 -0.3,0.6 -0.7,1.2 -1.3,1.7 -0.1,0.1 -0.3,0.3 -0.5,0.4 -0.4,-0.3 -0.7,-0.5 -1.1,-0.7 z m -7.7,-4.7 c 0.2,-0.2 0.3,-0.3 0.4,-0.3 0.2,-0.1 0.5,-0.1 0.7,0 0.1,0.1 0.3,0.2 0.4,0.3 0.3,0.3 0.4,0.8 0.4,1.4 0,0.4 0,0.7 -0.1,1.1 -0.1,0.3 -0.2,0.7 -0.3,1 -0.1,0 -0.2,0 -0.4,0 -0.1,0 -0.3,0 -0.4,0 v 0 c -0.1,0 -0.2,0 -0.3,0 0,0 0,0 0,0 0,0 0,0 0,0 -0.1,0 -0.2,0 -0.3,0 -0.1,-0.4 -0.2,-0.7 -0.3,-1 -0.1,-0.4 -0.1,-0.7 -0.1,-1.1 -0.1,-0.6 0.1,-1.1 0.3,-1.4 z m 0.7,3.7 v 0 c 0.2,0 0.3,0 0.4,0 -0.1,0.1 -0.2,0.1 -0.4,0 z m 0.1,3.6 c -0.1,0 -0.3,0 -0.4,0 -0.1,0 -0.1,0 -0.2,0 0.1,-0.2 0.1,-0.3 0.2,-0.5 0.1,-0.2 0.2,-0.4 0.3,-0.5 0.1,0.2 0.2,0.3 0.3,0.5 0.1,0.2 0.2,0.3 0.2,0.5 v 0 c 0,0 -0.1,0 -0.1,0 0,0 -0.2,0 -0.3,0 z M 141,57.7 c -0.1,0.2 -0.2,0.4 -0.3,0.6 -0.1,0 -0.2,0 -0.3,-0.1 0.2,-0.1 0.4,-0.3 0.6,-0.5 z m 0.3,-0.9 v 0 0 c -0.4,0.5 -0.9,1 -1.4,1.4 -1.2,-0.3 -2.4,-0.7 -3.5,-1.3 1.1,-0.6 2.2,-1.1 3.5,-1.3 0.5,0.2 1,0.7 1.4,1.2 z m 0.4,-1.7 c 0.1,0 0.3,0 0.4,0 0.1,0 0.1,0 0.1,0 v 0 c -0.1,0.2 -0.1,0.3 -0.2,0.5 -0.1,0.2 -0.2,0.4 -0.3,0.5 -0.1,-0.2 -0.2,-0.3 -0.3,-0.5 -0.1,-0.1 -0.1,-0.3 -0.2,-0.5 0,0 0.1,0 0.2,0 0,0 0.2,0 0.3,0 z m 0.7,0.7 c 0.1,-0.2 0.2,-0.3 0.2,-0.5 0.1,0 0.2,0 0.3,0.1 -0.1,0.1 -0.3,0.2 -0.5,0.4 z m 0.6,2.4 c -0.1,0 -0.2,0 -0.3,0.1 -0.1,-0.2 -0.1,-0.4 -0.2,-0.5 0.1,0.1 0.3,0.3 0.5,0.4 z m -2.6,-2.9 c 0.1,0 0.2,0 0.3,-0.1 0.1,0.2 0.2,0.4 0.3,0.6 -0.2,-0.1 -0.4,-0.3 -0.6,-0.5 z m 1.8,1.5 v 0 0 c 0.4,-0.5 0.9,-1 1.4,-1.4 1.2,0.3 2.4,0.7 3.5,1.3 -1.1,0.6 -2.2,1.1 -3.5,1.3 -0.6,-0.3 -1,-0.7 -1.4,-1.2 z m -0.6,1.9 v 0 0 c -0.1,0 -0.2,0 -0.3,0 0,0 0,0 0,0 0,0 0,0 0,0 0.1,0 0.2,0 0.3,0 z m -1,1.2 c 0.1,-0.3 0.2,-0.7 0.3,-1 0.1,0 0.2,0 0.3,0 0,0 0,0 0,0 0.1,0 0.2,0 0.3,0 v 0 c 0.1,0 0.3,0 0.4,0 0.1,0 0.3,0 0.4,0 0.1,0.4 0.2,0.7 0.3,1 0.1,0.3 0.1,0.7 0.1,1.1 0,0.7 -0.1,1.2 -0.4,1.5 -0.1,0.2 -0.3,0.3 -0.4,0.3 -0.3,0.1 -0.5,0.1 -0.7,0 -0.1,-0.1 -0.3,-0.2 -0.4,-0.3 -0.2,-0.3 -0.4,-0.8 -0.4,-1.5 0.1,-0.3 0.2,-0.7 0.2,-1.1 z m 2.2,0 c -0.1,-0.4 -0.2,-0.8 -0.3,-1.1 0.2,0.3 0.3,0.7 0.3,1.1 0.1,0.3 0.1,0.7 0.1,1.1 0,-0.4 0,-0.7 -0.1,-1.1 z m -0.3,-5.2 c 0.1,-0.4 0.3,-0.7 0.3,-1.1 0.1,-0.4 0.1,-0.7 0.1,-1.1 0,0 0,0 0,0 0,0.4 -0.1,0.7 -0.1,1.1 0,0.4 -0.1,0.8 -0.3,1.1 z m -2,-2.1 c 0,0 0,0.1 0,0.1 z m 0.8,2.2 c 0,0 0,0 0,0 0,0 0,0 0,0 -0.1,0 -0.3,0 -0.4,0 0.1,0 0.2,0 0.4,0 z m -1.3,0.4 v 0 0 c -0.1,0 -0.1,0 -0.1,-0.1 0,0 0,0.1 0.1,0.1 v 0 0 c 0.1,0 0.3,-0.1 0.5,-0.1 -0.2,0 -0.3,0.1 -0.5,0.1 z m -6.7,2.3 c 0.1,-0.1 0.3,-0.3 0.5,-0.4 0.3,0.2 0.7,0.4 1.1,0.6 0.8,0.4 1.6,0.6 2.5,0.8 0.4,0.1 0.9,0.2 1.4,0.2 0,0 0,0 0,0 -1.2,0.6 -2.6,0.9 -4.2,0.9 -0.8,0 -1.6,-0.2 -2.5,-0.5 0.2,-0.5 0.6,-1.1 1.2,-1.6 z m 4.1,-2.5 c -0.9,0.2 -1.7,0.5 -2.5,0.8 -0.4,0.2 -0.8,0.4 -1.1,0.6 -0.2,-0.1 -0.3,-0.2 -0.5,-0.4 -0.6,-0.5 -1,-1.1 -1.3,-1.7 0.8,-0.3 1.7,-0.5 2.5,-0.5 1.6,0 3,0.3 4.2,0.9 0,0 0,0 0,0 -0.4,0.1 -0.9,0.2 -1.3,0.3 z m 0.4,3.2 c -0.9,-0.2 -1.7,-0.5 -2.5,-0.8 -0.4,-0.2 -0.7,-0.4 -1.1,-0.6 0.3,-0.2 0.7,-0.4 1.1,-0.6 0.8,-0.4 1.6,-0.6 2.5,-0.8 0.5,-0.1 1.1,-0.2 1.6,-0.2 0,0 0.1,0 0.1,0.1 -0.6,0.2 -1.1,0.3 -1.7,0.6 -0.6,0.2 -1.2,0.5 -1.7,0.9 -0.2,-0.1 -0.3,-0.2 -0.5,-0.3 0,0 0,0 -0.1,0 0,0 -0.1,0 -0.1,0.1 0,0.1 0,0.1 0.1,0.2 0.1,0.1 0.2,0.1 0.3,0.2 -0.1,0.1 -0.2,0.1 -0.3,0.2 -0.1,0.1 -0.1,0.1 -0.1,0.2 0,0.1 0.1,0.1 0.1,0.1 0,0 0,0 0.1,0 0.1,-0.1 0.3,-0.2 0.4,-0.3 0.5,0.3 1.1,0.6 1.7,0.9 0.5,0.2 1.1,0.4 1.7,0.6 0,0 -0.1,0 -0.1,0.1 -0.5,-0.4 -1,-0.5 -1.5,-0.6 z m -4.6,-1.4 c -0.2,0.1 -0.3,0.2 -0.4,0.4 -0.6,0.5 -1,1.1 -1.3,1.7 -0.4,-0.2 -0.8,-0.5 -1.1,-0.9 -0.3,-0.3 -0.6,-0.8 -0.8,-1.2 0.2,-0.5 0.4,-0.9 0.8,-1.2 0.3,-0.3 0.7,-0.6 1.1,-0.9 0.3,0.6 0.7,1.2 1.3,1.7 0.1,0.1 0.3,0.3 0.4,0.4 z m 8.9,1.9 c -0.1,0 -0.2,0 -0.3,0 0.1,0 0.2,0 0.3,0 0.2,0 0.3,0 0.4,0 -0.1,0 -0.2,0 -0.4,0 z m 1.3,-0.3 v 0 0 c 0.1,0 0.1,0 0.1,0.1 0,-0.1 0,-0.1 -0.1,-0.1 v 0 0 c -0.1,0 -0.3,0.1 -0.5,0.1 0.2,-0.1 0.3,-0.1 0.5,-0.1 z m 2.2,-0.6 c 0.6,-0.2 1.2,-0.5 1.7,-0.9 0.2,0.1 0.3,0.2 0.5,0.3 0.1,0 0.1,0 0.2,-0.1 0,-0.1 0,-0.1 -0.1,-0.2 -0.1,-0.1 -0.2,-0.1 -0.3,-0.2 0.1,-0.1 0.2,-0.1 0.3,-0.2 0.1,-0.1 0.1,-0.1 0.1,-0.2 0,-0.1 -0.1,-0.1 -0.2,-0.1 -0.1,0.1 -0.3,0.2 -0.4,0.3 -0.5,-0.3 -1.1,-0.6 -1.7,-0.9 -0.5,-0.2 -1.1,-0.4 -1.7,-0.6 0,0 0.1,0 0.1,-0.1 0.5,0 1,0.1 1.6,0.2 0.9,0.2 1.7,0.5 2.5,0.8 0.4,0.2 0.7,0.4 1.1,0.6 -0.3,0.2 -0.7,0.4 -1.1,0.6 -0.8,0.4 -1.6,0.6 -2.5,0.8 -0.5,0.1 -1.1,0.2 -1.6,0.2 0,0 -0.1,0 -0.1,-0.1 0.5,0.2 1.1,0 1.6,-0.2 z m 0.4,0.8 c 0.9,-0.2 1.8,-0.5 2.5,-0.8 0.4,-0.2 0.8,-0.4 1.1,-0.6 0.2,0.1 0.3,0.3 0.5,0.4 0.6,0.5 1,1.1 1.3,1.7 -0.8,0.3 -1.7,0.5 -2.5,0.5 -1.6,0 -3,-0.3 -4.2,-0.9 0,0 0,0 0,0 0.4,-0.2 0.9,-0.2 1.3,-0.3 z m -3.1,-3.5 c 0,0 0.1,0 0,0 0.1,0 0,0 0,0 L 142.3,55 Z m 0.1,-2.5 c 0,-0.7 -0.1,-1.2 -0.4,-1.5 -0.1,-0.2 -0.3,-0.3 -0.5,-0.4 -0.3,-0.2 -0.6,-0.1 -0.9,0 -0.2,0.1 -0.3,0.2 -0.5,0.4 -0.3,0.3 -0.4,0.8 -0.4,1.5 v 0 c 0,-0.7 0.1,-1.2 0.4,-1.5 0.2,-0.2 0.3,-0.3 0.5,-0.4 0.3,-0.1 0.6,-0.2 0.9,0 0.2,0.1 0.3,0.2 0.5,0.4 0.3,0.2 0.4,0.7 0.4,1.5 z m -3,2.5 c 0,0 0,0 0,0 0,0 0,0 0,0 0.2,0 0.3,-0.1 0.5,-0.1 -0.2,0 -0.3,0.1 -0.5,0.1 z M 139.9,55 c 0,0 0,0 0,0 0.1,0 0.3,0 0.4,0 -0.2,0 -0.3,0 -0.4,0 z m -0.2,0 z m 0.8,3.5 c 0,0 0,0 0,0 0,0 0,0 0,0 l 0.6,0.1 z m -0.1,2.5 c 0,0.7 0.1,1.2 0.4,1.5 0.2,0.2 0.3,0.3 0.5,0.4 0.1,0.1 0.3,0.1 0.4,0.1 0.1,0 0.3,0 0.4,-0.1 0.2,-0.1 0.3,-0.2 0.5,-0.4 0.3,-0.3 0.4,-0.8 0.4,-1.5 v 0 c 0,0.7 -0.1,1.2 -0.4,1.5 -0.1,0.2 -0.3,0.3 -0.5,0.4 -0.1,0.1 -0.3,0.1 -0.4,0.1 -0.1,0 -0.3,0 -0.4,-0.1 -0.1,-0.1 -0.3,-0.2 -0.5,-0.4 -0.3,-0.3 -0.4,-0.8 -0.4,-1.5 z m 3,-2.5 c 0,0 0,0 0,0 0,0 0,0 0,0 -0.1,0 -0.3,0.1 -0.5,0.1 0.2,0 0.3,-0.1 0.5,-0.1 z m 0.1,0.1 c 0,0 0,0 0,0 -0.1,0 -0.3,0 -0.4,0 0.2,0 0.3,0 0.4,0 z m 0.2,0 z m 9.3,-3 c 0.3,0.3 0.6,0.8 0.8,1.2 -0.2,0.5 -0.4,0.9 -0.8,1.2 -0.3,0.3 -0.7,0.6 -1.1,0.9 -0.3,-0.6 -0.7,-1.2 -1.3,-1.7 -0.1,-0.1 -0.3,-0.2 -0.4,-0.4 0.2,-0.1 0.3,-0.2 0.4,-0.4 0.6,-0.5 1,-1.1 1.3,-1.7 0.4,0.2 0.8,0.5 1.1,0.9 z M 143.5,55 v 0 c -0.1,0 -0.3,0 -0.4,0 0.2,0 0.3,0 0.4,0 z m -0.8,-0.2 z M 141,52.5 c 0,0.4 -0.3,0.8 -0.2,1.2 0.1,0.4 0,0.8 0.1,1.1 -0.1,-0.3 0.1,-0.6 0,-1.1 -0.1,-0.4 0.1,-0.8 0.1,-1.2 z m -1.5,2.4 v 0 c -0.4,-0.2 -0.7,-0.4 -1.1,-0.6 -0.7,-0.3 -1.3,-0.5 -1.9,-0.7 -0.7,-0.1 -1.4,-0.2 -2,-0.2 -0.5,0 -0.9,0.1 -1.4,0.2 -0.4,0.1 -0.9,0.3 -1.3,0.5 h -0.1 V 54 c -0.1,-0.2 -0.1,-0.4 -0.1,-0.5 0,-0.1 0,-0.2 0,-0.2 0,0.1 0,0.2 0,0.2 0,0.2 0,0.3 0.1,0.5 v 0.1 h 0.1 c 0.4,-0.2 0.9,-0.4 1.3,-0.5 0.4,-0.1 0.9,-0.2 1.4,-0.2 0.6,0 1.3,0.1 2,0.2 0.7,0.1 1.3,0.4 1.9,0.7 0.4,0.1 0.7,0.3 1.1,0.6 z m 0.4,3.7 v 0 0 c 0.1,0 0.3,0 0.4,0 -0.2,0 -0.3,0 -0.4,0 z m 0.8,0.1 v 0 c 0,0.1 0,0.1 0,0.1 z m 0,3.9 c -0.2,-0.4 -0.4,-0.9 -0.4,-1.5 0,0 0,0 0,0 0.1,0.6 0.2,1.1 0.4,1.5 0.2,0.3 0.3,0.4 0.6,0.5 0.1,0 0.2,0.1 0.4,0.1 -0.1,0 -0.3,0 -0.4,-0.1 -0.2,-0.1 -0.4,-0.2 -0.6,-0.5 z m 2.3,-1.5 c 0,-0.4 0,-0.8 -0.1,-1.2 -0.1,-0.4 -0.1,-0.8 -0.2,-1.1 0.1,0.3 0.1,0.7 0.2,1.1 0.1,0.4 0.1,0.7 0.1,1.2 z m 7.5,-3.8 C 150.3,57.2 150.2,57 150,56.9 l -0.1,-0.1 0.1,-0.1 c 0.2,-0.1 0.4,-0.3 0.5,-0.4 0.3,-0.3 0.5,-0.5 0.8,-0.8 0.2,-0.2 0.3,-0.4 0.4,-0.7 -0.1,0.2 -0.3,0.5 -0.4,0.7 -0.2,0.3 -0.5,0.6 -0.8,0.8 -0.2,0.1 -0.3,0.3 -0.5,0.4 l -0.1,0.1 0.1,0.1 c 0.2,0.1 0.4,0.2 0.5,0.4 0.6,0.5 1,1.1 1.3,1.7 v 0 0 0 c -0.2,-0.7 -0.7,-1.2 -1.3,-1.7 z m -3.7,5.1 v 0 0 0 c 0,-0.1 0,-0.1 0,-0.2 0,0.1 0,0.2 0,0.2 z m 0.6,-10.5 c 0.1,0.1 0.2,0.2 0.3,0.3 0.1,0 0.1,0.1 0.2,0.1 -0.1,0 -0.1,-0.1 -0.2,-0.1 -0.2,-0.1 -0.3,-0.2 -0.3,-0.3 -0.1,-0.2 -0.1,-0.4 -0.1,-0.6 -0.1,0.2 0,0.4 0.1,0.6 z m -2.5,2.3 c 0.6,-0.3 1.3,-0.5 2,-0.7 0.7,-0.1 1.3,-0.2 2,-0.2 0.5,0 0.9,0.1 1.4,0.2 0.4,0.1 0.9,0.3 1.3,0.5 0.1,-0.2 0.1,-0.3 0.1,-0.5 0,-0.1 0,-0.3 0,-0.5 v 0 c 0,0.2 0,0.3 0,0.5 0,0.2 0,0.3 -0.1,0.5 -0.4,-0.2 -0.9,-0.4 -1.3,-0.5 -0.5,-0.1 -0.9,-0.2 -1.4,-0.2 -0.7,0 -1.3,0.1 -2,0.2 -0.7,0.2 -1.3,0.4 -2,0.7 -0.4,0.2 -0.7,0.3 -1,0.6 0.3,-0.3 0.7,-0.4 1,-0.6 z M 143,53.6 c 0.1,-0.4 0.1,-0.7 0.1,-1.1 0,0 0,0 0,0 0,0.4 0,0.8 -0.1,1.1 z m -2.5,-2.7 c 0.2,-0.3 0.5,-0.4 0.7,-0.5 0.1,0 0.3,-0.1 0.4,-0.1 -0.1,0 -0.3,0 -0.4,0.1 -0.2,0.1 -0.5,0.2 -0.7,0.5 -0.3,0.4 -0.5,0.9 -0.5,1.6 0,0 0,0 0,0 0,-0.7 0.3,-1.2 0.5,-1.6 z m -0.1,2.7 c 0,0 0,0 0,0 0,0 0,0 0,0 0.1,0.4 0.1,0.8 0.2,1.1 -0.1,-0.3 -0.2,-0.7 -0.2,-1.1 z M 135.3,50 c -0.5,-0.3 -1.1,-0.2 -1.7,-0.1 -0.2,0 -0.3,0.1 -0.5,0.2 -0.3,0.2 -0.6,0.4 -0.9,0.7 -0.2,0.3 -0.4,0.6 -0.5,1 -0.1,0.4 -0.2,0.8 -0.2,1.2 v 0 c 0,-0.4 0.1,-0.8 0.2,-1.2 0.1,-0.4 0.3,-0.7 0.5,-1 0.2,-0.3 0.5,-0.5 0.9,-0.7 0.2,-0.1 0.3,-0.1 0.5,-0.2 0.6,-0.1 1.2,-0.2 1.7,0.1 0.4,0.2 0.8,0.7 0.8,1.3 0,-0.6 -0.4,-1.1 -0.8,-1.3 z m 3.2,9.4 c -0.6,0.3 -1.3,0.5 -2,0.7 -0.7,0.1 -1.3,0.2 -2,0.2 -0.5,0 -0.9,-0.1 -1.4,-0.2 -0.5,-0.1 -0.9,-0.3 -1.3,-0.5 -0.1,0.2 -0.1,0.3 -0.1,0.5 0,0.1 0,0.3 0,0.5 v 0 c 0,-0.2 0,-0.3 0,-0.5 0,-0.2 0,-0.3 0.1,-0.5 0.4,0.2 0.9,0.4 1.3,0.5 0.4,0.1 0.9,0.2 1.4,0.2 0.7,0 1.3,-0.1 2,-0.2 0.7,-0.2 1.3,-0.5 2,-0.7 0.4,-0.2 0.7,-0.3 1,-0.6 -0.3,0.2 -0.7,0.4 -1,0.6 z m 2,0.5 c 0,0.4 -0.1,0.7 -0.1,1.1 0,0 0,0 0,0 0,-0.3 0.1,-0.7 0.1,-1.1 z m 2.2,2.8 c -0.2,0.3 -0.3,0.4 -0.6,0.5 -0.1,0 -0.2,0.1 -0.4,0.1 0.1,0 0.3,0 0.4,-0.1 0.3,-0.1 0.4,-0.3 0.6,-0.5 0.2,-0.4 0.3,-0.9 0.3,-1.6 0,0 0,0 0,0 0,0.7 -0.1,1.2 -0.3,1.6 z m 0.3,-2.8 c 0,0 0,0 0,0 0,0 0,0 0,0 -0.1,-0.4 -0.1,-0.8 -0.2,-1.1 0.1,0.3 0.2,0.8 0.2,1.1 z m 0.9,-0.9 v 0 -0.1 c 0.3,0.2 0.7,0.3 1,0.5 0.7,0.3 1.3,0.5 1.9,0.6 0.7,0.1 1.4,0.2 2,0.2 0.5,0 0.9,-0.1 1.4,-0.2 0.4,-0.1 0.9,-0.3 1.3,-0.5 h 0.1 v 0.1 c 0.1,0.2 0.1,0.3 0.1,0.5 0,0.1 0,0.3 0,0.5 0,-0.2 0,-0.3 0,-0.5 0,-0.2 0,-0.3 -0.1,-0.5 v -0.1 h -0.1 c -0.4,0.2 -0.9,0.4 -1.3,0.5 -0.4,0.1 -0.9,0.2 -1.4,0.2 -0.6,0 -1.3,-0.1 -2,-0.2 -0.7,-0.1 -1.3,-0.4 -1.9,-0.7 -0.3,-0.2 -0.7,-0.4 -1,-0.6 v 0.1 z m 7.8,1.9 c 0,0.3 0,0.6 -0.1,0.9 0.1,-0.4 0.1,-0.6 0.1,-0.9 z m -1,1.5 c 0.1,0 0.1,-0.1 0.2,-0.2 0.1,-0.1 0.3,-0.1 0.4,-0.2 0.2,-0.1 0.3,-0.3 0.2,-0.5 v 0 c 0.1,0.2 -0.1,0.4 -0.2,0.5 -0.1,0.1 -0.3,0.1 -0.4,0.2 0,0.1 -0.1,0.2 -0.2,0.2 0.1,0.1 0.2,0.2 0.4,0.2 -0.1,0 -0.3,-0.1 -0.4,-0.2 z m 0,0.3 c 0.2,0 0.4,0 0.5,-0.1 0,0 0,0 0,0 v 0 c 0,0 0,0 0,0 -0.1,0.1 -0.4,0.1 -0.5,0.1 -0.1,0 -0.5,0 -0.5,0.1 v 0 c 0,0 0.4,0 0.5,-0.1 z m -1.3,-0.1 c 0,0 0.1,0 0.1,0 0,0 0,0 -0.1,0 0,0 -0.2,0.1 -0.2,0.1 0.1,0 0.2,-0.1 0.2,-0.1 z"
         style="fill:#000000;fill-opacity:1" />
    </g>
  </g>
</svg>
