<?xml version="1.0" encoding="UTF-8" standalone="no"?>
<!-- Generator: Adobe Illustrator 19.0.0, SVG Export Plug-In . SVG Version: 6.00 Build 0)  -->

<svg
   version="1.1"
   id="Layer_1"
   x="0px"
   y="0px"
   viewBox="0 0 243.10001 357.77217"
   xml:space="preserve"
   sodipodi:docname="backside.svg"
   width="1"
   height="1.487"
   inkscape:version="1.3.2 (091e20e, 2023-11-25, custom)"
   xmlns:inkscape="http://www.inkscape.org/namespaces/inkscape"
   xmlns:sodipodi="http://sodipodi.sourceforge.net/DTD/sodipodi-0.dtd"
   xmlns:xlink="http://www.w3.org/1999/xlink"
   xmlns="http://www.w3.org/2000/svg"
   xmlns:svg="http://www.w3.org/2000/svg"><defs
   id="defs32"><pattern
     inkscape:collect="always"
     xlink:href="#Diamond_Harlequin_Color"
     id="pattern32"
     patternTransform="matrix(0.99999991,0,0,1.001634,-19.000004,-30.60567)" /></defs><sodipodi:namedview
   id="namedview32"
   pagecolor="#ffffff"
   bordercolor="#999999"
   borderopacity="1"
   inkscape:showpageshadow="2"
   inkscape:pageopacity="0"
   inkscape:pagecheckerboard="true"
   inkscape:deskcolor="#d1d1d1"
   inkscape:zoom="256"
   inkscape:cx="0.80664062"
   inkscape:cy="1.1347656"
   inkscape:window-width="2560"
   inkscape:window-height="1369"
   inkscape:window-x="-8"
   inkscape:window-y="-8"
   inkscape:window-maximized="1"
   inkscape:current-layer="Layer_1" />
<style
   type="text/css"
   id="style1">
	.st0{fill:none;}
	.st1{fill:#867B6C;}
	.st2{fill:#966B55;}
	.st3{fill:#623C25;}
	.st4{fill:#95171A;}
	.st5{fill:url(#Diamond_Harlequin_Color);stroke:#231F20;stroke-miterlimit:10;}
</style>
<pattern
   y="70.9"
   width="60.3"
   height="68.2"
   patternUnits="userSpaceOnUse"
   id="Diamond_Harlequin_Color"
   viewBox="10.1 -85.3 60.3 68.2"
   style="overflow:visible">
	<g
   id="g32">
		<polygon
   class="st0"
   points="10.1,-85.3 70.4,-85.3 70.4,-17.1 10.1,-17.1   "
   id="polygon1" />
		<g
   id="g2">
			<polygon
   class="st1"
   points="80.4,-17.1 70.4,-34.1 60.3,-17.1 70.4,0    "
   id="polygon2" />
		</g>
		<g
   id="g6">
			<polygon
   class="st1"
   points="80.4,-17.1 70.4,-34.1 60.3,-17.1 70.4,0    "
   id="polygon3" />
			<polygon
   class="st2"
   points="60.3,-17.1 50.3,-34.1 40.2,-17.1 50.3,0    "
   id="polygon4" />
			<polygon
   class="st3"
   points="40.2,-17.1 30.2,-34.1 20.1,-17.1 30.2,0    "
   id="polygon5" />
			<polygon
   class="st1"
   points="20.1,-17.1 10.1,-34.1 0,-17.1 10.1,0    "
   id="polygon6" />
		</g>
		<g
   id="g7">
			<polygon
   class="st1"
   points="20.1,-17.1 10.1,-34.1 0,-17.1 10.1,0    "
   id="polygon7" />
		</g>
		<g
   id="g10">
			<polygon
   class="st1"
   points="80.4,-17.1 70.4,-34.1 60.3,-17.1 70.4,0    "
   id="polygon8" />
			<polygon
   class="st4"
   points="80.4,-51.2 70.4,-68.2 60.3,-51.2 70.4,-34.1    "
   id="polygon9" />
			<polygon
   class="st1"
   points="80.4,-85.3 70.4,-102.4 60.3,-85.3 70.4,-68.2    "
   id="polygon10" />
		</g>
		<g
   id="g22">
			<polygon
   class="st1"
   points="80.4,-17.1 70.4,-34.1 60.3,-17.1 70.4,0    "
   id="polygon11" />
			<polygon
   class="st2"
   points="60.3,-17.1 50.3,-34.1 40.2,-17.1 50.3,0    "
   id="polygon12" />
			<polygon
   class="st3"
   points="40.2,-17.1 30.2,-34.1 20.1,-17.1 30.2,0    "
   id="polygon13" />
			<polygon
   class="st1"
   points="20.1,-17.1 10.1,-34.1 0,-17.1 10.1,0    "
   id="polygon14" />
			<polygon
   class="st4"
   points="80.4,-51.2 70.4,-68.2 60.3,-51.2 70.4,-34.1    "
   id="polygon15" />
			<polygon
   class="st3"
   points="60.3,-51.2 50.3,-68.2 40.2,-51.2 50.3,-34.1    "
   id="polygon16" />
			<polygon
   class="st2"
   points="40.2,-51.2 30.2,-68.2 20.1,-51.2 30.2,-34.1    "
   id="polygon17" />
			<polygon
   class="st4"
   points="20.1,-51.2 10.1,-68.2 0,-51.2 10.1,-34.1    "
   id="polygon18" />
			<polygon
   class="st1"
   points="80.4,-85.3 70.4,-102.4 60.3,-85.3 70.4,-68.2    "
   id="polygon19" />
			<polygon
   class="st2"
   points="60.3,-85.3 50.3,-102.4 40.2,-85.3 50.3,-68.2    "
   id="polygon20" />
			<polygon
   class="st3"
   points="40.2,-85.3 30.2,-102.4 20.1,-85.3 30.2,-68.2    "
   id="polygon21" />
			<polygon
   class="st1"
   points="20.1,-85.3 10.1,-102.4 0,-85.3 10.1,-68.2    "
   id="polygon22" />
		</g>
		<g
   id="g25">
			<polygon
   class="st1"
   points="20.1,-17.1 10.1,-34.1 0,-17.1 10.1,0    "
   id="polygon23" />
			<polygon
   class="st4"
   points="20.1,-51.2 10.1,-68.2 0,-51.2 10.1,-34.1    "
   id="polygon24" />
			<polygon
   class="st1"
   points="20.1,-85.3 10.1,-102.4 0,-85.3 10.1,-68.2    "
   id="polygon25" />
		</g>
		<g
   id="g26">
			<polygon
   class="st1"
   points="80.4,-85.3 70.4,-102.4 60.3,-85.3 70.4,-68.2    "
   id="polygon26" />
		</g>
		<g
   id="g30">
			<polygon
   class="st1"
   points="80.4,-85.3 70.4,-102.4 60.3,-85.3 70.4,-68.2    "
   id="polygon27" />
			<polygon
   class="st2"
   points="60.3,-85.3 50.3,-102.4 40.2,-85.3 50.3,-68.2    "
   id="polygon28" />
			<polygon
   class="st3"
   points="40.2,-85.3 30.2,-102.4 20.1,-85.3 30.2,-68.2    "
   id="polygon29" />
			<polygon
   class="st1"
   points="20.1,-85.3 10.1,-102.4 0,-85.3 10.1,-68.2    "
   id="polygon30" />
		</g>
		<g
   id="g31">
			<polygon
   class="st1"
   points="20.1,-85.3 10.1,-102.4 0,-85.3 10.1,-68.2    "
   id="polygon31" />
		</g>
	</g>
</pattern>
<rect
   style="display:inline;fill:#f6931e;stroke-width:0.941146"
   id="rect32"
   width="243.10001"
   height="361.48969"
   x="0"
   y="-1.8587711" /><path
   id="XMLID_1_"
   class="st5"
   d="m 243.10001,-1.8587707 c 0,0 0,361.4897107 0,361.4897107 H 0 V -1.8587707 Z"
   style="display:inline;fill:url(#pattern32);stroke-width:0;stroke-dasharray:none"
   inkscape:label="XMLID_1_"
   sodipodi:nodetypes="ccccc" />


</svg>
