<?xml version="1.0" encoding="UTF-8" standalone="no"?>
<!-- Generator: Adobe Illustrator 19.0.0, SVG Export Plug-In . SVG Version: 6.00 Build 0)  -->

<svg
   version="1.1"
   id="Layer_1"
   x="0px"
   y="0px"
   viewBox="0 0 242.10001 359.89998"
   xml:space="preserve"
   sodipodi:docname="mov5.svg"
   width="242.10001"
   height="359.89999"
   inkscape:version="1.3.2 (091e20e, 2023-11-25, custom)"
   xmlns:inkscape="http://www.inkscape.org/namespaces/inkscape"
   xmlns:sodipodi="http://sodipodi.sourceforge.net/DTD/sodipodi-0.dtd"
   xmlns="http://www.w3.org/2000/svg"
   xmlns:svg="http://www.w3.org/2000/svg"><defs
   id="defs1" /><sodipodi:namedview
   id="namedview1"
   pagecolor="#ffffff"
   bordercolor="#999999"
   borderopacity="1"
   inkscape:showpageshadow="2"
   inkscape:pageopacity="0"
   inkscape:pagecheckerboard="0"
   inkscape:deskcolor="#d1d1d1"
   inkscape:zoom="1.930856"
   inkscape:cx="120.93082"
   inkscape:cy="183.59733"
   inkscape:window-width="1920"
   inkscape:window-height="1017"
   inkscape:window-x="-8"
   inkscape:window-y="-8"
   inkscape:window-maximized="1"
   inkscape:current-layer="Layer_1" />
<style
   type="text/css"
   id="style1">
	.st0{fill:#F6931E;}
	.st1{fill:#BBBBBB;stroke:#231F20;stroke-width:1.2533;stroke-miterlimit:10;}
	.st2{fill:#E5E6E7;stroke:#231F20;stroke-width:1.5903;stroke-miterlimit:10;}
	.st3{fill:#231F20;}
	.st4{fill:none;stroke:#231F20;stroke-miterlimit:10;}
	.st5{fill:#231F20;stroke:#FFF100;stroke-miterlimit:10;}
	.st6{fill:#FFF100;stroke:#FFF100;stroke-miterlimit:10;}
</style>
<path
   id="XMLID_1_"
   class="st0"
   d="M 228.4,0 H 13.7 C 6.1,0 0,6.1 0,13.7 v 332.5 c 0,7.6 6.1,13.7 13.7,13.7 h 214.7 c 7.6,0 13.7,-6.1 13.7,-13.7 V 13.7 C 242.1,6.1 236,0 228.4,0 Z" />
<path
   id="XMLID_5_"
   class="st1"
   d="m 208.5,83.3 h -175 c -6.4,0 -11.7,5.3 -11.7,11.7 v 175 c 0,6.4 5.3,11.7 11.7,11.7 h 175 c 6.4,0 11.7,-5.3 11.7,-11.7 V 95 c 0,-6.4 -5.2,-11.7 -11.7,-11.7 z" />
<path
   id="XMLID_4_"
   class="st2"
   d="M 205.4,19.2 H 36.7 c -8.2,0 -14.9,6.7 -14.9,14.9 v 289.7 c 0,8.2 6.7,14.9 14.9,14.9 h 168.7 c 8.2,0 14.9,-6.7 14.9,-14.9 V 34 c -0.1,-8.1 -6.7,-14.8 -14.9,-14.8 z" />
<path
   id="XMLID_28_"
   class="st3"
   d="m 84.8,211.8 h 18.5 c 6.6,0 12,5.4 12,12 v 18.5 c 0,6.6 -5.4,12 -12,12 H 84.8 c -6.6,0 -12,-5.4 -12,-12 v -18.5 c 0,-6.6 5.4,-12 12,-12 z" />
<path
   id="XMLID_30_"
   class="st4"
   d="m 138.8,161.3 h 18.5 c 6.6,0 12,5.4 12,12 v 18.5 c 0,6.6 -5.4,12 -12,12 h -18.5 c -6.6,0 -12,-5.4 -12,-12 v -18.5 c 0,-6.6 5.4,-12 12,-12 z" />
<path
   id="XMLID_440_"
   class="st4"
   d="m 138.8,211.3 h 18.5 c 6.6,0 12,5.4 12,12 v 18.5 c 0,6.6 -5.4,12 -12,12 h -18.5 c -6.6,0 -12,-5.4 -12,-12 v -18.5 c 0,-6.6 5.4,-12 12,-12 z" />
<path
   id="XMLID_32_"
   class="st3"
   d="m 138.4,112.5 h 18.5 c 6.6,0 12,5.4 12,12 V 143 c 0,6.6 -5.4,12 -12,12 h -18.5 c -6.6,0 -12,-5.4 -12,-12 v -18.5 c 0,-6.6 5.4,-12 12,-12 z" />


<g
   id="XMLID_219_"
   transform="translate(-20.7,-29.2)">
	<path
   id="XMLID_291_"
   class="st0"
   d="m 126,348.8 c -2.2,0 -4.4,0 -6.5,0 -4.3,0 -8.4,0.1 -12.3,0.1 -3.9,0 -7.6,0.1 -11,0.2 -1.7,0 -3.3,0.1 -4.9,0.1 -1.6,0 -3,0.1 -4.4,0.1 -2.8,0.1 -5.2,0.1 -7.2,0.2 -2,0 -2,0.3 0,0.4 2,0 4.4,0.1 7.2,0.2 1.4,0 2.9,0.1 4.4,0.1 1.6,0 3.2,0.1 4.9,0.1 3.4,0.1 7.1,0.1 11,0.2 3.9,0 8,0.1 12.3,0.1 2.1,0 4.3,0 6.5,0 0.9,0 1.9,0 2.9,0 -0.1,-0.1 -0.4,-0.5 -0.4,-0.9 0,-0.4 0.3,-0.7 0.4,-0.9 -1,0 -2,0 -2.9,0 z" />
	<path
   id="XMLID_290_"
   class="st0"
   d="m 203.5,349.5 c -2,-0.1 -4.4,-0.1 -7.2,-0.2 -1.4,0 -2.9,-0.1 -4.4,-0.1 -1.6,0 -3.2,-0.1 -4.9,-0.1 -3.4,-0.1 -7.1,-0.1 -11,-0.2 -3.9,0 -8,-0.1 -12.3,-0.1 -2.1,0 -4.3,0 -6.5,0 -0.9,0 -1.9,0 -2.9,0 0.1,0.1 0.4,0.5 0.4,0.9 0,0.4 -0.3,0.7 -0.4,0.9 1,0 1.9,0 2.9,0 2.2,0 4.4,0 6.5,0 4.3,0 8.4,-0.1 12.3,-0.1 3.9,0 7.6,-0.1 11,-0.2 1.7,0 3.3,-0.1 4.9,-0.1 1.6,0 3,-0.1 4.4,-0.1 2.8,-0.1 5.2,-0.1 7.2,-0.2 2,-0.1 2,-0.4 0,-0.4 z" />
	<path
   id="XMLID_220_"
   class="st0"
   d="m 154.1,349.6 c -0.2,-0.5 -0.4,-1 -0.8,-1.4 -0.3,-0.4 -0.8,-0.8 -1.2,-1.1 0.1,-0.2 0.1,-0.4 0.1,-0.6 0,-0.2 0,-0.4 0,-0.6 0,-1.1 -0.3,-2 -0.9,-2.6 -0.6,-0.6 -1.3,-0.9 -2.1,-0.9 -0.3,0 -0.6,0 -0.9,0 -0.7,0.1 -1.2,0.6 -1.5,1.2 -0.1,0.4 -0.1,0.7 0,1.1 0.1,0.2 0.3,0.6 0.8,0.8 0.3,0.1 0.7,0.1 1,0 0.2,-0.1 0.6,-0.3 0.7,-0.8 0,-0.2 -0.1,-0.5 -0.3,-0.7 -0.2,-0.2 -0.4,-0.3 -0.7,-0.2 -0.2,0.1 -0.5,0.3 -0.4,0.6 0,0.2 0.2,0.3 0.3,0.3 0.1,0 0.2,0 0.2,-0.1 0,0 0,-0.1 0,-0.1 0,0 -0.1,-0.1 -0.1,-0.1 0,0 -0.1,0 -0.1,0.1 0,0 0,0 0,0 0,0 0,0 -0.1,0 0,-0.1 0,-0.1 0,-0.2 0.1,-0.1 0.3,-0.2 0.4,-0.1 0.2,0.1 0.3,0.3 0.3,0.6 0,0.1 -0.1,0.3 -0.2,0.3 -0.1,0.1 -0.3,0.2 -0.4,0.2 -0.4,0 -0.8,-0.2 -0.9,-0.5 -0.2,-0.4 -0.1,-0.7 -0.1,-0.9 0.1,-0.4 0.4,-0.7 0.7,-0.9 0.3,-0.1 0.6,-0.2 0.9,-0.2 0.3,0 0.6,0.1 0.9,0.1 0.1,0 0.3,0.1 0.4,0.1 0.3,0.2 0.6,0.4 0.8,0.7 0.2,0.3 0.4,0.6 0.5,1 0.1,0.4 0.1,0.8 0.1,1.2 0,0.2 0,0.3 0,0.5 0,0.1 0,0.3 -0.1,0.4 -0.4,-0.2 -0.8,-0.3 -1.2,-0.4 -0.4,-0.1 -0.9,-0.2 -1.4,-0.2 -0.6,0 -1.3,0.1 -2,0.2 -0.7,0.1 -1.3,0.4 -2,0.7 -0.3,0.2 -0.7,0.5 -1,0.7 -0.2,0 -0.4,0.1 -0.6,0.1 h -0.4 c 0.1,0 0.1,-0.8 0.2,-1.2 0.1,-0.4 0.1,-0.8 0.1,-1.3 0,-0.7 -0.1,-1.2 -0.4,-1.6 -0.2,-0.3 -0.4,-0.5 -0.7,-0.6 -0.1,0 -0.3,-0.1 -0.4,-0.1 -0.2,0 -0.3,0 -0.4,0.1 -0.3,0.1 -0.5,0.3 -0.7,0.6 -0.3,0.4 -0.4,1 -0.4,1.6 0,0.4 0,0.9 0.1,1.3 0.1,0.4 0.1,1.2 0.2,1.2 H 140 c -0.2,0 -0.4,-0.1 -0.6,-0.1 -0.3,-0.2 -0.7,-0.5 -1,-0.6 -0.7,-0.3 -1.3,-0.6 -2,-0.7 -0.7,-0.1 -1.4,-0.2 -2,-0.2 -0.5,0 -1,0 -1.4,0.2 -0.4,0.1 -0.8,0.2 -1.3,0.4 0,-0.1 -0.1,-0.3 -0.1,-0.4 0,-0.1 0,-0.3 0,-0.5 0,-0.4 0,-0.8 0.1,-1.2 0.1,-0.4 0.2,-0.7 0.4,-1 0.2,-0.3 0.5,-0.5 0.8,-0.7 0.1,-0.1 0.3,-0.1 0.5,-0.2 0.3,0 0.5,-0.1 0.7,-0.1 0.3,0 0.6,0.1 0.9,0.2 0.3,0.2 0.6,0.5 0.7,0.9 0.1,0.2 0.1,0.6 -0.1,0.9 -0.1,0.3 -0.5,0.5 -0.9,0.5 -0.2,0 -0.4,-0.1 -0.4,-0.2 -0.1,-0.1 -0.2,-0.2 -0.2,-0.3 0,-0.2 0.1,-0.5 0.3,-0.6 0.1,0 0.3,0 0.4,0.1 0,0.1 0,0.1 0,0.2 0,0 0,0 -0.1,0 0,0 0,0 0,0 0,0 -0.1,-0.1 -0.1,-0.1 0,0 -0.1,0 -0.1,0.1 0,0 0,0.1 0,0.1 0,0.1 0.1,0.1 0.2,0.1 0.1,0 0.3,-0.1 0.3,-0.3 0.1,-0.3 -0.2,-0.5 -0.4,-0.6 -0.3,-0.1 -0.5,0 -0.7,0.2 -0.2,0.2 -0.3,0.5 -0.3,0.7 0.1,0.5 0.4,0.7 0.7,0.8 0.3,0.1 0.7,0.1 1,0 0.5,-0.2 0.7,-0.6 0.8,-0.8 0.1,-0.3 0.1,-0.7 0,-1.1 -0.2,-0.6 -0.8,-1.1 -1.5,-1.2 -0.3,-0.1 -0.6,-0.1 -0.8,0 -0.8,0.1 -1.5,0.4 -2.1,1 -0.6,0.6 -0.9,1.5 -0.9,2.6 0,0.2 0,0.4 0,0.6 0,0.2 0.1,0.4 0.1,0.6 -0.5,0.3 -0.9,0.7 -1.2,1.1 -0.4,0.5 -0.6,0.9 -0.8,1.4 v 0 c 0,0 0,0 0,0 0,0 0,0 0,0.1 v 0 c 0.1,0.5 0.4,1 0.8,1.4 0.3,0.4 0.8,0.8 1.2,1.1 -0.1,0.2 -0.1,0.4 -0.1,0.6 0,0.2 0,0.4 0,0.6 0,1.1 0.3,2 0.9,2.6 0.1,0.1 0.2,0.2 0.3,0.2 l 0.1,0.1 v 0 l 0.3,0.2 c 0.2,0.1 0.3,0.2 0.5,0.3 h -0.1 l 0.2,0.1 v 0 l 0.2,0.1 c 0,0 0,0 0,0 v 0 0 h 0.2 c 0,0 0,0 0,0 h 0.1 v 0 c 0.2,0 0.3,0.1 0.5,0.1 0.2,0 0.3,0 0.3,0 l -0.1,0.1 0.5,-0.2 c 0,0 0,0 0,0 v 0 c 1.3,-0.5 1.5,-1.5 1.5,-1.6 v 0 0 c 0,-0.3 0,-0.6 -0.2,-0.9 -0.2,-0.2 -0.5,-0.5 -0.9,-0.5 -0.1,0 -0.3,0.1 -0.4,0.3 0,0.1 0,0.2 0,0.2 0,0.1 0.1,0.1 0.2,0 v 0 0 c 0,-0.1 0.1,-0.2 0.2,-0.2 0,0 0.1,0 0.1,0.1 0,0.1 0,0.3 -0.1,0.3 -0.1,0.1 -0.2,0.1 -0.3,0.2 -0.1,0.1 -0.2,0.1 -0.3,0.2 -0.2,0.2 -0.3,0.4 -0.2,0.7 -0.1,0 -0.2,0.1 -0.3,0.3 0,-0.1 0.1,-0.3 0,-0.4 0,-0.1 -0.1,-0.2 -0.3,-0.2 0,0 -0.1,0 -0.1,0 0,0 -0.1,0 -0.1,0.1 0,0 0,0 0,0 0,0 0,0 0,0 -0.1,0 -0.1,0 -0.1,0 -0.3,0 -0.5,0.1 -0.8,0.2 -0.1,-0.1 -0.2,-0.1 -0.4,-0.1 v 0 c -0.1,0 -0.1,0 -0.2,0 0.1,0 0.2,-0.1 0.2,-0.2 l 0.1,-0.1 h -0.1 c -0.1,0 -0.1,-0.1 -0.1,-0.1 0,0 -0.1,-0.1 -0.1,-0.1 -0.1,-0.1 -0.2,-0.1 -0.2,-0.2 -0.1,0 -0.1,0 -0.1,-0.1 -0.1,0 -0.1,-0.1 -0.1,-0.1 0,0 0,0 0,0 0,0 0,0 0,0 0,-0.1 0,-0.1 0,-0.2 l 0.1,-0.1 h -0.1 c 0,-0.3 -0.1,-0.6 -0.1,-0.8 0,-0.2 0,-0.3 0,-0.5 0,-0.1 0,-0.3 0.1,-0.4 0.4,0.2 0.8,0.3 1.3,0.4 0.4,0.1 0.9,0.2 1.4,0.2 0.6,0 1.3,-0.1 2,-0.2 0.7,-0.1 1.3,-0.4 2,-0.7 0.3,-0.2 0.7,-0.3 1,-0.5 0.2,0 0.4,0.1 0.6,0.1 v 0 0 h 0.4 c -0.1,0 -0.2,0.5 -0.2,1 0,0.4 -0.1,0.8 -0.1,1.2 0,0.7 0.1,1.2 0.4,1.6 0.2,0.3 0.4,0.5 0.7,0.6 0.1,0 0.3,0.1 0.4,0.1 0.2,0 0.3,0 0.4,-0.1 0.3,-0.1 0.5,-0.3 0.7,-0.6 0.3,-0.4 0.4,-0.9 0.4,-1.6 0,-0.5 0,-0.8 -0.1,-1.1 -0.1,-0.4 -0.1,-1 -0.2,-1 h 0.4 v 0 0 0 c 0.2,0 0.4,-0.1 0.6,-0.1 v 0 c -0.2,0 -0.4,0 -0.6,0 0.2,0 0.4,0 0.6,0 0.3,0.2 0.7,0.4 1,0.6 0.7,0.3 1.3,0.5 2,0.7 0.7,0.1 1.4,0.2 2,0.2 0.5,0 1,-0.1 1.4,-0.2 0.4,-0.1 0.8,-0.3 1.2,-0.4 0,0.1 0.1,0.3 0.1,0.4 0,0.1 0,0.3 0,0.5 0,0.3 0,0.6 -0.1,0.9 h -0.2 l 0.1,0.1 c 0.1,0.2 -0.1,0.3 -0.2,0.4 0,0 -0.1,0.1 -0.1,0.1 -0.1,0 -0.2,0.1 -0.2,0.2 0,0 -0.1,0.1 -0.1,0.1 0,0 -0.1,0.1 -0.1,0.1 h -0.1 l 0.1,0.1 c 0.1,0.1 0.2,0.1 0.2,0.2 -0.1,0 -0.1,0 -0.2,0 v 0 c -0.2,0 -0.4,0.1 -0.4,0.1 -0.3,-0.2 -0.6,-0.3 -0.8,-0.2 0,0 -0.1,0 -0.1,0 0,0 0,0 0,0 0,0 0,0 0,0 0,-0.1 -0.1,-0.1 -0.1,-0.1 0,0 -0.1,0 -0.1,0 -0.1,0 -0.2,0.1 -0.3,0.2 0,0.1 0,0.3 0,0.4 -0.1,-0.1 -0.2,-0.2 -0.3,-0.3 0,-0.2 0,-0.5 -0.2,-0.7 -0.1,-0.1 -0.2,-0.1 -0.3,-0.2 -0.1,-0.1 -0.2,-0.1 -0.3,-0.2 -0.1,-0.1 -0.1,-0.2 -0.1,-0.3 0,0 0,-0.1 0.1,-0.1 0.1,0 0.1,0.1 0.2,0.2 v 0 0 c 0.1,0 0.2,0 0.2,0 0,-0.1 0,-0.1 0,-0.2 -0.1,-0.1 -0.3,-0.3 -0.4,-0.3 -0.4,0 -0.7,0.2 -0.9,0.5 -0.2,0.3 -0.2,0.6 -0.2,0.9 v 0 0 c 0,0 0.2,1.1 1.5,1.6 v 0 c 0,0 0,0 0,0 l 0.6,0.2 -0.1,-0.1 c 0.1,0 0.4,0 0.5,0 0.2,0 0.8,0 0.8,-0.1 v 0 l -0.4,-0.1 v 0 h 0.2 v 0 0 c 0,0 0,0 0,0 v 0 0 0 c 0,0 0,0 0,0 l 0.2,-0.1 v 0 c 0.2,0 0.4,-0.2 0.5,-0.3 l 0.1,-0.1 c 0.2,-0.1 0.4,-0.3 0.5,-0.4 0.6,-0.6 0.9,-1.5 0.9,-2.6 0,-0.2 0,-0.4 0,-0.6 0,-0.2 -0.1,-0.4 -0.1,-0.6 0.5,-0.3 0.9,-0.7 1.2,-1.1 0.4,-0.4 0.6,-0.9 0.8,-1.4 v 0 c 0.4,-0.5 0.4,-0.5 0.4,-0.6 z m -4.5,7.3 c -0.2,0 -0.4,0.1 -0.5,0.1 -0.2,0 -0.3,0 -0.3,0 -0.1,0 -0.3,-0.1 -0.4,-0.1 v 0 0 c -1.2,-0.4 -1.4,-1.3 -1.4,-1.4 v 0 c 0,0.1 0.3,1 1.4,1.4 v 0 0 c 0.1,0 0.3,0.1 0.4,0.1 0,0 0.1,0 0.3,0 0.1,-0.1 0.3,-0.1 0.5,-0.1 v 0 0 z m -17.8,-2.5 c 0,0 0,0 0,0 v 0 z m 10.9,-10.6 c 0.2,0.4 0.4,0.9 0.4,1.5 v 0 c 0,-0.6 -0.2,-1.1 -0.4,-1.5 -0.2,-0.3 -0.4,-0.4 -0.6,-0.5 -0.1,0 -0.2,-0.1 -0.4,-0.1 0.1,0 0.3,0 0.4,0.1 0.2,0.1 0.4,0.3 0.6,0.5 z m -3,7.6 v 0 l 0.2,-0.1 c 0,0 0.1,-0.1 0.1,-0.1 0,0 -0.1,0.1 -0.1,0.1 z m 4,-3.6 v 0 l -0.2,0.1 c 0,0 -0.1,0.1 -0.1,0.1 0,0 0.1,-0.1 0.1,-0.1 z m -0.8,6.1 c 0,0.7 -0.1,1.2 -0.4,1.5 -0.1,0.2 -0.3,0.3 -0.4,0.4 -0.1,0.1 -0.3,0.1 -0.4,0.1 -0.1,0 -0.3,0 -0.4,-0.1 -0.2,-0.1 -0.3,-0.2 -0.4,-0.4 -0.3,-0.3 -0.4,-0.8 -0.4,-1.5 v 0 c 0,0.7 0.1,1.2 0.4,1.5 0.1,0.2 0.3,0.3 0.4,0.4 0.1,0.1 0.3,0.1 0.4,0.1 0.1,0 0.3,0 0.4,-0.1 0.2,-0.1 0.3,-0.2 0.4,-0.4 0.3,-0.3 0.4,-0.8 0.4,-1.5 z m 5.7,-5.2 c -0.8,-0.4 -1.6,-0.6 -2.5,-0.8 -0.4,-0.1 -0.9,-0.2 -1.3,-0.2 0,0 0,0 0,0 1.2,-0.6 2.5,-0.9 4.2,-0.9 0.8,0 1.6,0.2 2.5,0.5 -0.3,0.6 -0.7,1.2 -1.3,1.7 -0.1,0.1 -0.3,0.3 -0.5,0.4 -0.4,-0.3 -0.7,-0.5 -1.1,-0.7 z m -7.7,-4.7 c 0.2,-0.2 0.3,-0.3 0.4,-0.3 0.2,-0.1 0.5,-0.1 0.7,0 0.1,0.1 0.3,0.2 0.4,0.3 0.3,0.3 0.4,0.8 0.4,1.4 0,0.4 0,0.7 -0.1,1.1 -0.1,0.3 -0.2,0.7 -0.3,1 -0.1,0 -0.2,0 -0.4,0 -0.1,0 -0.3,0 -0.4,0 v 0 c -0.1,0 -0.2,0 -0.3,0 0,0 0,0 0,0 0,0 0,0 0,0 -0.1,0 -0.2,0 -0.3,0 -0.1,-0.4 -0.2,-0.7 -0.3,-1 -0.1,-0.4 -0.1,-0.7 -0.1,-1.1 -0.1,-0.6 0.1,-1.1 0.3,-1.4 z m 0.7,3.7 v 0 c 0.2,0 0.3,0 0.4,0 -0.1,0 -0.2,0 -0.4,0 v 0 z m 0.1,3.6 c -0.1,0 -0.3,0 -0.4,0 -0.1,0 -0.1,0 -0.2,0 0.1,-0.2 0.1,-0.3 0.2,-0.5 0.1,-0.2 0.2,-0.4 0.3,-0.5 0.1,0.2 0.2,0.3 0.3,0.5 0.1,0.2 0.2,0.3 0.2,0.5 v 0 c 0,0 -0.1,0 -0.1,0 0,0 -0.2,0 -0.3,0 z m -0.7,-0.7 c -0.1,0.2 -0.2,0.4 -0.3,0.6 -0.1,0 -0.2,0 -0.3,-0.1 0.2,-0.2 0.4,-0.3 0.6,-0.5 z m 0.3,-1 v 0 0 c -0.4,0.5 -0.9,1 -1.4,1.4 -1.2,-0.3 -2.4,-0.7 -3.5,-1.3 1.1,-0.6 2.2,-1.1 3.5,-1.3 0.5,0.3 1,0.7 1.4,1.2 z m 0.4,-1.6 c 0.1,0 0.3,0 0.4,0 0.1,0 0.1,0 0.1,0 v 0 c -0.1,0.2 -0.1,0.3 -0.2,0.5 -0.1,0.2 -0.2,0.4 -0.3,0.5 -0.1,-0.2 -0.2,-0.3 -0.3,-0.5 -0.1,-0.1 -0.1,-0.3 -0.2,-0.5 0,0 0.1,0 0.2,0 0,0 0.2,0 0.3,0 z m 0.7,0.7 c 0.1,-0.2 0.2,-0.3 0.2,-0.5 0.1,0 0.2,0 0.3,0.1 -0.1,0 -0.3,0.2 -0.5,0.4 z m 0.6,2.4 c -0.1,0 -0.2,0 -0.3,0.1 -0.1,-0.2 -0.1,-0.4 -0.2,-0.5 0.1,0.1 0.3,0.3 0.5,0.4 z m -2.6,-2.9 c 0.1,0 0.2,0 0.3,-0.1 0.1,0.2 0.2,0.4 0.3,0.6 -0.2,-0.2 -0.4,-0.3 -0.6,-0.5 z m 1.8,1.5 v 0 0 c 0.4,-0.5 0.9,-1 1.4,-1.4 1.2,0.3 2.4,0.7 3.5,1.3 -1.1,0.6 -2.2,1.1 -3.5,1.3 -0.6,-0.3 -1,-0.7 -1.4,-1.2 z m -0.6,1.8 v 0 0 c -0.1,0 -0.2,0 -0.3,0 0,0 0,0 0,0 0,0 0,0 0,0 0.1,0.1 0.2,0.1 0.3,0 z m -1,1.3 c 0.1,-0.3 0.2,-0.7 0.3,-1 0.1,0 0.2,0 0.3,0 0,0 0,0 0,0 0.1,0 0.2,0 0.3,0 v 0 c 0.1,0 0.3,0 0.4,0 0.1,0 0.3,0 0.4,0 0.1,0.4 0.2,0.7 0.3,1 0.1,0.3 0.1,0.7 0.1,1.1 0,0.7 -0.1,1.2 -0.4,1.5 -0.1,0.2 -0.3,0.3 -0.4,0.3 -0.3,0.1 -0.5,0.1 -0.7,0 -0.1,-0.1 -0.3,-0.2 -0.4,-0.3 -0.2,-0.3 -0.4,-0.8 -0.4,-1.5 0.1,-0.4 0.2,-0.7 0.2,-1.1 z m 2.2,0 c -0.1,-0.4 -0.2,-0.8 -0.3,-1.1 0.2,0.3 0.3,0.7 0.3,1.1 0.1,0.3 0.1,0.7 0.1,1.1 0,-0.4 0,-0.8 -0.1,-1.1 z m -0.3,-5.2 c 0.1,-0.4 0.3,-0.7 0.3,-1.1 0.1,-0.4 0.1,-0.7 0.1,-1.1 0,0 0,0 0,0 0,0.4 -0.1,0.7 -0.1,1.1 0,0.4 -0.1,0.7 -0.3,1.1 z m -2,-2.2 c 0,0 0,0.1 0,0.1 z m 0.8,2.3 c 0,0 0,0 0,0 0,0 0,0 0,0 -0.1,0 -0.3,0 -0.4,0 0.1,0 0.2,0 0.4,0 z m -1.3,0.4 v 0 0 c -0.1,0 -0.1,0 -0.1,-0.1 0,0 0,0 0.1,0.1 v 0 0 c 0.1,0 0.3,-0.1 0.5,-0.1 -0.2,0 -0.3,0 -0.5,0.1 z m -6.7,2.3 c 0.1,-0.1 0.3,-0.3 0.5,-0.4 0.3,0.2 0.7,0.4 1.1,0.6 0.8,0.4 1.6,0.6 2.5,0.8 0.4,0.1 0.9,0.2 1.4,0.2 0,0 0,0 0,0 -1.2,0.6 -2.6,0.9 -4.2,0.9 -0.8,0 -1.6,-0.2 -2.5,-0.5 0.2,-0.5 0.6,-1.1 1.2,-1.6 z m 4.1,-2.5 c -0.9,0.2 -1.7,0.5 -2.5,0.8 -0.4,0.2 -0.8,0.4 -1.1,0.6 -0.2,-0.1 -0.3,-0.2 -0.5,-0.4 -0.6,-0.5 -1,-1.1 -1.3,-1.7 0.8,-0.3 1.7,-0.5 2.5,-0.5 1.6,0 3,0.3 4.2,0.9 0,0 0,0 0,0 -0.4,0.1 -0.9,0.2 -1.3,0.3 z m 0.4,3.2 c -0.9,-0.2 -1.7,-0.5 -2.5,-0.8 -0.4,-0.2 -0.7,-0.4 -1.1,-0.6 0.3,-0.2 0.7,-0.4 1.1,-0.6 0.8,-0.4 1.6,-0.6 2.5,-0.8 0.5,-0.1 1.1,-0.2 1.6,-0.2 0,0 0.1,0 0.1,0.1 -0.6,0.2 -1.1,0.3 -1.7,0.6 -0.6,0.2 -1.2,0.5 -1.7,0.9 -0.2,-0.1 -0.3,-0.2 -0.5,-0.3 0,0 0,0 -0.1,0 0,0 -0.1,0 -0.1,0.1 0,0.1 0,0.1 0.1,0.2 0.1,0.1 0.2,0.1 0.3,0.2 -0.1,0.1 -0.2,0.1 -0.3,0.2 -0.1,0.1 -0.1,0.1 -0.1,0.2 0,0.1 0.1,0.1 0.1,0.1 0,0 0,0 0.1,0 0.1,-0.1 0.3,-0.2 0.4,-0.3 0.5,0.3 1.1,0.6 1.7,0.9 0.5,0.2 1.1,0.4 1.7,0.6 0,0 -0.1,0 -0.1,0.1 -0.5,-0.4 -1,-0.5 -1.5,-0.6 z m -4.6,-1.5 c -0.2,0.1 -0.3,0.2 -0.4,0.4 -0.6,0.5 -1,1.1 -1.3,1.7 -0.4,-0.2 -0.8,-0.5 -1.1,-0.9 -0.3,-0.3 -0.6,-0.8 -0.8,-1.2 0.2,-0.5 0.4,-0.9 0.8,-1.2 0.3,-0.3 0.7,-0.6 1.1,-0.9 0.3,0.6 0.7,1.2 1.3,1.7 0.1,0.2 0.3,0.3 0.4,0.4 z m 8.9,2 c -0.1,0 -0.2,0 -0.3,0 0.1,0 0.2,0 0.3,0 0.2,0 0.3,0 0.4,0 -0.1,0 -0.2,0 -0.4,0 z m 1.3,-0.4 v 0 0 c 0.1,0 0.1,0 0.1,0.1 0,0 0,0 -0.1,-0.1 v 0 0 c -0.1,0 -0.3,0.1 -0.5,0.1 0.2,0 0.3,0 0.5,-0.1 z m 2.2,-0.5 c 0.6,-0.2 1.2,-0.5 1.7,-0.9 0.2,0.1 0.3,0.2 0.5,0.3 0.1,0 0.1,0 0.2,-0.1 0,-0.1 0,-0.1 -0.1,-0.2 -0.1,-0.1 -0.2,-0.1 -0.3,-0.2 0.1,-0.1 0.2,-0.1 0.3,-0.2 0.1,-0.1 0.1,-0.1 0.1,-0.2 0,-0.1 -0.1,-0.1 -0.2,-0.1 -0.1,0.1 -0.3,0.2 -0.4,0.3 -0.5,-0.3 -1.1,-0.6 -1.7,-0.9 -0.5,-0.2 -1.1,-0.4 -1.7,-0.6 0,0 0.1,0 0.1,-0.1 0.5,0 1,0.1 1.6,0.2 0.9,0.2 1.7,0.5 2.5,0.8 0.4,0.2 0.7,0.4 1.1,0.6 -0.3,0.2 -0.7,0.4 -1.1,0.6 -0.8,0.4 -1.6,0.6 -2.5,0.8 -0.5,0.1 -1.1,0.2 -1.6,0.2 0,0 -0.1,0 -0.1,-0.1 0.5,0.2 1.1,0 1.6,-0.2 z m 0.4,0.7 c 0.9,-0.2 1.8,-0.5 2.5,-0.8 0.4,-0.2 0.8,-0.4 1.1,-0.6 0.2,0.1 0.3,0.3 0.5,0.4 0.6,0.5 1,1.1 1.3,1.7 -0.8,0.3 -1.7,0.5 -2.5,0.5 -1.6,0 -3,-0.3 -4.2,-0.9 0,0 0,0 0,0 0.4,-0.1 0.9,-0.2 1.3,-0.3 z m -3.1,-3.4 c 0,0 0.1,0 0,0 0.1,0 0,0 0,0 l -0.6,-0.1 z m 0.1,-2.6 c 0,-0.7 -0.1,-1.2 -0.4,-1.5 -0.1,-0.2 -0.3,-0.3 -0.5,-0.4 -0.3,-0.2 -0.6,-0.1 -0.9,0 -0.2,0.1 -0.3,0.2 -0.5,0.4 -0.3,0.3 -0.4,0.8 -0.4,1.5 v 0 c 0,-0.7 0.1,-1.2 0.4,-1.5 0.2,-0.2 0.3,-0.3 0.5,-0.4 0.3,-0.1 0.6,-0.2 0.9,0 0.2,0.1 0.3,0.2 0.5,0.4 0.3,0.3 0.4,0.8 0.4,1.5 z m -3,2.6 c 0,0 0,-0.1 0,0 0,-0.1 0,-0.1 0,0 0.2,0 0.3,-0.1 0.5,-0.1 -0.2,0 -0.3,0 -0.5,0.1 z m -0.1,-0.1 c 0,0 0,0 0,0 0.1,0 0.3,0 0.4,0 -0.2,0 -0.3,0 -0.4,0 z m -0.2,-0.1 v 0 z m 0.8,3.5 c 0,0 0,0 0,0 0,0 0,0 0,0 l 0.6,0.1 z m -0.1,2.6 c 0,0.7 0.1,1.2 0.4,1.5 0.2,0.2 0.3,0.3 0.5,0.4 0.1,0.1 0.3,0.1 0.4,0.1 0.1,0 0.3,0 0.4,-0.1 0.2,-0.1 0.3,-0.2 0.5,-0.4 0.3,-0.3 0.4,-0.8 0.4,-1.5 v 0 c 0,0.7 -0.1,1.2 -0.4,1.5 -0.1,0.2 -0.3,0.3 -0.5,0.4 -0.1,0.1 -0.3,0.1 -0.4,0.1 -0.1,0 -0.3,0 -0.4,-0.1 -0.1,-0.1 -0.3,-0.2 -0.5,-0.4 -0.3,-0.3 -0.4,-0.8 -0.4,-1.5 z m 3,-2.6 c 0,0 0,0.1 0,0 0,0.1 0,0.1 0,0 -0.1,0 -0.3,0.1 -0.5,0.1 0.2,0 0.3,0 0.5,-0.1 z m 0.1,0.1 c 0,0 0,0 0,0 -0.1,0 -0.3,0 -0.4,0 0.2,0 0.3,0 0.4,0 z m 0.2,0.1 v 0 z m 9.3,-3.1 c 0.3,0.3 0.6,0.8 0.8,1.2 -0.2,0.5 -0.4,0.9 -0.8,1.2 -0.3,0.3 -0.7,0.6 -1.1,0.9 -0.3,-0.6 -0.7,-1.2 -1.3,-1.7 -0.1,-0.1 -0.3,-0.2 -0.4,-0.4 0.2,-0.1 0.3,-0.2 0.4,-0.4 0.6,-0.5 1,-1.1 1.3,-1.7 0.4,0.3 0.8,0.6 1.1,0.9 z m -9.5,-0.5 v 0 c -0.1,0 -0.3,0 -0.4,0 0.2,0 0.3,0 0.4,0 z m -0.8,-0.2 v 0 c 0,-0.1 0,-0.1 0,0 0,-0.1 0,-0.1 0,0 z m -1.7,-2.4 c 0,0.4 -0.3,0.8 -0.2,1.2 0.1,0.4 0,0.8 0.1,1.1 -0.1,-0.3 0.1,-0.6 0,-1.1 -0.1,-0.4 0.1,-0.8 0.1,-1.2 z m -1.5,2.4 v 0 c -0.4,-0.2 -0.7,-0.4 -1.1,-0.6 -0.7,-0.3 -1.3,-0.5 -1.9,-0.7 -0.7,-0.1 -1.4,-0.2 -2,-0.2 -0.5,0 -0.9,0.1 -1.4,0.2 -0.4,0.1 -0.9,0.3 -1.3,0.5 h -0.1 v -0.1 c -0.1,-0.2 -0.1,-0.4 -0.1,-0.5 0,-0.1 0,-0.2 0,-0.2 0,0.1 0,0.2 0,0.2 0,0.2 0,0.3 0.1,0.5 v 0.1 h 0.1 c 0.4,-0.2 0.9,-0.4 1.3,-0.5 0.4,-0.1 0.9,-0.2 1.4,-0.2 0.6,0 1.3,0.1 2,0.2 0.7,0.1 1.3,0.4 1.9,0.7 0.4,0.2 0.7,0.4 1.1,0.6 v 0 z m 0.4,3.7 v 0 0 c 0.1,0 0.3,0 0.4,0 -0.2,0 -0.3,0 -0.4,0 z m 0.8,0.2 v 0 c 0,0.1 0,0.1 0,0.1 z m 0,3.9 c -0.2,-0.4 -0.4,-0.9 -0.4,-1.5 0,0 0,0 0,0 0.1,0.6 0.2,1.1 0.4,1.5 0.2,0.3 0.3,0.4 0.6,0.5 0.1,0 0.2,0.1 0.4,0.1 -0.1,0 -0.3,0 -0.4,-0.1 -0.2,-0.1 -0.4,-0.3 -0.6,-0.5 z M 143,354 c 0,-0.4 0,-0.8 -0.1,-1.2 -0.1,-0.4 -0.1,-0.8 -0.2,-1.1 0.1,0.3 0.1,0.7 0.2,1.1 0.1,0.3 0.1,0.7 0.1,1.2 z m 7.5,-3.9 c -0.2,-0.1 -0.3,-0.3 -0.5,-0.4 l -0.1,-0.1 0.1,-0.1 c 0.2,-0.1 0.4,-0.3 0.5,-0.4 0.3,-0.3 0.5,-0.5 0.8,-0.8 0.2,-0.2 0.3,-0.4 0.4,-0.7 -0.1,0.2 -0.3,0.5 -0.4,0.7 -0.2,0.3 -0.5,0.6 -0.8,0.8 -0.2,0.1 -0.3,0.3 -0.5,0.4 l -0.1,0.1 0.1,0.1 c 0.2,0.1 0.4,0.3 0.5,0.4 0.6,0.5 1,1.1 1.3,1.7 v 0 0 0 c -0.2,-0.6 -0.7,-1.2 -1.3,-1.7 z m -3.7,5.2 v 0 0 0 c 0,-0.1 0,-0.1 0,-0.2 0,0.1 0,0.1 0,0.2 z m 0.6,-10.6 c 0.1,0.1 0.2,0.2 0.3,0.3 0.1,0 0.1,0.1 0.2,0.1 -0.1,0 -0.1,-0.1 -0.2,-0.1 -0.2,0 -0.3,-0.1 -0.3,-0.3 -0.1,-0.2 -0.1,-0.4 -0.1,-0.6 -0.1,0.3 0,0.5 0.1,0.6 z m -2.5,2.4 c 0.6,-0.3 1.3,-0.5 2,-0.7 0.7,-0.1 1.3,-0.2 2,-0.2 0.5,0 0.9,0.1 1.4,0.2 0.4,0.1 0.9,0.3 1.3,0.5 0.1,-0.2 0.1,-0.3 0.1,-0.5 0,-0.1 0,-0.3 0,-0.5 v 0 c 0,0.2 0,0.3 0,0.5 0,0.2 0,0.3 -0.1,0.5 -0.4,-0.2 -0.9,-0.4 -1.3,-0.5 -0.5,-0.1 -0.9,-0.2 -1.4,-0.2 -0.7,0 -1.3,0.1 -2,0.2 -0.7,0.2 -1.3,0.4 -2,0.7 -0.4,0.2 -0.7,0.3 -1,0.6 0.3,-0.3 0.7,-0.5 1,-0.6 z m -1.9,-0.6 c 0.1,-0.4 0.1,-0.7 0.1,-1.1 0,0 0,0 0,0 0,0.4 0,0.7 -0.1,1.1 z m -2.5,-2.7 c 0.2,-0.3 0.5,-0.4 0.7,-0.5 0.1,0 0.3,-0.1 0.4,-0.1 -0.1,0 -0.3,0 -0.4,0.1 -0.2,0 -0.5,0.2 -0.7,0.5 -0.3,0.4 -0.5,0.9 -0.5,1.6 0,0 0,0 0,0 0,-0.7 0.3,-1.2 0.5,-1.6 z m -0.1,2.7 c 0,0 0,0 0,0 0,0 0,0 0,0 0.1,0.4 0.1,0.8 0.2,1.1 -0.1,-0.3 -0.2,-0.7 -0.2,-1.1 z m -5.1,-3.6 c -0.5,-0.3 -1.1,-0.2 -1.7,-0.1 -0.2,0 -0.3,0.1 -0.5,0.2 -0.3,0.2 -0.6,0.4 -0.9,0.7 -0.2,0.3 -0.4,0.6 -0.5,1 -0.1,0.4 -0.2,0.8 -0.2,1.2 v 0 c 0,-0.4 0.1,-0.8 0.2,-1.2 0.1,-0.4 0.3,-0.7 0.5,-1 0.2,-0.3 0.5,-0.5 0.9,-0.7 0.2,-0.1 0.3,-0.1 0.5,-0.2 0.6,-0.2 1.2,-0.2 1.7,0.1 0.4,0.2 0.8,0.7 0.8,1.3 0,-0.6 -0.4,-1.1 -0.8,-1.3 z m 3.2,9.3 c -0.6,0.3 -1.3,0.5 -2,0.7 -0.7,0.1 -1.3,0.2 -2,0.2 -0.5,0 -0.9,-0.1 -1.4,-0.2 -0.5,-0.1 -0.9,-0.3 -1.3,-0.5 -0.1,0.2 -0.1,0.3 -0.1,0.5 0,0.1 0,0.3 0,0.5 v 0 c 0,-0.2 0,-0.3 0,-0.5 0,-0.2 0,-0.3 0.1,-0.5 0.4,0.2 0.9,0.4 1.3,0.5 0.4,0.1 0.9,0.2 1.4,0.2 0.7,0 1.3,-0.1 2,-0.2 0.7,-0.2 1.3,-0.4 2,-0.7 0.4,-0.2 0.7,-0.3 1,-0.6 -0.3,0.3 -0.7,0.5 -1,0.6 z m 2,0.6 c 0,0.4 -0.1,0.7 -0.1,1.1 0,0 0,0 0,0 0,-0.4 0.1,-0.7 0.1,-1.1 z m 2.2,2.7 c -0.2,0.3 -0.3,0.4 -0.6,0.5 -0.1,0 -0.2,0.1 -0.4,0.1 0.1,0 0.3,0 0.4,-0.1 0.3,0 0.4,-0.2 0.6,-0.5 0.2,-0.4 0.3,-0.9 0.3,-1.6 0,0 0,0 0,0 0,0.7 -0.1,1.2 -0.3,1.6 z m 0.3,-2.7 c 0,0 0,0 0,0 0,0 0,0 0,0 -0.1,-0.4 -0.1,-0.8 -0.2,-1.1 0.1,0.3 0.2,0.7 0.2,1.1 z m 0.9,-0.9 v 0 -0.1 c 0.3,0.2 0.7,0.3 1,0.5 0.7,0.3 1.3,0.5 1.9,0.6 0.7,0.1 1.4,0.2 2,0.2 0.5,0 0.9,-0.1 1.4,-0.2 0.4,-0.1 0.9,-0.3 1.3,-0.5 h 0.1 v 0.1 c 0.1,0.2 0.1,0.3 0.1,0.5 0,0.1 0,0.3 0,0.5 0,-0.2 0,-0.3 0,-0.5 0,-0.2 0,-0.3 -0.1,-0.5 v -0.1 h -0.1 c -0.4,0.2 -0.9,0.4 -1.3,0.5 -0.4,0.1 -0.9,0.2 -1.4,0.2 -0.6,0 -1.3,-0.1 -2,-0.2 -0.7,-0.1 -1.3,-0.4 -1.9,-0.7 -0.3,-0.2 -0.7,-0.4 -1,-0.6 v 0.1 z m 7.8,1.8 c 0,0.3 0,0.6 -0.1,0.9 0.1,-0.3 0.1,-0.6 0.1,-0.9 z m -1,1.6 c 0.1,0 0.1,-0.1 0.2,-0.2 0.1,-0.1 0.3,-0.1 0.4,-0.2 0.2,-0.1 0.3,-0.3 0.2,-0.5 v 0 c 0.1,0.2 -0.1,0.4 -0.2,0.5 -0.1,0.1 -0.3,0.1 -0.4,0.2 0,0.1 -0.1,0.2 -0.2,0.2 0.1,0.1 0.2,0.2 0.4,0.2 -0.1,0 -0.3,-0.1 -0.4,-0.2 z m 0,0.3 c 0.2,0 0.4,0 0.5,-0.1 0,0 0,0 0,0 v 0 c 0,0 0,0 0,0 -0.1,0.1 -0.4,0.1 -0.5,0.1 -0.1,0 -0.5,0 -0.5,0.1 v 0 c 0,0 0.4,-0.1 0.5,-0.1 z m -1.3,-0.1 c 0,0 0.1,0 0.1,0 0,0 0,0 -0.1,0 0,0 -0.2,0.1 -0.2,0.1 0.1,0 0.2,-0.1 0.2,-0.1 z" />
</g>
<g
   id="XMLID_292_"
   transform="translate(-20.7,-29.2)">
	<path
   id="XMLID_364_"
   class="st0"
   d="m 126,66.8 c -2.2,0 -4.4,0 -6.5,0 -4.3,0 -8.4,0.1 -12.3,0.1 -3.9,0 -7.6,0.1 -11,0.2 -1.7,0 -3.3,0.1 -4.9,0.1 -1.6,0 -3,0.1 -4.4,0.1 -2.8,0.1 -5.2,0.1 -7.2,0.2 -2,0 -2,0.3 0,0.4 2,0 4.4,0.1 7.2,0.2 1.4,0 2.9,0.1 4.4,0.1 1.6,0 3.2,0.1 4.9,0.1 3.4,0.1 7.1,0.1 11,0.2 3.9,0 8,0.1 12.3,0.1 2.1,0 4.3,0 6.5,0 0.9,0 1.9,0 2.9,0 -0.1,-0.1 -0.4,-0.5 -0.4,-0.9 0,-0.4 0.3,-0.7 0.4,-0.9 -1,0 -2,0 -2.9,0 z" />
	<path
   id="XMLID_363_"
   class="st0"
   d="m 203.5,67.5 c -2,-0.1 -4.4,-0.1 -7.2,-0.2 -1.4,0 -2.9,-0.1 -4.4,-0.1 -1.6,0 -3.2,-0.1 -4.9,-0.1 -3.4,-0.1 -7.1,-0.1 -11,-0.2 -3.9,0 -8,-0.1 -12.3,-0.1 -2.1,0 -4.3,0 -6.5,0 -0.9,0 -1.9,0 -2.9,0 0.1,0.1 0.4,0.5 0.4,0.9 0,0.4 -0.3,0.7 -0.4,0.9 1,0 1.9,0 2.9,0 2.2,0 4.4,0 6.5,0 4.3,0 8.4,-0.1 12.3,-0.1 3.9,0 7.6,-0.1 11,-0.2 1.7,0 3.3,-0.1 4.9,-0.1 1.6,0 3,-0.1 4.4,-0.1 2.8,-0.1 5.2,-0.1 7.2,-0.2 2,-0.1 2,-0.4 0,-0.4 z" />
	<path
   id="XMLID_293_"
   class="st0"
   d="m 154.1,67.6 c -0.2,-0.5 -0.4,-1 -0.8,-1.4 -0.3,-0.4 -0.8,-0.8 -1.2,-1.1 0.1,-0.2 0.1,-0.4 0.1,-0.6 0,-0.2 0,-0.4 0,-0.6 0,-1.1 -0.3,-2 -0.9,-2.6 -0.6,-0.6 -1.3,-0.9 -2.1,-0.9 -0.3,0 -0.6,0 -0.9,0 -0.7,0.1 -1.2,0.6 -1.5,1.2 -0.1,0.4 -0.1,0.7 0,1.1 0.1,0.2 0.3,0.6 0.8,0.8 0.3,0.1 0.7,0.1 1,0 0.2,-0.1 0.6,-0.3 0.7,-0.8 0,-0.2 -0.1,-0.5 -0.3,-0.7 -0.2,-0.2 -0.4,-0.3 -0.7,-0.2 -0.2,0.1 -0.5,0.3 -0.4,0.6 0,0.2 0.2,0.3 0.3,0.3 0.1,0 0.2,0 0.2,-0.1 0,0 0,-0.1 0,-0.1 0,0 -0.1,-0.1 -0.1,-0.1 0,0 -0.1,0 -0.1,0.1 0,0 0,0 0,0 0,0 0,0 -0.1,0 0,-0.1 0,-0.1 0,-0.2 0.1,-0.1 0.3,-0.2 0.4,-0.1 0.2,0.1 0.3,0.3 0.3,0.6 0,0.1 -0.1,0.3 -0.2,0.3 -0.1,0.1 -0.3,0.2 -0.4,0.2 -0.4,0 -0.8,-0.2 -0.9,-0.5 -0.2,-0.4 -0.1,-0.7 -0.1,-0.9 0.1,-0.4 0.4,-0.7 0.7,-0.9 0.3,-0.1 0.6,-0.2 0.9,-0.2 0.3,0 0.6,0.1 0.9,0.1 0.1,0 0.3,0.1 0.4,0.1 0.3,0.2 0.6,0.4 0.8,0.7 0.2,0.3 0.4,0.6 0.5,1 0.1,0.4 0.1,0.8 0.1,1.2 0,0.2 0,0.3 0,0.5 0,0.1 0,0.3 -0.1,0.4 -0.4,-0.2 -0.8,-0.3 -1.2,-0.4 -0.4,-0.1 -0.9,-0.2 -1.4,-0.2 -0.6,0 -1.3,0.1 -2,0.2 -0.7,0.1 -1.3,0.4 -2,0.7 -0.3,0.2 -0.7,0.5 -1,0.7 -0.2,0 -0.4,0.1 -0.6,0.1 h -0.4 c 0.1,0 0.1,-0.8 0.2,-1.2 0.1,-0.4 0.1,-0.8 0.1,-1.3 0,-0.7 -0.1,-1.2 -0.4,-1.6 -0.2,-0.3 -0.4,-0.5 -0.7,-0.6 -0.1,0 -0.3,-0.1 -0.4,-0.1 -0.2,0 -0.3,0 -0.4,0.1 -0.3,0.1 -0.5,0.3 -0.7,0.6 -0.3,0.4 -0.4,1 -0.4,1.6 0,0.4 0,0.9 0.1,1.3 0.1,0.4 0.1,1.2 0.2,1.2 H 140 c -0.2,0 -0.4,-0.1 -0.6,-0.1 -0.3,-0.2 -0.7,-0.5 -1,-0.6 -0.7,-0.3 -1.3,-0.6 -2,-0.7 -0.7,-0.1 -1.4,-0.2 -2,-0.2 -0.5,0 -1,0 -1.4,0.2 -0.4,0.1 -0.8,0.2 -1.3,0.4 0,-0.1 -0.1,-0.3 -0.1,-0.4 0,-0.1 0,-0.3 0,-0.5 0,-0.4 0,-0.8 0.1,-1.2 0.1,-0.4 0.2,-0.7 0.4,-1 0.2,-0.3 0.5,-0.5 0.8,-0.7 0.1,-0.1 0.3,-0.1 0.5,-0.2 0.3,0 0.5,-0.1 0.7,-0.1 0.3,0 0.6,0.1 0.9,0.2 0.3,0.2 0.6,0.5 0.7,0.9 0.1,0.2 0.1,0.6 -0.1,0.9 -0.1,0.3 -0.5,0.5 -0.9,0.5 -0.2,0 -0.4,-0.1 -0.4,-0.2 -0.1,-0.1 -0.2,-0.2 -0.2,-0.3 0,-0.2 0.1,-0.5 0.3,-0.6 0.1,0 0.3,0 0.4,0.1 0,0.1 0,0.1 0,0.2 0,0 0,0 -0.1,0 0,0 0,0 0,0 0,0 -0.1,-0.1 -0.1,-0.1 0,0 -0.1,0 -0.1,0.1 0,0 0,0.1 0,0.1 0,0.1 0.1,0.1 0.2,0.1 0.1,0 0.3,-0.1 0.3,-0.3 0.1,-0.3 -0.2,-0.5 -0.4,-0.6 -0.3,-0.1 -0.5,0 -0.7,0.2 -0.2,0.2 -0.3,0.5 -0.3,0.7 0.1,0.5 0.4,0.7 0.7,0.8 0.3,0.1 0.7,0.1 1,0 0.5,-0.2 0.7,-0.6 0.8,-0.8 0.1,-0.3 0.1,-0.7 0,-1.1 -0.2,-0.6 -0.8,-1.1 -1.5,-1.2 -0.3,-0.1 -0.6,-0.1 -0.8,0 -0.8,0.1 -1.5,0.4 -2.1,1 -0.6,0.6 -0.9,1.5 -0.9,2.6 0,0.2 0,0.4 0,0.6 0,0.2 0.1,0.4 0.1,0.6 -0.5,0.3 -0.9,0.7 -1.2,1.1 -0.4,0.5 -0.6,0.9 -0.8,1.4 v 0 c 0,0 0,0 0,0 0,0 0,0 0,0.1 v 0 c 0.1,0.5 0.4,1 0.8,1.4 0.3,0.4 0.8,0.8 1.2,1.1 -0.1,0.2 -0.1,0.4 -0.1,0.6 0,0.2 0,0.4 0,0.6 0,1.1 0.3,2 0.9,2.6 0.1,0.1 0.2,0.2 0.3,0.2 l 0.1,0.1 v 0 l 0.3,0.2 c 0.2,0.1 0.3,0.2 0.5,0.3 h -0.1 L 133,75 v 0 l 0.2,0.1 c 0,0 0,0 0,0 v 0 0 h 0.2 c 0,0 0,0 0,0 h 0.1 v 0 c 0.2,0 0.3,0.1 0.5,0.1 0.2,0 0.3,0 0.3,0 l -0.1,0.1 0.5,-0.2 c 0,0 0,0 0,0 v 0 c 1.3,-0.5 1.5,-1.5 1.5,-1.6 v 0 0 c 0,-0.3 0,-0.6 -0.2,-0.9 -0.2,-0.2 -0.5,-0.5 -0.9,-0.5 -0.1,0 -0.3,0.1 -0.4,0.3 0,0.1 0,0.2 0,0.2 0,0.1 0.1,0.1 0.2,0 v 0 0 c 0,-0.1 0.1,-0.2 0.2,-0.2 0,0 0.1,0 0.1,0.1 0,0.1 0,0.3 -0.1,0.3 -0.1,0.1 -0.2,0.1 -0.3,0.2 -0.1,0.1 -0.2,0.1 -0.3,0.2 -0.2,0.2 -0.3,0.4 -0.2,0.7 -0.1,0 -0.2,0.1 -0.3,0.3 0,-0.1 0.1,-0.3 0,-0.4 0,-0.1 -0.1,-0.2 -0.3,-0.2 0,0 -0.1,0 -0.1,0 0,0 -0.1,0 -0.1,0.1 0,0 0,0 0,0 0,0 0,0 0,0 -0.1,0 -0.1,0 -0.1,0 -0.3,0 -0.5,0.1 -0.8,0.2 -0.1,-0.1 -0.2,-0.1 -0.4,-0.1 v 0 c -0.1,0 -0.1,0 -0.2,0 0.1,0 0.2,-0.1 0.2,-0.2 l 0.1,-0.1 h -0.1 c -0.1,0 -0.1,-0.1 -0.1,-0.1 0,0 -0.1,-0.1 -0.1,-0.1 -0.1,-0.1 -0.2,-0.1 -0.2,-0.2 -0.1,0 -0.1,0 -0.1,-0.1 -0.1,0 -0.1,-0.1 -0.1,-0.1 0,0 0,0 0,0 0,0 0,0 0,0 0,-0.1 0,-0.1 0,-0.2 l 0.1,-0.1 h -0.1 c 0,-0.3 -0.1,-0.6 -0.1,-0.8 0,-0.2 0,-0.3 0,-0.5 0,-0.1 0,-0.3 0.1,-0.4 0.4,0.2 0.8,0.3 1.3,0.4 0.4,0.1 0.9,0.2 1.4,0.2 0.6,0 1.3,-0.1 2,-0.2 0.7,-0.1 1.3,-0.4 2,-0.7 0.3,-0.2 0.7,-0.3 1,-0.5 0.2,0 0.4,0.1 0.6,0.1 v 0 0 h 0.4 c -0.1,0 -0.2,0.5 -0.2,1 0,0.4 -0.1,0.8 -0.1,1.2 0,0.7 0.1,1.2 0.4,1.6 0.2,0.3 0.4,0.5 0.7,0.6 0.1,0 0.3,0.1 0.4,0.1 0.2,0 0.3,0 0.4,-0.1 0.3,-0.1 0.5,-0.3 0.7,-0.6 0.3,-0.4 0.4,-0.9 0.4,-1.6 0,-0.5 0,-0.8 -0.1,-1.1 -0.1,-0.4 -0.1,-1 -0.2,-1 h 0.4 v 0 0 0 c 0.2,0 0.4,-0.1 0.6,-0.1 v 0 c -0.2,0 -0.4,0 -0.6,0 0.2,0 0.4,0 0.6,0 0.3,0.2 0.7,0.4 1,0.6 0.7,0.3 1.3,0.5 2,0.7 0.7,0.1 1.4,0.2 2,0.2 0.5,0 1,-0.1 1.4,-0.2 0.4,-0.1 0.8,-0.3 1.2,-0.4 0,0.1 0.1,0.3 0.1,0.4 0,0.1 0,0.3 0,0.5 0,0.3 0,0.6 -0.1,0.9 h -0.2 l 0.1,0.1 c 0.1,0.2 -0.1,0.3 -0.2,0.4 0,0 -0.1,0.1 -0.1,0.1 -0.1,0 -0.2,0.1 -0.2,0.2 0,0 -0.1,0.1 -0.1,0.1 0,0 -0.1,0.1 -0.1,0.1 h -0.1 l 0.1,0.1 c 0.1,0.1 0.2,0.1 0.2,0.2 -0.1,0 -0.1,0 -0.2,0 v 0 c -0.2,0 -0.4,0.1 -0.4,0.1 -0.3,-0.2 -0.6,-0.3 -0.8,-0.2 0,0 -0.1,0 -0.1,0 0,0 0,0 0,0 0,0 0,0 0,0 0,-0.1 -0.1,-0.1 -0.1,-0.1 0,0 -0.1,0 -0.1,0 -0.1,0 -0.2,0.1 -0.3,0.2 0,0.1 0,0.3 0,0.4 -0.1,-0.1 -0.2,-0.2 -0.3,-0.3 0,-0.2 0,-0.5 -0.2,-0.7 -0.1,-0.1 -0.2,-0.1 -0.3,-0.2 -0.1,-0.1 -0.2,-0.1 -0.3,-0.2 -0.1,-0.1 -0.1,-0.2 -0.1,-0.3 0,0 0,-0.1 0.1,-0.1 0.1,0 0.1,0.1 0.2,0.2 v 0 0 c 0.1,0 0.2,0 0.2,0 0,-0.1 0,-0.1 0,-0.2 -0.1,-0.1 -0.3,-0.3 -0.4,-0.3 -0.4,0 -0.7,0.2 -0.9,0.5 -0.2,0.3 -0.2,0.6 -0.2,0.9 v 0 0 c 0,0 0.2,1.1 1.5,1.6 v 0 c 0,0 0,0 0,0 l 0.6,0.2 -0.1,-0.1 c 0.1,0 0.4,0 0.5,0 0.2,0 0.8,0 0.8,-0.1 v 0 l -0.4,-0.1 v 0 h 0.2 v 0 0 c 0,0 0,0 0,0 v 0 0 0 c 0,0 0,0 0,0 l 0.2,-0.1 v 0 c 0.2,0 0.4,-0.2 0.5,-0.3 l 0.1,-0.1 c 0.2,-0.1 0.4,-0.3 0.5,-0.4 0.6,-0.6 0.9,-1.5 0.9,-2.6 0,-0.2 0,-0.4 0,-0.6 0,-0.2 -0.1,-0.4 -0.1,-0.6 0.5,-0.3 0.9,-0.7 1.2,-1.1 0.4,-0.4 0.6,-0.9 0.8,-1.4 v 0 c 0.4,-0.5 0.4,-0.5 0.4,-0.6 z m -4.5,7.3 c -0.2,0 -0.4,0.1 -0.5,0.1 -0.2,0 -0.3,0 -0.3,0 -0.1,0 -0.3,-0.1 -0.4,-0.1 v 0 0 C 147.2,74.5 147,73.6 147,73.5 v 0 c 0,0.1 0.3,1 1.4,1.4 v 0 0 c 0.1,0 0.3,0.1 0.4,0.1 0,0 0.1,0 0.3,0 0.1,-0.1 0.3,-0.1 0.5,-0.1 v 0 0 z m -17.8,-2.5 c 0,0 0,0 0,0 v 0 z m 10.9,-10.6 c 0.2,0.4 0.4,0.9 0.4,1.5 v 0 c 0,-0.6 -0.2,-1.1 -0.4,-1.5 -0.2,-0.3 -0.4,-0.4 -0.6,-0.5 -0.1,0 -0.2,-0.1 -0.4,-0.1 0.1,0 0.3,0 0.4,0.1 0.2,0.1 0.4,0.3 0.6,0.5 z m -3,7.6 v 0 l 0.2,-0.1 c 0,0 0.1,-0.1 0.1,-0.1 0,0 -0.1,0.1 -0.1,0.1 z m 4,-3.6 v 0 l -0.2,0.1 c 0,0 -0.1,0.1 -0.1,0.1 0,0 0.1,-0.1 0.1,-0.1 z m -0.8,6.1 c 0,0.7 -0.1,1.2 -0.4,1.5 -0.1,0.2 -0.3,0.3 -0.4,0.4 -0.1,0.1 -0.3,0.1 -0.4,0.1 -0.1,0 -0.3,0 -0.4,-0.1 -0.2,-0.1 -0.3,-0.2 -0.4,-0.4 -0.3,-0.3 -0.4,-0.8 -0.4,-1.5 v 0 c 0,0.7 0.1,1.2 0.4,1.5 0.1,0.2 0.3,0.3 0.4,0.4 0.1,0.1 0.3,0.1 0.4,0.1 0.1,0 0.3,0 0.4,-0.1 0.2,-0.1 0.3,-0.2 0.4,-0.4 0.3,-0.3 0.4,-0.8 0.4,-1.5 z m 5.7,-5.2 c -0.8,-0.4 -1.6,-0.6 -2.5,-0.8 -0.4,-0.1 -0.9,-0.2 -1.3,-0.2 0,0 0,0 0,0 1.2,-0.6 2.5,-0.9 4.2,-0.9 0.8,0 1.6,0.2 2.5,0.5 -0.3,0.6 -0.7,1.2 -1.3,1.7 -0.1,0.1 -0.3,0.3 -0.5,0.4 -0.4,-0.3 -0.7,-0.5 -1.1,-0.7 z M 140.9,62 c 0.2,-0.2 0.3,-0.3 0.4,-0.3 0.2,-0.1 0.5,-0.1 0.7,0 0.1,0.1 0.3,0.2 0.4,0.3 0.3,0.3 0.4,0.8 0.4,1.4 0,0.4 0,0.7 -0.1,1.1 -0.1,0.3 -0.2,0.7 -0.3,1 -0.1,0 -0.2,0 -0.4,0 -0.1,0 -0.3,0 -0.4,0 v 0 c -0.1,0 -0.2,0 -0.3,0 0,0 0,0 0,0 0,0 0,0 0,0 -0.1,0 -0.2,0 -0.3,0 -0.1,-0.4 -0.2,-0.7 -0.3,-1 -0.1,-0.4 -0.1,-0.7 -0.1,-1.1 -0.1,-0.6 0.1,-1.1 0.3,-1.4 z m 0.7,3.7 v 0 c 0.2,0 0.3,0 0.4,0 -0.1,0 -0.2,0 -0.4,0 v 0 z m 0.1,3.6 c -0.1,0 -0.3,0 -0.4,0 -0.1,0 -0.1,0 -0.2,0 0.1,-0.2 0.1,-0.3 0.2,-0.5 0.1,-0.2 0.2,-0.4 0.3,-0.5 0.1,0.2 0.2,0.3 0.3,0.5 0.1,0.2 0.2,0.3 0.2,0.5 v 0 c 0,0 -0.1,0 -0.1,0 0,0 -0.2,0 -0.3,0 z M 141,68.6 c -0.1,0.2 -0.2,0.4 -0.3,0.6 -0.1,0 -0.2,0 -0.3,-0.1 0.2,-0.2 0.4,-0.3 0.6,-0.5 z m 0.3,-1 v 0 0 c -0.4,0.5 -0.9,1 -1.4,1.4 -1.2,-0.3 -2.4,-0.7 -3.5,-1.3 1.1,-0.6 2.2,-1.1 3.5,-1.3 0.5,0.3 1,0.7 1.4,1.2 z m 0.4,-1.6 c 0.1,0 0.3,0 0.4,0 0.1,0 0.1,0 0.1,0 v 0 c -0.1,0.2 -0.1,0.3 -0.2,0.5 -0.1,0.2 -0.2,0.4 -0.3,0.5 -0.1,-0.2 -0.2,-0.3 -0.3,-0.5 -0.1,-0.1 -0.1,-0.3 -0.2,-0.5 0,0 0.1,0 0.2,0 0,0 0.2,0 0.3,0 z m 0.7,0.7 c 0.1,-0.2 0.2,-0.3 0.2,-0.5 0.1,0 0.2,0 0.3,0.1 -0.1,0 -0.3,0.2 -0.5,0.4 z m 0.6,2.4 c -0.1,0 -0.2,0 -0.3,0.1 -0.1,-0.2 -0.1,-0.4 -0.2,-0.5 0.1,0.1 0.3,0.3 0.5,0.4 z m -2.6,-2.9 c 0.1,0 0.2,0 0.3,-0.1 0.1,0.2 0.2,0.4 0.3,0.6 -0.2,-0.2 -0.4,-0.3 -0.6,-0.5 z m 1.8,1.5 v 0 0 c 0.4,-0.5 0.9,-1 1.4,-1.4 1.2,0.3 2.4,0.7 3.5,1.3 -1.1,0.6 -2.2,1.1 -3.5,1.3 -0.6,-0.3 -1,-0.7 -1.4,-1.2 z m -0.6,1.8 v 0 0 c -0.1,0 -0.2,0 -0.3,0 0,0 0,0 0,0 0,0 0,0 0,0 0.1,0.1 0.2,0.1 0.3,0 z m -1,1.3 c 0.1,-0.3 0.2,-0.7 0.3,-1 0.1,0 0.2,0 0.3,0 0,0 0,0 0,0 0.1,0 0.2,0 0.3,0 v 0 c 0.1,0 0.3,0 0.4,0 0.1,0 0.3,0 0.4,0 0.1,0.4 0.2,0.7 0.3,1 0.1,0.3 0.1,0.7 0.1,1.1 0,0.7 -0.1,1.2 -0.4,1.5 -0.1,0.2 -0.3,0.3 -0.4,0.3 -0.3,0.1 -0.5,0.1 -0.7,0 -0.1,-0.1 -0.3,-0.2 -0.4,-0.3 -0.2,-0.3 -0.4,-0.8 -0.4,-1.5 0.1,-0.4 0.2,-0.7 0.2,-1.1 z m 2.2,0 c -0.1,-0.4 -0.2,-0.8 -0.3,-1.1 0.2,0.3 0.3,0.7 0.3,1.1 0.1,0.3 0.1,0.7 0.1,1.1 0,-0.4 0,-0.8 -0.1,-1.1 z m -0.3,-5.2 c 0.1,-0.4 0.3,-0.7 0.3,-1.1 0.1,-0.4 0.1,-0.7 0.1,-1.1 0,0 0,0 0,0 0,0.4 -0.1,0.7 -0.1,1.1 0,0.4 -0.1,0.7 -0.3,1.1 z m -2,-2.2 c 0,0 0,0.1 0,0.1 z m 0.8,2.3 c 0,0 0,0 0,0 0,0 0,0 0,0 -0.1,0 -0.3,0 -0.4,0 0.1,0 0.2,0 0.4,0 z m -1.3,0.4 v 0 0 c -0.1,0 -0.1,0 -0.1,-0.1 0,0 0,0 0.1,0.1 v 0 0 c 0.1,0 0.3,-0.1 0.5,-0.1 -0.2,0 -0.3,0 -0.5,0.1 z m -6.7,2.3 c 0.1,-0.1 0.3,-0.3 0.5,-0.4 0.3,0.2 0.7,0.4 1.1,0.6 0.8,0.4 1.6,0.6 2.5,0.8 0.4,0.1 0.9,0.2 1.4,0.2 0,0 0,0 0,0 -1.2,0.6 -2.6,0.9 -4.2,0.9 -0.8,0 -1.6,-0.2 -2.5,-0.5 0.2,-0.5 0.6,-1.1 1.2,-1.6 z m 4.1,-2.5 c -0.9,0.2 -1.7,0.5 -2.5,0.8 -0.4,0.2 -0.8,0.4 -1.1,0.6 -0.2,-0.1 -0.3,-0.2 -0.5,-0.4 -0.6,-0.5 -1,-1.1 -1.3,-1.7 0.8,-0.3 1.7,-0.5 2.5,-0.5 1.6,0 3,0.3 4.2,0.9 0,0 0,0 0,0 -0.4,0.1 -0.9,0.2 -1.3,0.3 z m 0.4,3.2 c -0.9,-0.2 -1.7,-0.5 -2.5,-0.8 -0.4,-0.2 -0.7,-0.4 -1.1,-0.6 0.3,-0.2 0.7,-0.4 1.1,-0.6 0.8,-0.4 1.6,-0.6 2.5,-0.8 0.5,-0.1 1.1,-0.2 1.6,-0.2 0,0 0.1,0 0.1,0.1 -0.6,0.2 -1.1,0.3 -1.7,0.6 -0.6,0.2 -1.2,0.5 -1.7,0.9 -0.2,-0.1 -0.3,-0.2 -0.5,-0.3 0,0 0,0 -0.1,0 0,0 -0.1,0 -0.1,0.1 0,0.1 0,0.1 0.1,0.2 0.1,0.1 0.2,0.1 0.3,0.2 -0.1,0.1 -0.2,0.1 -0.3,0.2 -0.1,0.1 -0.1,0.1 -0.1,0.2 0,0.1 0.1,0.1 0.1,0.1 0,0 0,0 0.1,0 0.1,-0.1 0.3,-0.2 0.4,-0.3 0.5,0.3 1.1,0.6 1.7,0.9 0.5,0.2 1.1,0.4 1.7,0.6 0,0 -0.1,0 -0.1,0.1 -0.5,-0.4 -1,-0.5 -1.5,-0.6 z m -4.6,-1.5 c -0.2,0.1 -0.3,0.2 -0.4,0.4 -0.6,0.5 -1,1.1 -1.3,1.7 -0.4,-0.2 -0.8,-0.5 -1.1,-0.9 -0.3,-0.3 -0.6,-0.8 -0.8,-1.2 0.2,-0.5 0.4,-0.9 0.8,-1.2 0.3,-0.3 0.7,-0.6 1.1,-0.9 0.3,0.6 0.7,1.2 1.3,1.7 0.1,0.2 0.3,0.3 0.4,0.4 z m 8.9,2 c -0.1,0 -0.2,0 -0.3,0 0.1,0 0.2,0 0.3,0 0.2,0 0.3,0 0.4,0 -0.1,0 -0.2,0 -0.4,0 z m 1.3,-0.4 v 0 0 c 0.1,0 0.1,0 0.1,0.1 0,0 0,0 -0.1,-0.1 v 0 0 c -0.1,0 -0.3,0.1 -0.5,0.1 0.2,0 0.3,0 0.5,-0.1 z m 2.2,-0.5 c 0.6,-0.2 1.2,-0.5 1.7,-0.9 0.2,0.1 0.3,0.2 0.5,0.3 0.1,0 0.1,0 0.2,-0.1 0,-0.1 0,-0.1 -0.1,-0.2 -0.1,-0.1 -0.2,-0.1 -0.3,-0.2 0.1,-0.1 0.2,-0.1 0.3,-0.2 0.1,-0.1 0.1,-0.1 0.1,-0.2 0,-0.1 -0.1,-0.1 -0.2,-0.1 -0.1,0.1 -0.3,0.2 -0.4,0.3 -0.5,-0.3 -1.1,-0.6 -1.7,-0.9 -0.5,-0.2 -1.1,-0.4 -1.7,-0.6 0,0 0.1,0 0.1,-0.1 0.5,0 1,0.1 1.6,0.2 0.9,0.2 1.7,0.5 2.5,0.8 0.4,0.2 0.7,0.4 1.1,0.6 -0.3,0.2 -0.7,0.4 -1.1,0.6 -0.8,0.4 -1.6,0.6 -2.5,0.8 -0.5,0.1 -1.1,0.2 -1.6,0.2 0,0 -0.1,0 -0.1,-0.1 0.5,0.2 1.1,0 1.6,-0.2 z m 0.4,0.7 c 0.9,-0.2 1.8,-0.5 2.5,-0.8 0.4,-0.2 0.8,-0.4 1.1,-0.6 0.2,0.1 0.3,0.3 0.5,0.4 0.6,0.5 1,1.1 1.3,1.7 -0.8,0.3 -1.7,0.5 -2.5,0.5 -1.6,0 -3,-0.3 -4.2,-0.9 0,0 0,0 0,0 0.4,-0.1 0.9,-0.2 1.3,-0.3 z M 142.9,66 c 0,0 0.1,0 0,0 0.1,0 0,0 0,0 l -0.6,-0.1 z m 0.1,-2.6 c 0,-0.7 -0.1,-1.2 -0.4,-1.5 -0.1,-0.2 -0.3,-0.3 -0.5,-0.4 -0.3,-0.2 -0.6,-0.1 -0.9,0 -0.2,0.1 -0.3,0.2 -0.5,0.4 -0.3,0.3 -0.4,0.8 -0.4,1.5 v 0 c 0,-0.7 0.1,-1.2 0.4,-1.5 0.2,-0.2 0.3,-0.3 0.5,-0.4 0.3,-0.1 0.6,-0.2 0.9,0 0.2,0.1 0.3,0.2 0.5,0.4 0.3,0.3 0.4,0.8 0.4,1.5 z m -3,2.6 c 0,0 0,-0.1 0,0 0,-0.1 0,-0.1 0,0 0.2,0 0.3,-0.1 0.5,-0.1 -0.2,0 -0.3,0 -0.5,0.1 z m -0.1,-0.1 c 0,0 0,0 0,0 0.1,0 0.3,0 0.4,0 -0.2,0 -0.3,0 -0.4,0 z m -0.2,-0.1 v 0 z m 0.8,3.5 c 0,0 0,0 0,0 0,0 0,0 0,0 l 0.6,0.1 z m -0.1,2.6 c 0,0.7 0.1,1.2 0.4,1.5 0.2,0.2 0.3,0.3 0.5,0.4 0.1,0.1 0.3,0.1 0.4,0.1 0.1,0 0.3,0 0.4,-0.1 0.2,-0.1 0.3,-0.2 0.5,-0.4 0.3,-0.3 0.4,-0.8 0.4,-1.5 v 0 c 0,0.7 -0.1,1.2 -0.4,1.5 -0.1,0.2 -0.3,0.3 -0.5,0.4 -0.1,0.1 -0.3,0.1 -0.4,0.1 -0.1,0 -0.3,0 -0.4,-0.1 -0.1,-0.1 -0.3,-0.2 -0.5,-0.4 -0.3,-0.3 -0.4,-0.8 -0.4,-1.5 z m 3,-2.6 c 0,0 0,0.1 0,0 0,0.1 0,0.1 0,0 -0.1,0 -0.3,0.1 -0.5,0.1 0.2,0 0.3,0 0.5,-0.1 z m 0.1,0.1 c 0,0 0,0 0,0 -0.1,0 -0.3,0 -0.4,0 0.2,0 0.3,0 0.4,0 z m 0.2,0.1 v 0 z m 9.3,-3.1 c 0.3,0.3 0.6,0.8 0.8,1.2 -0.2,0.5 -0.4,0.9 -0.8,1.2 -0.3,0.3 -0.7,0.6 -1.1,0.9 -0.3,-0.6 -0.7,-1.2 -1.3,-1.7 -0.1,-0.1 -0.3,-0.2 -0.4,-0.4 0.2,-0.1 0.3,-0.2 0.4,-0.4 0.6,-0.5 1,-1.1 1.3,-1.7 0.4,0.3 0.8,0.6 1.1,0.9 z m -9.5,-0.5 v 0 c -0.1,0 -0.3,0 -0.4,0 0.2,0 0.3,0 0.4,0 z m -0.8,-0.2 v 0 c 0,-0.1 0,-0.1 0,0 0,-0.1 0,-0.1 0,0 z M 141,63.3 c 0,0.4 -0.3,0.8 -0.2,1.2 0.1,0.4 0,0.8 0.1,1.1 -0.1,-0.3 0.1,-0.6 0,-1.1 -0.1,-0.4 0.1,-0.8 0.1,-1.2 z m -1.5,2.4 v 0 c -0.4,-0.2 -0.7,-0.4 -1.1,-0.6 -0.7,-0.3 -1.3,-0.5 -1.9,-0.7 -0.7,-0.1 -1.4,-0.2 -2,-0.2 -0.5,0 -0.9,0.1 -1.4,0.2 -0.4,0.1 -0.9,0.3 -1.3,0.5 h -0.1 v -0.1 c -0.1,-0.2 -0.1,-0.4 -0.1,-0.5 0,-0.1 0,-0.2 0,-0.2 0,0.1 0,0.2 0,0.2 0,0.2 0,0.3 0.1,0.5 v 0.1 h 0.1 c 0.4,-0.2 0.9,-0.4 1.3,-0.5 0.4,-0.1 0.9,-0.2 1.4,-0.2 0.6,0 1.3,0.1 2,0.2 0.7,0.1 1.3,0.4 1.9,0.7 0.4,0.2 0.7,0.4 1.1,0.6 v 0 z m 0.4,3.7 v 0 0 c 0.1,0 0.3,0 0.4,0 -0.2,0 -0.3,0 -0.4,0 z m 0.8,0.2 v 0 c 0,0.1 0,0.1 0,0.1 z m 0,3.9 c -0.2,-0.4 -0.4,-0.9 -0.4,-1.5 0,0 0,0 0,0 0.1,0.6 0.2,1.1 0.4,1.5 0.2,0.3 0.3,0.4 0.6,0.5 0.1,0 0.2,0.1 0.4,0.1 -0.1,0 -0.3,0 -0.4,-0.1 -0.2,-0.1 -0.4,-0.3 -0.6,-0.5 z M 143,72 c 0,-0.4 0,-0.8 -0.1,-1.2 -0.1,-0.4 -0.1,-0.8 -0.2,-1.1 0.1,0.3 0.1,0.7 0.2,1.1 0.1,0.3 0.1,0.7 0.1,1.2 z m 7.5,-3.9 C 150.3,68 150.2,67.8 150,67.7 l -0.1,-0.1 0.1,-0.1 c 0.2,-0.1 0.4,-0.3 0.5,-0.4 0.3,-0.3 0.5,-0.5 0.8,-0.8 0.2,-0.2 0.3,-0.4 0.4,-0.7 -0.1,0.2 -0.3,0.5 -0.4,0.7 -0.2,0.3 -0.5,0.6 -0.8,0.8 -0.2,0.1 -0.3,0.3 -0.5,0.4 l -0.1,0.1 0.1,0.1 c 0.2,0.1 0.4,0.3 0.5,0.4 0.6,0.5 1,1.1 1.3,1.7 v 0 0 0 c -0.2,-0.6 -0.7,-1.2 -1.3,-1.7 z m -3.7,5.2 v 0 0 0 c 0,-0.1 0,-0.1 0,-0.2 0,0.1 0,0.1 0,0.2 z m 0.6,-10.6 c 0.1,0.1 0.2,0.2 0.3,0.3 0.1,0 0.1,0.1 0.2,0.1 -0.1,0 -0.1,-0.1 -0.2,-0.1 -0.2,0 -0.3,-0.1 -0.3,-0.3 -0.1,-0.2 -0.1,-0.4 -0.1,-0.6 -0.1,0.3 0,0.5 0.1,0.6 z m -2.5,2.4 c 0.6,-0.3 1.3,-0.5 2,-0.7 0.7,-0.1 1.3,-0.2 2,-0.2 0.5,0 0.9,0.1 1.4,0.2 0.4,0.1 0.9,0.3 1.3,0.5 0.1,-0.2 0.1,-0.3 0.1,-0.5 0,-0.1 0,-0.3 0,-0.5 v 0 c 0,0.2 0,0.3 0,0.5 0,0.2 0,0.3 -0.1,0.5 -0.4,-0.2 -0.9,-0.4 -1.3,-0.5 -0.5,-0.1 -0.9,-0.2 -1.4,-0.2 -0.7,0 -1.3,0.1 -2,0.2 -0.7,0.2 -1.3,0.4 -2,0.7 -0.4,0.2 -0.7,0.3 -1,0.6 0.3,-0.3 0.7,-0.5 1,-0.6 z M 143,64.5 c 0.1,-0.4 0.1,-0.7 0.1,-1.1 0,0 0,0 0,0 0,0.4 0,0.7 -0.1,1.1 z m -2.5,-2.7 c 0.2,-0.3 0.5,-0.4 0.7,-0.5 0.1,0 0.3,-0.1 0.4,-0.1 -0.1,0 -0.3,0 -0.4,0.1 -0.2,0 -0.5,0.2 -0.7,0.5 -0.3,0.4 -0.5,0.9 -0.5,1.6 0,0 0,0 0,0 0,-0.7 0.3,-1.2 0.5,-1.6 z m -0.1,2.7 c 0,0 0,0 0,0 0,0 0,0 0,0 0.1,0.4 0.1,0.8 0.2,1.1 -0.1,-0.3 -0.2,-0.7 -0.2,-1.1 z m -5.1,-3.6 c -0.5,-0.3 -1.1,-0.2 -1.7,-0.1 -0.2,0 -0.3,0.1 -0.5,0.2 -0.3,0.2 -0.6,0.4 -0.9,0.7 -0.2,0.3 -0.4,0.6 -0.5,1 -0.1,0.4 -0.2,0.8 -0.2,1.2 v 0 c 0,-0.4 0.1,-0.8 0.2,-1.2 0.1,-0.4 0.3,-0.7 0.5,-1 0.2,-0.3 0.5,-0.5 0.9,-0.7 0.2,-0.1 0.3,-0.1 0.5,-0.2 0.6,-0.2 1.2,-0.2 1.7,0.1 0.4,0.2 0.8,0.7 0.8,1.3 0,-0.6 -0.4,-1.1 -0.8,-1.3 z m 3.2,9.3 c -0.6,0.3 -1.3,0.5 -2,0.7 -0.7,0.1 -1.3,0.2 -2,0.2 -0.5,0 -0.9,-0.1 -1.4,-0.2 -0.5,-0.1 -0.9,-0.3 -1.3,-0.5 -0.1,0.2 -0.1,0.3 -0.1,0.5 0,0.1 0,0.3 0,0.5 v 0 c 0,-0.2 0,-0.3 0,-0.5 0,-0.2 0,-0.3 0.1,-0.5 0.4,0.2 0.9,0.4 1.3,0.5 0.4,0.1 0.9,0.2 1.4,0.2 0.7,0 1.3,-0.1 2,-0.2 0.7,-0.2 1.3,-0.4 2,-0.7 0.4,-0.2 0.7,-0.3 1,-0.6 -0.3,0.3 -0.7,0.5 -1,0.6 z m 2,0.6 c 0,0.4 -0.1,0.7 -0.1,1.1 0,0 0,0 0,0 0,-0.4 0.1,-0.7 0.1,-1.1 z m 2.2,2.7 c -0.2,0.3 -0.3,0.4 -0.6,0.5 -0.1,0 -0.2,0.1 -0.4,0.1 0.1,0 0.3,0 0.4,-0.1 0.3,0 0.4,-0.2 0.6,-0.5 0.2,-0.4 0.3,-0.9 0.3,-1.6 0,0 0,0 0,0 0,0.7 -0.1,1.2 -0.3,1.6 z m 0.3,-2.7 c 0,0 0,0 0,0 0,0 0,0 0,0 -0.1,-0.4 -0.1,-0.8 -0.2,-1.1 0.1,0.3 0.2,0.7 0.2,1.1 z m 0.9,-0.9 v 0 -0.1 c 0.3,0.2 0.7,0.3 1,0.5 0.7,0.3 1.3,0.5 1.9,0.6 0.7,0.1 1.4,0.2 2,0.2 0.5,0 0.9,-0.1 1.4,-0.2 0.4,-0.1 0.9,-0.3 1.3,-0.5 h 0.1 v 0.1 c 0.1,0.2 0.1,0.3 0.1,0.5 0,0.1 0,0.3 0,0.5 0,-0.2 0,-0.3 0,-0.5 0,-0.2 0,-0.3 -0.1,-0.5 v -0.1 h -0.1 c -0.4,0.2 -0.9,0.4 -1.3,0.5 -0.4,0.1 -0.9,0.2 -1.4,0.2 -0.6,0 -1.3,-0.1 -2,-0.2 -0.7,-0.1 -1.3,-0.4 -1.9,-0.7 -0.3,-0.2 -0.7,-0.4 -1,-0.6 v 0.1 z m 7.8,1.8 c 0,0.3 0,0.6 -0.1,0.9 0.1,-0.3 0.1,-0.6 0.1,-0.9 z m -1,1.6 c 0.1,0 0.1,-0.1 0.2,-0.2 0.1,-0.1 0.3,-0.1 0.4,-0.2 0.2,-0.1 0.3,-0.3 0.2,-0.5 v 0 c 0.1,0.2 -0.1,0.4 -0.2,0.5 -0.1,0.1 -0.3,0.1 -0.4,0.2 0,0.1 -0.1,0.2 -0.2,0.2 0.1,0.1 0.2,0.2 0.4,0.2 -0.1,0 -0.3,-0.1 -0.4,-0.2 z m 0,0.3 c 0.2,0 0.4,0 0.5,-0.1 0,0 0,0 0,0 v 0 c 0,0 0,0 0,0 -0.1,0.1 -0.4,0.1 -0.5,0.1 -0.1,0 -0.5,0 -0.5,0.1 v 0 c 0,0 0.4,-0.1 0.5,-0.1 z m -1.3,-0.1 c 0,0 0.1,0 0.1,0 0,0 0,0 -0.1,0 0,0 -0.2,0.1 -0.2,0.1 0.1,0 0.2,-0.1 0.2,-0.1 z" />
</g>
<circle
   id="XMLID_405_"
   class="st5"
   cx="94"
   cy="233.00002"
   r="13.4" />
<circle
   id="XMLID_404_"
   class="st6"
   cx="94"
   cy="233.00002"
   r="9" />
<circle
   id="XMLID_407_"
   class="st5"
   cx="147.60001"
   cy="133.8"
   r="13.4" />
<circle
   id="XMLID_406_"
   class="st6"
   cx="147.60001"
   cy="133.8"
   r="9" />
<rect
   id="XMLID_6_"
   x="146"
   y="133.8"
   class="st0"
   width="4.0999999"
   height="99.199997" />
<rect
   id="XMLID_439_"
   x="94"
   y="230.90001"
   class="st0"
   width="56.099998"
   height="4.0999999" />
</svg>
